<mxfile host="app.diagrams.net" modified="2022-11-03T18:25:10.204Z" agent="5.0 (Windows NT 10.0; Win64; x64) AppleWebKit/537.36 (KHTML, like Gecko) Chrome/107.0.0.0 Safari/537.36" etag="tZuDxpVq3c1nObNesYw6" version="20.5.1" type="github">
  <diagram id="mKasroFzcH9q4DjM-FAQ" name="Trang-1">
    <mxGraphModel dx="1385" dy="628" grid="1" gridSize="10" guides="1" tooltips="1" connect="1" arrows="1" fold="1" page="1" pageScale="1" pageWidth="827" pageHeight="1169" math="0" shadow="0">
      <root>
        <mxCell id="0" />
        <mxCell id="1" parent="0" />
        <mxCell id="6Z3J_ZcBFyfKpuIfTOYv-7" value="" style="rounded=0;whiteSpace=wrap;html=1;" vertex="1" parent="1">
          <mxGeometry x="610" y="210" width="360" height="440" as="geometry" />
        </mxCell>
        <mxCell id="6Z3J_ZcBFyfKpuIfTOYv-1" value="&lt;b&gt;Trang chủ chính&lt;/b&gt;" style="rounded=0;whiteSpace=wrap;html=1;" vertex="1" parent="1">
          <mxGeometry x="220" y="230" width="290" height="160" as="geometry" />
        </mxCell>
        <mxCell id="6Z3J_ZcBFyfKpuIfTOYv-2" value="Đăng ký tài khoản" style="text;html=1;align=center;verticalAlign=middle;resizable=0;points=[];autosize=1;strokeColor=none;fillColor=none;" vertex="1" parent="1">
          <mxGeometry x="305" y="340" width="120" height="30" as="geometry" />
        </mxCell>
        <mxCell id="6Z3J_ZcBFyfKpuIfTOYv-3" value="" style="shape=image;verticalLabelPosition=bottom;labelBackgroundColor=default;verticalAlign=top;aspect=fixed;imageAspect=0;image=data:image/png,iVBORw0KGgoAAAANSUhEUgAAArkAAAO7CAYAAABQ4ZwLAAAAAXNSR0IArs4c6QAAAARnQU1BAACxjwv8YQUAAAAJcEhZcwAAFxEAABcRAcom8z8AAP+lSURBVHhe7L0HeBTXli3MN9/33vzz5r2ZeXPfnblzfe1rgwPgnPN1uDjnbGww2JgcnAETTc5gco7GJBswIHIOJuecjBASCihLKIf11yrpyEXrFKqqrlHT9F73bler6uxa6+zdrbO6qFbXgA2Ki4tRWFiIoqIilJSUlO91htLS0op8bvmzG5CPvF64FS5evIgLFy4gJyenfI8zUCt5Q6HdWjfmu+UmmJ+ammoGH7sBx/uhndvqrJuC6jm3bkCt5JWeh1/P+fqO1J6npaV56rlf2qu7bgqR2nNyqp7zHG7gl/Zg68Z8L1A9z87OLt/jDNRK3nDveUpKinkON/BLezB1U/lekJub67nn5FRzF5MbAGolbyi0W+vGfLfcBPMj1fCIyRWT6xTUSt5w7rmYXDG5TuGX9mDrxnwvEJMrJtcplHY1d1uTq0R6mSCh8t0Wl1AivXIT6kXBQrmFKlAotFvr7gXM54uC4VY/x/uh3S0v4WfPuXUL8krPw6/n6hdhJPY8PT3dU8/90h6KuhGR2nNyqp67PYdf2oOtm5d8QvXc7Rsbgrzh3nOaXLfn8Et7MHXzmk/k5eV57jk51dyvapObnJwsJtcFON4P7W55CT97LibXOTjeD+1ueQk/es7Xd6T2PJJNbiT2nJyRbHLZ80g1uV7+xcYv7cHUzWs+QZPrtefkVHOvwRPoIisrCxkZGcjMzDQf68bYBS8vM0/l82fdOLtQ+V64VfCdT1xcnLnVHbcLq3Zyu9XOHK/aycUcr3VjMD8hIcEMt/zBamdeuPfci/Zg68Yc6bn03E0wX/Wc59CNsYtgtTMvlD3ngh9uPWcwR3oeXM+V6XEawWoPpm4M5vjR8/j4ePMcujF2EYz2YOtmzfdSN0awPVdRg5eDdZGUlITExEQz+Fg3xi6suQzdGAq/3H47brs8a3AMixMdHY3z5887ylERzLwZVeVTi06P2meXb5dnDR5nTkxMjBl8XFWONey4nYQ1l6EbY6dF7bfjdjIHjlE9Vy8M3ThdONF+uaiqbtSi06P22eXb5VmDx5kTip4zVC5Dd9xOi9pvx+1kDhzD13ek95znqCrHGlVprypULkN33E6L2m/HzeNVzYPHrT3XjbEL67zttF8uqqqbnX613y7fLs8aKj+Se3727FnpeRU51qhKe1Whcu3y7bSo/Xa5PF7VPHicxt6PntfgP/noQrlhunA+1o2xC7pp9S5CuXjdOLtQ+V64VfBdPl8YfDegO24XVu3kdqudOV61k4s5XuvGYL56t++WP1jtzLsSes6t7rhdBKs92LoxR3rured8fUdqz/kLnD3nOXRj7CJY7cyTnrvXzhzpufTcTTA/nHvOfC91Y/C2nGB6rkLuydWAvKHSbq27FzA/Uu/PVD3n1i3IKz0Pv57LPblyT64bkDdce05OuSdX7sl1Cr+0B1M3r/mEb/fklu+rBGtzQlUgr9wEfwHy0nUkmly+IBhu9XO8H9rd8hJ+9jwSDU+k9pyv70jtOc2Ol577pT0UdSMitefkVD13ew6/tAdbNy/5hOp5JJpc9pxXM92ewy/twdTNaz7x3/7XFXhQ/X03tyLVBEPxt+kUWBgvvwiplbyh0G6tG/PdchPMV4aHj92A4/3Qzm111k1B9dzti4JaySs9D7+eqzc2kdhzr4bHL+3VXTeFSO05OVXPeQ438Et7sHVjvheonvOfvt2AWskb7j2nyeU53MAv7cHUTeV7gXpj46Xn5FRzF5MbAGolbyi0W+vGfLfcBPMj1fCIyRWT6xTUSt5w7rmYXDG5TuGX9mDrxnwvEJMrJtcplHY1dzG5AaBW8oZCu7VuzHfLTTA/Ug2PmFwxuU5BreQN556LyRWT6xR+aQ+2bsz3AjG5YnKdQmlXcxeTGwBqJW8otFvrxny33ATzI9XwiMkVk+sU1ErecO65mFwxuU7hl/Zg68Z8LxCTKybXKZR2NXcxuQGgVvKGQru1bsx3y00wP1INj5hcMblOQa3kDeeei8kVk+sUfmkPtm7M9wIxuWJynUJpV3MXkxsAaiVvKLRb68Z8t9wE8yPV8IjJFZPrFNRK3nDuuZhcMblO4Zf2YOvGfC8Qkysm1ymUdjV3MbkBoFbyhkK7tW7Md8tNMD9SDY+YXDG5TkGt5A3nnovJFZPrFH5pD7ZuzPcCMblicp1CaVdzF5MbAGolbyi0W+vGfLfcBPMj1fCIyRWT6xTUSt5w7rmYXDG5TuGX9mDrxnwvEJMrJtcplHY1dzG5AaBW8oZCu7VuzHfLTTA/Ug2PmFwxuU5BreQN556LyRWT6xR+aQ+2bsz3AjG5YnKdQmlXc6/BHbrgwYKCgksm6TTUBJnPLX/WjbMLVVwv3CpYmKSkJPMXoe64XVAreUOh3Vo35rvlZjCfLwj1otCNsQuO90M7t9VZNxWq59zqjtsFtZJXeh5+PefrO1J7TrPjped+aa/uuqmI1J6TU/Wc59CNsQu/tAdbN+brxlQVqudZWVna43ZBreQN957z6215Dt0Yu/BLezB1U/m6MVUF39h47Tk51dxr8Add5Ofnm06aX62mhDoNnljlc8ufdePsgnzk9cLN4jIyMzORmJhoFkjt040PDGolbyi0W+vGfLfcbC7z+YJg8LFquJPgeD+0c1uddQvsObfSc/34wOB4P7RzW511U/3l6zsSe05O9ptXOnguNz33S7v0XD9OF9a6Md8t99XSc+brxthFYM8zMjIituc8R7j1XOXrxtiF6i/fxHrtOTnV3Gtwhy54kE7aOkmnoSbIfG75s26cXajieuFWE2Vh1C9C6+SrCmolbyi0W+vGfLfcfAEwXxkePuY+3VhdcLwf2rmtzroF9pxb6bl+fGBwvB/aua3Ouqn+qjc2kdZzcnLh45UOnstNz/3SLj3Xj9OFtW7Md8t9tfSc+boxdhHY8/T09IjsOYPnCLeeq3zdGLtQ/VVvbLz0nJxq7jWUQw4MNVAVRzfGLihG5XPLn3Xj7IJ85PXCzScBQxWI7wbUPt34wKBW8oZCu7VuzHfLzTkyXxkePnY6bwbH+6Gd2+qsm+qv6jm3ap9ufGBQK3ml5+HXc/VuP9J6Tk7+s7WXnvulXXquH6cLa92Y75abcyRnuPec+boxdqH6q3pOs6v26cYHBrWSN9x7TpPLczidN8Mv7cHUTeXrxtiF6i9vUfHac3KqudfQ3dPAUANVcXRj7IJiVD63/Fk3zi7IR14v3AosEJ8YfCehoBsfGNRK3lBot9aN+W65CebzHh7rhxN0Y3XB8X5o57Y666ages6tgm58YFAreaXn4ddzvr4jsefkDPwQkm6sLvzSLj3Xj9OFtW7Md8tNkDPce8583Ri7UFA9p9lV0I0PDGolb7j3XN2HTejG6sIv7cHUTeXrxtiFAq/Ceu05OdXc5a8rBIBaVYGqW7u1bsx3y00wXxkePnYDjvdDO7fVWTcFncl1Amolr/Q8/HquMzxOQK3kDeeeK8PDx27gl/bqrptCpPacnIEm1yn80h5s3ZjvBTqT6wTUSt5w7zlNLs/hBn5pD6ZuKt8LdCbXCZR2NXcxuQGgVvKGQru1bsx3y00wP1INj5hcMblOQa3kDeeei8kVk+sUfmkPtm7M9wIxuWJynUJpV3MXkxsAaiVvKLRb68Z8t9wE8yPV8IjJFZPrFNRK3nDuuZhcMblO4Zf2YOvGfC8Qkysm1ymUdjV3MbkBoFbyhkK7tW7Md8tNMD9SDY+YXDG5TkGt5A3nnovJFZPrFH5pD7ZuzPcCMblicp1CaVdzF5MbAGolbyi0W+vGfLfcBPMj1fCIyRWT6xTUSt5w7rmYXDG5TuGX9mDrxnwvEJMrJtcplHY1dzG5AaBW8oZCu7VuzHfLTTA/Ug2PmFwxuU5BreQN556LyRWT6xR+aQ+2bsz3AjG5YnKdQmlXcxeTGwBqJW8otFvrxny33ATzI9XwiMkVk+sU1ErecO65mFwxuU7hl/Zg68Z8LxCTKybXKZR2NXcxuQGgVvKGQru1bsx3y00wP1INj5hcMblOQa3kDeeei8kVk+sUfmkPtm7M9wIxuWJynUJpV3MXkxsAaiVvKLRb68Z8t9wE8yPV8IjJFZPrFNRK3nDuuZhcMblO4Zf2YOvGfC8Qkysm1ymUdjV3MbkBoFbyhkK7tW7Md8tNMD9SDY+YXPc9J0qKS1DsnvYS7dVdtwoU5SElmb8IxeQ6hV/aq7tuCmJyxeQ6BbWSN9x7LibXOZR2NXcxuQGgVvKGQru1bsx3y00w36vh4Xg/tHNbnXVTiFSTS/D7vRnOUGoYW6PXBUYY7tb4yZgEv36xEAVFxk8OJVi1e69bMYqdEiqUGnUqzkVuQQFSMy8iKcl4nUfgGxsxuWJyncIv7cHWjfleICZXTK5TKO1q7jUoRhcUl5+ff8l3FzsNVRzmq0nqxtkF+cjrhVtFVlaWsfglmQXSHbcLaiVvKLRb68Z8t9xsLvP5gmDwMffpxuqC4/3Qzm111k2F6jm3uuN2Qa3kDZueG2NoDJ3+2irlePO8/EXFrIuI33sQ22duxqGT6SiE8UYwYws279mFH/dmIjaTv5QM86vjtoRVu5e6Maeg0NBGkRWgVp47cLzxi9Y4akZsFA6u+AKd5szBd+vicCI2yTDsOcZzPTDHPqg1rHpuCevrPDk52Xzs5nXul/bqrpsK/k6PiNe5Jdhfcqqe8xzh2HPm68ZUFarnfCOvO24X1Epe6Xloeq7ydWOqCr6J9dpzcqq516AYXVAcnXReXl5FkZyGKg7z1SR14+yCfOT1ws0JMliYxMRE8xeh2qcbHxjUSt5QaLfWjfluudlg5vMFweBj7tON1QXH+6Gd2+qsW2DPub2qe865FeaiIC0aMUe2Ys3yJfh57hzMnj0HixYtwtKlS7Fk+XpE7TqH39LK3/0bBpBXTUuMbSmycHb9SkR90wuDB4/FhJ8nYvaQ79Bl9Hx035SGk6mG7Sw1OHTclrBq91I3js/NTkXauZ04c3ofjidkIeUi+2b0tNJ4Xk0wzFzBBZxe0gmD292FRzr3x8dRMThyLgklBRev7p5bgq9pcvI1zisdPJeb17lf2qu7bqq//J0eEa9zS1wtPWe+boxdBPY8IyMjYnvOc4Rbz1W+boxdqP7yjY3XnpNTzV1MbkBQK3lDod1aN+a75eYLgPlicq/ixY/zMt7Nl+YmIWfXaEzs8DzuuaM2br75ZjNq166NOnXqoPbdz6B2kwnovzYWqWU2FyXMLynltVLkJR7Ab3O7o/k7j+DGOveh9g1foPXgX7EuowhZhaX893CzfrxqzOeQeeXYCF4tNa/wGkbUqt2sG000xxjHS0tUXtk760DTap7bmMfFxIM4Me9djBv+CbpFncSvceUcRjDXPEfFPcMZQOomLBk/EG2a98Ogn3dgW3I2zqckI+9iZL3OySkmV0yubqwu/NIebN2YrxtjF4E9F5MrJreqUNrV3OV2hYCgVvKGQru1bsx3y81/ymC+3K5wFf8zJg0u/V52DLJXfYEBbZ9ArafewxNvfoJmTT5GixYt0Lx5c7T49GN80LQZ3uwxA91XxeNYOm8KYH7ZDQtAAZC3H8vmDUfXzgPRpdsWbNpvucfRyb0QhpFV2g1/WwXKzXF58HlJ5J7fgQOjb0Lnr+7D+9MOYdlZc7cNDJL8o9i7ZSd+WnQW0fFlpDkl2YaOXIPiUo7LRVj1PCCsr3MugHwcbv+M6YVbhdyuILcrOA1qJa/0PDQ9V/m6MVWFb7crmKuEBmqgKo4bsBEqn1v+7AbkI68XbgX1IST54JlzcLwf2rmtzropqJ5HxAdSss4ie/U3mDKuGz6ZdQKz96YhN7Os52akHUHSmq5o3fZj3N9mIqbvSUCO9elwMRVph/fj8I5t2LrViO27sfdMPKLzjFrweGkuCnLScDY5A2fOxyLhtz04dmAXdu89hH2H4pGQaixYxjBz7sZ5+UGwwuSTOH9kjzFmH3Ydi8WJc7FISzyN9Mw0ZBqeWvcXHPIT9+Do5PvQu8tTaDLnONbElR9AFtLPHkP04UOITYjHubOZiDt1Edk5Ro3LRxjsyI5PRPTW44iPSUaescdp58Ky5xYwXz54Jh88cwq/tAdbN+Z7gXzwTD545hRKu5q7mNwAUCt5Q6HdWjfmu+UmmC8mNzJM7sU1HTB9Sl+0XnIBS3/jTmuu8ThrG6IGvY3PGtRD35+3Ymd6+SGkI2ntVMx84Vl89Lcn8NRTT+Gpp5/Ak18MQ/N1FxCdawwpPIpzO+ei9ehZaNStE4Z+8SAavXgv7rv/aTz4eBf0nnkIR/PN68Ema0HKPhya/BG6v3I/7nv0SdzbqC8adOqIif3exqwlv2DNeSBbU5r8xL04OuUB9OlWD03nncTaBHMvkLIGC79pgK7vvoZh0yahT4cl6NtwBdYZZv73V3Qijs1bgumvTcQvMw8gxtjj9Bkflj23gPlicsXkOoVf2oOtG/O9QEyumFynUNrV3MXkBoBayRsK7da6Md8tN8F8MbkRsPgVpgDbv8PPswai7fI0rKDDq4QipK/4Cku6PIz2k1fgx3OGGc2ORcKvAzDz6xfQ6N7n8PLz7+Cdd17C28/ejVvuew93t1qMRYezkJ+/D4d/+hJ3PPcU/u3hJ9G89Zto2/wdvP74bbjt/92CB5oOQ68DFxHPy6d5Z3Bywwh80+gJ/O3henjh/Q/wzudf49kX78Yjd/wj3uk0FD+cBjI0pVEmt3e3F9BiwWnsyMpG+rFtWNtjELq/3ADffdkG0xb+gD6NvkCr2z/CyJ/34DCdNe1s3i4sHD4Crzw4GAMm7EV82V5HCMueW8B8Mblicp3CL+3B1o35XiAmV0yuUyjtau5icgNAreQNhXZr3Zjvlptgvpjcq3zxK8pB3vndODmnBQb2+QzvjViPkVH7cezgYZw5k4KUzELzVgIT+8fi1ylN0WbKWow9AWQlGaZy/Fvo/3V9dJh7GGtieN9SHHJPz8Ho1z5Bg9u6YviiaKQUnMLhma3w2E1/xn883Bj9NiTit6wMJG0chOlNa+HWDz/Fo3POY39yAUpOT8GSoe/jwU/64L2Jh3A6JQkZ55dj0pd/Q+2//gF/azsSc6OBbM3Uykzug+jX9wW0WrAL63Zvw7a+3+PbR0dhyOBtOJ6dhYv5STg8qRHGNbkL3X9YhSh+kq7I+MUXPQFjJnbC7d1/wfdb4h3dRqwQdj0PAPPF5IrJdQq/tAdbN+Z7gZhcMblOobSruYvJDQC1kjcU2q11Y75bboL5YnKv8sXvwjYcmt0WLV66CbVvvh7/VfdB1L3vMfzt8XfwzPOTMeqXGJwvH4ojU7H9x3ZoZZjc4ft5M/8FpB5aiYMHduLEJb8zD2Nz4y/Q/YYvMWLuCSQUHMfB6R3wt2tfRt3nx+PnlPJhKatxfPLLeOzzr3DH9GjsiL+AtJVtMPnze9Fg0C8Yc7J8HJJx+MdW+PqFv6BJ1+8x+ze7K7n7DZP7MIaOeAxNpsxA/0YDMOnZ7zB0wG5sji6suAGjaEs3rPr+BXw+bRUmGYa5MPs8ste/h7EjXkaD2duxONq8vOsYYdfzADBfTK6YXKfwS3uwdWO+F4jJFZPrFEq7mruY3ABQK3lDod1aN+a75SaYLyb3aje523F47udo/cotqFunJq65/VHc/tCTePqp+njh5akYs/ic+U/3JkyT2xatJq/BkJ0Gl7nTeI7E7sfiOVMwZdxYjB07HCNHdMBnD7+Bhrd3xoglZ5CcdwAH5vTFY4/2w+OtNmEnb0sgErcg5pc2eKnXQDw89yR2xB3GqaGvY/CztdF78jqst3zpWsKGfvilzQ3oM2SIebtCmubpWJB8EMdnPIrvPq+Lx9/5Bh/U/gDdP+yGEUeycax8jInY+di7sBtaDlmGITvSkJZwCCd7vIVJn76DsWuP4ZDTL3srR9j1PADMF5MrJtcp/NIebN2Y7wVicsXkOoXSruYuJjcA1EreUGi31o35brkJ5ovJvcoXv+Jc5MfvxZmfWmFI/y9Qf8xmjFlhmM1jx3AuNg3p2ca5yodi/xhsmdIEbSavxoiDBp+RWxK/HPP7f4y7b6uNmrVqoVatmqh543X4y7/chjvv6oaBK2KRkb0fBxf3x2NNRuDZQbtxIr/8fAmbcGZ+K7zYYyAe+emoYXK341DHF/DdzXXQfYRhcrPKxxmIX98XC1rfgN5DhmKmjcktSjuIkz8+itb1bjE0fI0WnzTHoEld0O7no1h+ylLLwgM4tXk62n85FUPnrMbhI2sw6+3B6P3sWCzaF414ly+VsOt5AJgvJldMrlP4pT3YujHfC8Tkisl1CqVdzV1MbgColbyh0G6tG/PdchPMF5MbAYuf+cGz7viJHzxblorl2r8vW4i05V9icedH0GHKCswzUi4mbse+Hu+iW70n8PzHXdG6V3/0H9AHAwd8gZYPvI4Gt3fBiCXRSM7cjwNRhsltNxLPjdyD0+pKbvxGnP6pOV74rj8enscruYdwcuCrGPjULegzeT02WExuwsZ+WNz2BvS97JXc/Tg+42G0b/AInmn1E6ZtXow18/ri21eHYvyoAzhrlLPsV3smko6sw6Q23TGjVxf8vHwqXmuzAG9/vgXbT51H/u+23hHCsucWMF9Mrphcp/BLe7B1Y74XiMkVk+sUSruau5jcAFAreUOh3Vo35rvlJpgvJjcCFj/+nVz1J8SikrH0TPn+Chg6Mrdg0YC30LrBi+i/cCcOG3tTj8/Aj3f9GW3rvoYxOwzPqsam/YIf3vgUTW7uiuELfkNytmFylxgmt+VwPDtsF05WMrl98OCss9h1PhGpS1tiUtu78cmwxZho/ikzIgVHZ7dBp1evRfPvLndPbtkHz/r2eAFtlv2G7YU5SF02BfMefw9t2v6AYdGG5vK83IRD2NO/LSZ99AA+/qoxbhiwGPWjzuFEXLIxBSXQGcKy5xYwX0yumFyn8Et7sHVjvheIyRWT6xRKu5q7mNwAUCt5Q6HdWjfmu+UmmC8mN0JM7upvMHlsV3z84zHM2p2C7PSyb78yI+UQElZ1Qas2TXB/2+n4YV8y8lGKrFOzMPvh6/HZbS9i4KoMHOG5Ck8gfW0ntHroCdSt2wHdfzmDdF7JXdwXDzf/HvWG7LSY3A04Pa8pnuvWC/fMMExuQg6KT4zDLwPfwgPNBqHhzN8Qn5OFwrT1mNXpGdx503/i6c9GYZ7dX1dI2IMjk+5Fn+710GLRWWzONGoSsxbHR3+C1zv2Rr3ZJ7E/1eiJMbY0Lw7py75Fz5f+iJq31MVjPRdh4okixCVnGHOIvNe5mFwxuU7hl/Zg68Z8LxCTKybXKZR2NXcxuQGgVvKGQru1bsx3y00wX0xuBCx+ObHIWfMVBrZ9HDc88RYef+0jfNKoIT799NOy+LgR3vu0Jd7qPQu91ybhREbZeYtSd+NwrzfQ+YnauO+ZD/Fqk0/RrvOX6DmwPRq/cA9efvp5fPvTPpyJPYA9P3fH7Q3748G+23BMmdy4NTgx80M80r4Tao07iW3xxi/enBM4vmYwWjesh8cffx3vtWqNJsOH4INWL+DNv/0Rn343ArNPA5ma0uQn7MKhsTej89f3o/4Px7GC33hWnIC8mBno2/MtvNm2HSZsPosT5ss4Czj/A0a98wIe+l+v4qshm7HT2J/I7zbPjSzDw3wxuWJyncIv7cHWjfleICZXTK5TKO1q7jW4Qxc8yO/9tU7SaagJWr8zWTfOLlRxvXCrYGHUL0LdcbugVvKGQru1bsx3y00wX5lcPiZ0Y3XB8X5o57Y666ZC9Zxb3XG7oFbyhlXPC1JRsG88pnZ6CffffSvq1KmN2rVro27durj11ltx633P49Zm0zBkUyIqfkUwrzgLxUemYXbP1/DQXcY4Y/yDb3+M5lOWYMroL7GwfwP8sHY/jp89g2Prp+KTPj+ixQ+HcTa/nPfCbpxb1Qutx07A+wvO4FCy8cvbOHVxxhEcnfoxerzyEB565lk81H0E6ndsgYGv3IQBA8dgVjSQZv6eLT9PeeQnH8XphR9i4uhm6LEiGjsSjf0cVhyH47NaYtZ372L86qPYZfqZAsPnLsQPX3bHa3dPwJj5Z3AOxUjOSEVeJPS8PAjm8zVuXfx0Y3Xhl/bqrpsK9WY2Il7n5UGQU/Wc5yB0Y3Xhl/Zg68Z83ZiqQvU8KytLe9wuqJW80vPQ9Fzl68ZUFeqNjZeek1PNvQbF6ILi8vLykJ+fX1Ekp6GKw3w1Sd04uyAfeb1wc4IMFiYx0VjgjV+Eap9ufGBQK3lDod1aN+a75eYcmZ+cnGwGHzudN4Pj/dDObXXWTfVX9ZxbtU83PjColbxh1fMiY2zGOcQd34WNa1di0cL5mD9/PpYvX47Vq1dj5dpfsWr/eZzNKH8XXVqeV2L8nJ+IhDN7sHndKqw0xq/ashM7o5MQF3scaWf34XxyOjKyLyIrORaHfzuPI3GZuFhYnp+XjosXTuNozDnsj89CWo7xnDE8VklRDgrjD+DM7s3YvHUdNu1fgsldv8RndV/Ft91+xvJUIJO/tw3+kvI5sFZ5F9OQEbcPMdGHcPpCNtJyqdEYVmr0JP4QLpzYgTOJmUjlNHJikbezD7p81wF3fbMO03eno6AkD2mpycjKjICelwfnSE4ufF5e535pr+66qf7yd3rEvM7Lg3MkZ7j3nPm6MXah+qt6npmZWbFPNz4wqJW84d5zmj2ew+m8GX5pD6ZuKl83xi5Uf/nGxmvPyanmXoNidEFxdNK8ZKyK5DRUcZivJqkbZxfkI68Xbk6QkZGRUVEgtU83PjColbyh0G6tG/PdcvNJwHxlcvmY+3RjdcHxfmjntjrrFthzbq/6nhcZL2bTvZZBvYutDOMXw2XyfseluaUlxvnKHxMlReX5htm0/sNXcWEe0k8uxrafv8WwgX3Ra+BgDB7UG4O7fYjP3vkAjd+fhvELTuC3QuMNWKnxi6rY6Fe5FtYqL9+oQQWR8aBE6Sy5hL8wdgm2T2mB7m++jr+3HIzGm89iZ0oRSnOzkZqUFBk9Lw++psnJhS/JmDvP5eZ17pf26q6b6i9/p0fM67w8rpaeM183xi4Ce56enh6RPWfwHOHWc5WvG2MXqr/qopWXnpNTzb2GSg4MJVJNUDfGLkik8lVxdePsQon0wq3cvHpRsFBWh19VUKsqUHVrt9aN+W651YtCmVw+5j7dWF1wvB/aua3OugX2nNurvufm/MrsJufJXwQMPq6AYSpLS4xxl+QaNTHyDA9roqxGxi8HU7fxLpo+kzk8v/HcKVXnKLbw0gAbx4iiwnyk7hqEn7rcjOcfro3adeqYt07UueUmPPthOwxbdwGnLtIw0x1fqsWsmzH3/IIyXToeE6XGL7x9fTD767vw9B0t8F77rfj1ovF8NQ7lGa/vC5HS8/Lga5qcfI1br/DoxurCL+3VXTfVX7X4Sc/Dr+fM142xi8Ce841NpPac5wi3nqt83Ri7UP1VV++99Jycau41rPcyWIODKZQJPLlujF2oRqjC8mfdOLsgH3m9cKtggfiON5LuyWUwn/+8weBj3Ri74Hg/tHNbnXVToXrOre64XVAreaXnLutumEya1pyEvTi9YxaWLpyDOXMYczFn7s9YuXUfzuSqv3NrjA7Id1K3slSjPynkWIili/Zg24Fs0+ASObxXL0J7br0nVzfGLvzSXt11U8Hf6ZH4Oien9f5M3Ri78Et7sHVjvm5MVaF6TrOrO24X1ErecO85jS7PoRtjF35pD6ZuKl83pqrgVWCvPSenmrv8dYUAUKsqUHVrt9aN+W65CebzRcHgYzfgeD+0c1uddVNQPefWDaiVvNJzb9qL3Es24UfP+fqO1J7LX1eQv67gFH5pD7ZuzPcC1XO+sXEDaiVvuPdcvZl1A7+0B1M3le8FvArstefkVHMXkxsAaiVvKLRb68Z8t9wE80NpeK6EnovJdQ6OD1p7wP2zTuFHz8Xkisl1Cmolb7j2nJxicsXkOoVf2oOpm8r3AjG5VUBMrphcp6BW8krPw6/nYnLF5DoFtZI3XHtOTjG5YnKdwi/twdRN5XuBmNwqICZXTK5TUCt5pefh13MxuWJynYJayRuuPSenmFwxuU7hl/Zg6qbyvUBMbhUQkysm1ymolbzS8/DruZhcMblOQa3kDdeek1NMrphcp/BLezB1U/leICa3CojJFZPrFNRKXul5+PVcTK6YXKegVvKGa8/JKSZXTK5T+KU9mLqpfC8Qk1sFxOSKyXUKaiWv9Dz8ei4mV0yuU1ArecO15+QUkysm1yn80h5M3VS+F4jJrQJicsXkOgW1kld6Hn49F5MrJtcpqJW84dpzcorJFZPrFH5pD6ZuKt8LxORWATG5YnKdglrJKz0Pv56LyRWT6xTUSt5w7Tk5xeSKyXUKv7QHUzeV7wVicquAmFwxuU5BreSVnodfz8Xkisl1Cmolb7j2nJxicsXkOoVf2oOpm8r3AjG5VUBMrphcp6BW8krPw6/nYnLF5DoFtZI3XHtOTjG5YnKdwi/twdRN5XvBf7vJVQPdFkdB5bstjgJ5vXITfFHw+55ZKLcgb6i0+1F3vigYbvVzvB/a3fIqBMNNqJ5z6xbklZ67h9LullchGG6Cr+9I7Xl6erqnnhN+aA9F3YhI7Tmheu7lHH5oD7ZuXvNVz92+sSHIG+495xsbL+fwQ3swdQsmPy8vz3PPyanmXoMidFFQUGCS5OfnV7hxp0H3rPK55c+6cXZBPvJ64VaRlZWFxMRE812A7rhdUCt5Q6HdWjfmu+VmMJ9PDAYf68bYBcf7oZ3b6qybCtVzbnXH7YJaySs9D7+e8/UdqT3n1R0vPfdLe3XXTUWk9pycquc8h26MXfilPdi6MV83pqpQPc/MzNQetwtqJW+495xXNHkO3Ri78Et7MHVT+boxVQXNrdeek1PNvYb6Z87AUIXlC4qPdWPsQr0QVb5uDN+NXm4/83TcdnnW4JiEhAScPXvW3DrJUWHV7nbeDJWv086gFp0etY85urrb5VmDx5kTGxtrBh9XlWMNjr+c9suFyg33nttpv1xUVTdq0elR+5gTjj1nME96Htqe8xxV5VijKu1VBfP+u3pe1Tx4nAuf6rlujF2oeYei5wzmSM+99zwmJgbx8fHaMXah5h3uPT937px5jqpyrFGV9qqCeTrtKuy0qP0qPzCXx6uaB48H23MVYnIDwqrd7bwZKl+nnUEtOj1qH3N0dbfLswaPM0f9IuTjqnKswfGX0365ULnh3nM77ZeLqupGLTo9ah9zwrHnDOZJz0Pbc56jqhxrVKW9qmDef1fPq5oHj4vJFZPrNNS8w73nYnL143RhnTdDblcICGolbyi0W+vGfLfcDOar5vKxboxdcLwf2rmtzrqpkNsV5HYFp0Gt5A3nnqtf5nysG2MXfmmv7rqpkNsVIvN2haSkJLldQTPGLvzSHkzdVL5uTFXB2xW89pycau7ywTMNyBsq7X7UXb1Tcquf4/3Q7pZXIRhuQj54Jh88cwPyhnPP5YNn8sEzN/BDe7B185ovHzyTD565ATnV3OVPiAWAWskbCu3WujHfLTfBfHXZno/dgOP90M5tddZNQfXc7YuCWskrPQ+/nvP1Hak9p9nx0nO/tFd33RQitefkVD3nOdzAL+3B1o35XqB6ziu6bkCt5A33nvNqLs/hBn5pD6ZuKt8L+MbGa8/JqeYuJjcA1EreUGi31o35brkJ5keq4RGTKybXKaiVvOHcczG5YnKdwi/twdaN+V4gJldMrlMo7WruYnIDQK3kDYV2a92Y75abYH6kGh4xuWJynYJayRvOPReTKybXKfzSHmzdmO8FYnLF5DqF0q7mLiY3ANRK3lBot9aN+W65CeZHquERkysm1ymolbzh3HMxuWJyncIv7cHWjfleICZXTK5TKO1q7mJyA0Ct5A2FdmvdmO+Wm2B+pBoeMblicp2CWskbzj0Xkysm1yn80h5s3ZjvBWJyxeQ6hdKu5i4mNwDUSt5QaLfWjfluuQnmR6rhEZMrJtcpqJW84dxzMblicp3CL+3B1o35XiAmV0yuUyjtau5icgNAreQNhXZr3ZjvlptgfqQaHjG5YnKdglrJG849F5MrJtcp/NIebN2Y7wVicsXkOoXSruYuJjcA1EreUGi31o35brkJ5keq4RGTKybXKaiVvOHcczG5YnKdwi/twdaN+V4gJldMrlMo7WruYnIDQK3kDYV2a92Y75abYH6kGh4xuWJynYJayRvOPReTKybXKfzSHmzdmO8FYnLF5DqF0q7mLiY3ANRK3lBot9aN+W65CeZHquEJpcl1W2u/wV8Ebn8ZXA1g3zIyMszeRRr4PJeeRxYivef8utZIA3vOr7CuTvi1nqt8L/DN5PIHXajvLQ7l9x574WZxGXxS8HuPWSC1Tzc+MKiVvKHQbq0b891ys7nM57s+Bh+rhjsJjvdDO7fVWbfAnnNb3T3nNpRQWiIR7FkkQj2/IxHS88hDJPeca1KwUGuEk/BrPVf5ujF2odZumnuu55mZmRX7dOMDQ2lXfqIGxeiC4ngVlG5aGQ+noYrDfDVJ3Ti7IB95vXCribIwiYmJpuFR+3TjA4NayRsK7da6Md8tN58EzOf3PTP4mPt0Y3XB8X5o57Y66xbYc26rq+eKg7xr1qzB3LlzMX36dMcxbdo0TJ06FZMnT8aUKVPMn3Xj7GLGjBlm/pgxY8zgY+7TjdUFx5OXwce6MXZh1c6tW+3BcKuYMGECRo4caW51x+2CWskbCu3WujHfLbfq+ejRo83gY+l51UGt5JWeh2/Px48frz1uF9RK3quh5zyH257/8MMP+Pnnn3Hs2DHXa6If67nK142xC6WTFyi5rvIKvhftyk/UoOvVhRKpJqgbYxckUvnKsOjG2YUS6YVbFUNncnXjA4NaVYGqW7u1bsx3y01Dy3xlcvmY+3RjdcHxfmjntjrrFthzq8nVjQ8MaiWvF+28Us7Yvn076tWrh+uvvx433nijq6hVq1ZF6I5XFcyrWbOmGW7PYeV2m8vwK9dLPoN5N9xwg6f8YLitucHm645XFcyTnoeX9mByGcyL9J5z7rrjl4tguK25webrjlcVzAum56zZddddh6FDh5pegGuVbh0LDL/Wc5WvG2MXau3WmVzd+MBQ2pWfqMGJ60INVIZDN8YuKEblc8ufdePsgnzk9cKtTAcLxEvdvOSt9unGBwa1kjcU2q11Y75bbs6R+ep2BT52Om8Gx/uhndvqrJvqr+o5t2qfbnxgUCt5vWhXWL58Oa655hrcdNNN6NChAzp16lSt0blzZzN0x67mUPOO5Lnrjl3NIT2XnkdSBDPv1157Df/wD/+A1q1bl69UZbc/VBV+recqXzfGLtTazavA6vZDt+s5OZWfkA+eBYBayRsK7da6Md8tN8F8+eBZ9X7wjFi2bBlq166N5s2bl+8RCAQCgSB0UOtSmzZtyvc4g1/rucr3Al4F9uWDZ+X7K0FN0Ivp8KtAXrgVxOSKyXUKaiWvV+0Ef5nUrVv3knfMAoFAIBCECqtXrzbXJTG5GqgJejEdfhXIC7eCmFwxuU5BreT1qp3g7Qr8ZdKsWTPzPAKBQCAQhBKLFy82r+S2bdu2fI8z+LWeq3wvEJNbBcTkisl1Cmolr1fthJhcgUAgEFxJEJMrJrcSqJW8odBurRvz3XITzBeTKyZXIBAIBJENMbliciuBWskbCu3WujHfLTfBfDG5YnIFAoFAENkQkysmtxKolbyh0G6tG/PdchPMF5MrJlcgEAgEkQ0xuWJyK4FayRsK7da6Md8tN8F8MblicgUCgUAQ2RCTKya3EqiVvKHQbq0b891yE8wXkysmVyAQCASRDTG5YnIrgVrJGwrt1rox3y03wXwxuWJyBQKBQBDZEJMrJrcSqJW8odBurRvz3XITzBeTKyZXIBAIBJENMbmGyeUOXfAgv/fXOkmnoSbIfG75s26cXajieuFWwcLwe49peHTH7YJayRsK7da6Md8tN4P5KSkpZvCxboxdcLwf2rmtzrqpUD3nVnfcLqiVvF60K6hvPBOTKxAIBIIrAcrk8hvP1HoVuIbpwq/1XOXrxlQVvEDJ9TwrK0t73C6UduUnalCMLiguLy8P+fn55kDdGLtQxWG+mqRunF2Qj7xeuFVkZmYiMTHRLJDuuF1QK3lDod1aN+a75WZzmZ+cnGwGH3OfbqwuON4P7dxWZ91UqJ5zqztuF9RKXi/aFaKiolCnTh0xuQKBQCC4IqBMLr9uXq1XgWuYLvxaz1W+bkxVwYtVXM8zMjK0x+1CaVd+ogbF6ILi6KR5yVgZD6ehisN8NUndOLsgH3m9cHOCDBZGGR61Tzc+MKiVvKHQbq0b891y09AyX5lcPuY+3VhdcLwf2rmtzroF9pzb6uq5wpIlS8TkCgQCgeCKgdXkcj0kAtcwXfi1nqt83Ri7UGs3L1ByPU9PT3e9npNT+Qm5khsQ1EreUGi31o35brnlSq5cyRUIBAKBgJAruflX9z256kNIuuN2oa58hkK7tW7Md8tNMF998IyPCd1YXXC8H9q5rc66qVA9l3tyBQKBQBDpsH7wTK1XgWuYLvxaz1W+bkxVwavAXM+DvifXnLUGSqSaoBuQSOUrw+IGSqQXbgX56wry1xWcglrJ61U7IX9dQSAQCARXEqwm1w38Ws9VvhfwVgN10coNlHblJ8TkBoBayRsK7da6Md8tN8F8MblicgUCgUAQ2RCTKya3EqiVvKHQbq0b891yE8wXkysmVyAQCASRDTG5YnIrgVrJGwrt1rox3y03wXwxuWJyBQKBQBDZEJMrJrcSqJW8odBurRvz3XITzBeTKyZXIBAIBJENMbliciuBWskbCu3WujHfLTfBfDG5YnIFAoFAENkQkysmtxKolbyh0G6tG/PdchPMF5MrJlcgEAgEkQ0xuWJyK4FayRsK7da6Md8tN8F8MblicgUCgUAQ2RCTKya3EqiVvKHQbq0b891yE8wXkysmVyAQCASRDTG5YnIrgVrJGwrt1rox3y03wfxQmFwTJcH23OD31m4TYnIFAoFAICiDmFwxuZVAreQNhXZr3YqMrRcwP1Qmt8QHk1vssd+EmFyBQCAQCMogJtcwuRSjC4rLz8+/5LuLnYYqDvPVJHXj7IJ85PXCzQkyWJikpCTT8Kh9uvGBQa3kDYV2Vbe8PKM5lzynjB8CxlZ+ypXNnfkpKSlm8LHTeTM43ol2xV2UsA0n1vfFqOW/YOyRi0jKMZ7MJXxjZFc3Q0t5bhl+12ZewS3JB/KOYmvUWPTpNwDTNx3B2bKBBgLP9Xuo/qqec6v26cYHRjA9V1i2bJmYXIFAIBBcMVAmt02bNuZ6SOjWscBQXiRYH6TydWPsQq3dvEDJ9TwrK8v1ek5O5WVqUIwuKI5OOi8vr8L0OA1VHOarSerG2QX5yOuFmxNkZGZmIjEx0SyQ2qcbHxjUSt5QaC8sLKt7Xl4mstMSkXD6HOLOXkDaReOcnIMxpphXO43HhcaYiymnkZgUi/iMPFzML3sSMj85OdkMPuY+HZcuyrir1l5iPuGA/JPzsHncI3ix7Ud4avgWbDyTiVxezS3IR1Fg3ai/0Dhn9gVD23mcupCBxOyCit4UlhrzTzuD1OUj0eede1Gzdl088ekEzNiSjsRcYwz/Zz2fJdQ5VM+5Vft04wMjmJ4rREVFoU6dOmJyBQKBQHBFQJnc1q1bm+shoVvHAoNrGNfCYH2QyteNsQu1dvNiFdfzjIwM1+u51cuIyQ0IaiVvKLQXFhkmtcB411R0BnHbf8KEJj3Q+/PZWH4iC4k0lsVFKC0pe0eTe347ji/4CBOm9sD3m5JwLKVsPw1mmclNMfm5r9jI0/EFhvWJUUm79RzFfLdkvKvKOou4fZMxsn0zfNauH2Zsi8aJ/FIj1zDXRZfWrZj684wn66GZ+GnuYLz/wxZMPpjBf1swNZYgFUmHlmPx2y3Q/YkX0Ljlp3jxkb74+tNV2BKXBeO9nHFOo4+Wc9I4M8rewYnJFQgEAoFAQUyuYXLVJd7AUAOV2dGNsQuKUfnc8mfdOLsgH3m9cKuguVX/dK07bhfUSt5QaDe8o2kgUXoEZ6IG4ovrX8br9/bEhN0ZOMdnZ+nv/zye+9sS7BryX/isw8to/FMctieW7S8x9KZm5iOnoPINDfb/5G/eEFGB0mJj3sbc1bFLoNlXtG8rTi9bikOxqThvvI54FddwpOX5ZWGevzgH2N0HI4d9gn/vuxpdd+aZ+URpaRZSzx7Ajv7zsXvmGpyOOYWVozfhl0HbcSjpIhzdlVOYixSj55mZWZdwVxXB9Fxh6dKlYnIFAoFAcMXAeruCWq8C1zBdcA30w8OpfN2YqoK3mtLD8aKV7rhdKO3Kh8kHzwJAreQNhXYylZh0xxGzcji+ve0d1P/bAEw/kI3z3G1BwdkV2Df6JnTo/i5aLkrAnuTyA8ZZMpKjEXfmIGLOnMHZszE4l5CC1HzDfJaPqAxDa0EO0hOzkJKYi5z8sidlGYx3UJnZyEtMN2pagAr7lpuK7KRYxJ6LRcypUzhzKhqnkrKRnGucq9RwuoF1KzX2Z51D8vJv0bXTu/jTV5PQJioaCReN54k51Kj5xSTEHD+Bk0dP4Ex0DE5FpyI+ucBQUIbSYuMFk5OM3Lw0ZGZnIPX8ecSfPYuYc+cRl5qDuDTjRZF8Abk58sEzgUAgEEQ25INn8tcVKoFayRsK7WQqM7kncG7VSHS5qz4aPj0YPxy6iATutqDw3CocGFsXnXp+gDZLErEvpfwA8pC0ow+mdXkarz/7d/z978/glaYd0WNVHA7llg+phCTknN6AuR1+xsiO27AnLhtlQ6k/Fien/IglTcdh6YrTiDb3pyNlZQ9MalUPrz7zDJ576RW8/MFneH3gKsw8kGYo0NSs6Dyy9kxD32ZP4OabrsE/1boTN3wyFK3XJOKMSZaEtP0/oFuHj/HKay/jpZfeweudZ2HYtrSKq7hFF/YheuVnWLS4C76fMg69P2yIpn+vh3ovvIuXOsxCj+XROJ6YjNKSgvIMZwi254SYXIFAIBBcSRCTKya3EqiVvKHQTiZ1JffcypHofGdDfPzcGCyIMRrO3VZkbkP0jNvRo299tIm6gL2pxr7iZGQeW43pXz6H1+6vhTsefRxPPXU/Hnr4QTz5YX+M+OUYEoxyVLZgScg88jOGP/sxWjzeFbN2JeK8qcMYnLMZ01t3QP26nTDkx2P4LfMwTu8YgMEdnsBzf38YTz75lMHxGB688x5cd3tjtDSM7v4MWu0AmCZ3Kvo0fQI33fhn/H8178D1nwxDqzXnEZ2dioSd87Hoy8Z45omncffTT+OJxx7EXQ+/iL99MRyjD5QZ4eLYpdj//TVo9c6NePCZdnj7yXfQ5KlH8fAdN+KPNV/GI59OxM97Y5HJWz5cINieE2JyBQKBQHAlQUyumNxKoFbyhkI7mSqu5K4eia53v4sP/tYL43+Nw7H0dKRbIunQAmwecgu+7vYh2i7PwAHDWCJjDQ5O+gQv3fEW7n1hHKbsPIzo6C1YNaQxmt16Iz5o1AvTjpQgsZKsIuQn78KaLk+iR4Mn0GvJMWzj86r4PHBsLL7p2Am3NV+MybsykBs9DavHPoLnOn+JN6YfwL7oOMTFHcP2ae3Rs/aNaPNeV0w9XIr4QI7y2xUuLO+M7l3q49r2U9BueTzis9NRkLoG8774Ak3ubouOw1ZjQ1wcoo+vxrre9fBu/SdRd8gaTDxjnCJ5BY6MugEv3VIT194zBn0XHEVs9AHs/rkzvrz7Bjx73xvoMf8YjmSVczpEsD0nxOQKBAKB4EqCmFwxuZVAreQNhXYylZncM4jf8D16PvQgHv7j7Xig3mt46a238JYl3njhMdS7+1/wcIMW+GxlDk7wUu+ZMdjQty6ee60N3hsSU/ZhNQPFe8bgxw/+N5565028MT8Oe9PLD1hQknsOp6c9im5t/4q/j1qNyfwDtVl7kL7idbTr3RRPTzqFVXGGuNRdOLVzCmYdOIFN1pt8o2dizbv/hS5NWuD7XSU4q71jwNh5aBgmjW+HG0f8igFHuS8OONAf33z4Ce5+aRoM3/w7jvbDkG718e+fz0Pn7fkourASh8fXwRP1HsFfmq3HQiPVxIXlWPJxLbR59mF8O+cQdlTcuuEMwfacEJMrEAgEgisJYnLF5FYCtZI3FNrJVGZyo5Gw8Xv0euRu3PN//oIb6t6NO+69F/da4p7bb0Ld6/4/3P5Oa3y+6iJO5ZWicEcPLOz0ZzTq1hk91mchXZnQ+LU4ZhjY57/6ALeM2Y+1sZonXX4K0lZ9jK7fPow/dJ2DrgdzUPDbUuzreg+6fN0UXTZm4Ehm+djSXKQf2YO9q6KwLCrK/PNZM79vhy6v/Qmt27fHuP2liNOZ3ELjBDv6YcSw5rhhwAr02GvsyzmJwtWfo1mjl/H/Xu6EtsN/xFLznD9j6dRv0PKTRviXv4/F57+k40LiCuyffCve+uYtPPbDKWy9UHbaouSt2NLrPvRt8RR6LjyMHRUfwnOGYHtOiMkVCAQCwZUEMbliciuBWskbCu1kKjO5JxG7ZgS63fMa3rz/c/Scswkrdu3CLktsixqFWR1ronmHxobJNQxodgky13bEtKb/hfrtu6LXJsPkKq+VuhsJSz7Gm92/ws2j92HNOY0JK7mI4pOTMWHYl7iu5RS037QHv22dgzlPvo9eDb/HvBh1m0Mm8k8vwbxW7+Kd2+rgVuMFVLt2HdxU88+47o//iOda9sCEA0CS7nldmAFs74fhQ5vhhv7L8d0eY7J5Z1C45gt89vYt+Ic//hV/rnUz6prnrG1sb8C11zyIf7t2AL6dnYKThsndPeU2fNWrMZotS8Gh8ivSBRd+NU1uv5ZPmyZ3p5hcgUAgEEQ4xOSKya0EaiVvKLSTSX3wLKbig2fj8Eus+Q/9l+LiDsTMvB09+9XH5yszcCCzFLmbOmP253/CR926os+WbGQqr5W8DecWvIZXOjdFrVF7sfqc7o+JGfty9mDtxJGo/2gPDBwzDcvXzEPX5wZh4FercSQPyIdhpE/8jK0j30TrN1/B82+0RbM2bdG23Zdo+dELePeB/4tGX3TG+AOliNf5vEom19h38SQKV7ZD81bP4H+/1Bivf9oWXxgvyLbtPsdn7XujR+8pGPf9dmw/moP42KXYNb4OuvZpgm9WZOAo70M2kJ+4GRu/uxe9m4nJFQgEAoGAEJMrJrcSqJW8odBOpooPnpl/QuwDfPT3IfjxcA7Kv+uhAsWxa3BwfF107vUBPluRbZhcY+fRIVjVuybebvEV2sxKRvm/5hunm43V316Dpz9+HY9OP4lfk3Rz4r5EnF4wGRPueQl93m2Iz4cNxNtf/IzRc0+j7LNchYj55XOM/fBP+KDLMAw8aFpjA3lI2DgI339wHVp/+RXG7y/Fea3JTQe29sEw3q4wZB36HjL2FZxG8a+d0fKbdqjTcSXmHbb8HYnCaFw4fxAHzyQhLssw8dFLsGd0bXTs9TE+X5aGw+VXcsXkCgQCgUBwKcTkismtBGolbyi0k+l3kzsCne98Hw2eGoQZB7MRz90WFMSswv4xdfBtj/poszzT/LNdSPoJO4Y+iyfu+giPfrIBWzL55EpFzIIO6H7vv+LlN1qi+685OJNvnkKDImQd/Blr2lyP+rX/HX9+8Fk80n01Zh1WCfmInt8Go97/f3iv2wgMOVW+G2dwcNqneO7OP+DhD8ruybW9XWGbYXKHNsP1A1eixx6jPqUpQNwsjGjWGi8/PgCjlyWi/AItcKgLpn7/Ht4dvBhTD5YiKzYK+8fVQYeejdFuaYDJ7X4PejV9Cj3E5AoEAoFAICbXCDG5AaBW8oZCO5nKTO5RnF06CF/8lV/r2wsT92bxbxBcgvzoKOwe9l/4rOMraLzwAnbz7+Tmn8T5dePQ6ZVn8Og9L+DNdl+jS5cW+PTNv+GZxxvg28HLsM8wgHYVIXVp2macmvkYnvzT/0KN//EInhu+C5sq/iRXEdIOTMaq7x7HC6+9hAcbdcE3336HLpPHo037D/DCw/8TT37UFF3WXcQZHUnxReDwWEzs9hL++e/1cc/XczD2wAUkZZ/GwRnDMeLl+nj97ZZo1KULOndoh8+evxNPPPE8nhu6Gj8dK0H22QXY8/2f0Pbbt9Hkl1TsTys7bV78OqxpXxOdP7gPneYdxLaKS9jOEGzPCTG5AoFAILiSICb3MiZXifS66Kt8t0aPUCK9chM0tywQC+UWqkCh0F6WcQbxm6Zh8Att8UX9CVh43JiLuf93FJ3fjKMz62HgiHbotjYFR9SfBctNwNH5n6Jb/Rtwu/HkvrVubdz77NtoNG47Vsdefj4md2E0Lu4Ygy/eaoy7nuqFAavOIdY8Wo78U0haOwjN33kCNW+8CTfddDtuajEGb42cgHnfP4GRYzui17pUnKy4HGtFEZCyEeuGN8b999+Fmi93xFuL4nDS8L6lBUdwan43vPv8g6h1E89bBzfW/BRvNVuOlYmFyDekF8etwdEZT6H/iK/RY30mTpab78KUXdjx/csY0eF9DFt2DPtT3dc9mJ4TK1asEJMrEAgEgisGXk0u4YeHC2ZNzcvLMz0cL1i6BTmVD7uqTW5ycnLYmdwSI6ekJAs5SWdwYvM+HNgRjfPZJZU/eJafguxzm3Dy9H4cuVCALIuvyordgL1rp2L+3LlY8PN8LFu/DbsTi3+/DcAG5C4tyUVJeiwO7jiAdZt/w5nUgoBvSCtCaWYM9mxeiflzfsSsH+fgx00nsO50LFLObUBM9F4cjM9Dpvbv5BooTkfqqR1Yu3QhFqzajhXROcgw3+gZPKmHsXHlAsyeORM/zpqLWfP2YcvenN+/7S3vArJiNuLE6YM4mlyEi+VvEEsL05F26lcc3r0Ru0/GISnL9n4MWwTTc0JMrkAgEAiuJCiT265du/I9zuGHhwtmTaXJpYcL2uTSDOoiKysLmZmZZvBysW6MXVCUyueWP+vG2QX5vHKrSElJQVxcHFJTU7XH7YJaFXd1a/+9btnIzi1A2VPDeKLl5yAvcHxeIfINk2f66MJc5OeW7c/KzkFSqjE+PQElKcexZd9xRO1PQkLmRZQU5yM38DyWMLmzDA25heVXlGkg8wK485BbGGjeDaXGkym/yLCqBcYTKy/byLGpm3HuS9KL8kzt2RfzcJETqgRjfF55rs2cc4xaFRj7LhrblKR4pKcmX8pZRQTTc76J4gvpl19+MX+ZiMkVCAQCwZWAJUuWmOtSixYtzPWKa1PgGqaL371I8D6I+boxVUVaWhrOnz9vejndcbuwamfU4OVgXSQlJSExMdEMPtaNsQtrLkM3hg79cvvtuO3yrMExNLjR0dFmkZzkqAhm3oyq8qlFp0ftK8tPQtKFZKSmpyE9PRWpxrGUwLzkFKSkZhhPhHSkpfB42TmSLqQg5nwyss5sxbkN49C61yi80n8NVh09Z5jXjLLzqHMEhOJOJLfxBMvMSDPPfel44+cUQ1dGRsWTKJM6U1MM/jQjDF0XkoytNacsTP08bmg28zLSkWEYUmrieamdvBkV5zaOpxv7DA3mOQLmXMFh7E9Nz0SCof3c2WjEn48r47JwXy6sPWPoxtgFX4j8xTFnzhzccsstaN68ufnuVSAQCASCUIJf1EST26RJE3O9ogkMXMPswrom2nmZwH3W/Xa5PF7V+szj8fHxOHv2rOnldGPsInA9r0HXqwurE6Yr142xC44PfBcQGMpx6/YHXg0NPG79WRcco67kqncBunG6CHwHohtzubicdga16PSofXZ1t8uzBo9nGTkJiYb5ij2C5BNbsHD1FkxddwLHE9ORV5hXdh5NLkN67r7n6kruwoUL5UquQCAQCK4YWK/kcr3i2hS4htmFdT3X+QGn63ngmsrjVa3PPM5/hVcXKXVj7ILcSjtD7snVgLyh0m6tuxcwPy0tFalpGRW3HDgFc/3QHoq6Earn3LoFeb1qJ+SeXIFAIBBcSZB7cq/yD57x0nVEmlzjHVBqWnr5Pb3OwVw/tIeiboTquZhcgUAgEEQ65K8rXMbk8iAXay8i1QSZz61b06KKG0yBWBgvhodayRsK7da6Md8tN8F8XuZn8LEbcLwf2rmtzropqJ67fVFQK3m9aifk7+QKBAKB4EqC/J1c+TKISqBW8oZCu7VuzHfLTTBfTK6YXIFAIBBENsTkismtBGolbyi0W+vGfLfcBPPF5IrJFQgEAkFkQ0yumNxKoFbyhkK7tW7Md8tNMF9MrphcgUAgEEQ2xOSKya0EaiVvKLRb68Z8t9wE88XkiskVCAQCQWRDTK6Y3EqgVvKGQru1bsx3y00wX0yumFyBQCAQRDbE5IrJrQRqJW8otFvrxny33ATzxeSKyRUIBAJBZENMrpjcSqBW8oZCu7VuzHfLTTBfTK6YXIFAIBBENsTkismtBGolbyi0W+vGfLfcBPPF5IrJFQgEAkFkQ0yuYXK5Qxc8WFBQcMkknYaaIPO55c+6cXahiuuFWwULk5SUZBoe3XG7oFbyhkK7tW7Md8vNYH5KSooZfKwbYxcc74d2bquzbipUz7nVHbcLaiWvF+0Ky5YtE5MrEAgEgisGyuS2adOmYr0KXMN04dd6rvJ1Y6oKXqDkep6VlaU9bhdKu/ITNfiDLvLz800nza9WU0KdBk+s8rnlz7pxdkE+8nrhZnEZmZmZSExMNAuk9unGBwa1kjcU2q11Y75bbjaX+fy+ZwYfq4Y7CY73Qzu31Vm3wJ5zW109V4iKikKdOnXE5AoEAoHgioAyua1btzbXQ0K3jgWGX+u5yteNsQu1dvNiFdfzjIwM1+s5OZWfqMEduuBBOmnrJJ2GmiDzueXPunF2oYrrhVtNlIVRhsc6+aqCWskbCu3WujHfLTcNLfOVyeVj7tON1QXH+6Gd2+qsW2DPua2uniuIyRUIBALBlQSryeV6SASuYbrwaz1X+boxdqHWbl6g5Hqenp7uej0np/ITNZRDDgw1UBkO3Ri7oBiVzy1/1o2zC/KR1ws3TR1DFYjvBtQ+3fjAoFbyhkK7tW7Md8vNOTJfmVw+djpvBsf7oZ3b6qyb6q/qObdqn258YFAreb1oV1i6dKmYXIFAIBBcMbCaXK6HhG4dCwy/1nOVrxtjF2rt5q2m6kKl2/WcnMpP1NDd08BQA5Xh0I2xC4pR+dzyZ904uyAfeb1wq6C5VR9C0h23C2olbyi0W+vGfLfcBPPVB8/4mNCN1QXH+6Gd2+qsmwrV81DckysfPBMIBALBlQTrB8/UehW4hunCr/Vc5evGVBW8Csz1nBetdMftQmlXfkL+ukIAqFUVqLq1W+vGfLfcBPPlryvIX1cQCAQCQWTDanLdwK/1XOV7AW81UBet3EBpV35CTG4AqJW8odBurRvz3XITzBeTKyZXIBAIBJENMbliciuBWskbCu3WujHfLTfBfDG5YnIFAoFAENkQkysmtxKolbyh0G6tG/PdchPMF5MrJlcgEAgEkQ0xuWJyK4FayRsK7da6Md8tN8F8MblicgUCgUAQ2RCTKya3EqiVvKHQbq0b891yE8wXkysmVyAQCASRDTG5YnIrgVrJGwrt1rox3y03wXwxuWJyBQKBQBDZEJMrJrcSqJW8odBurRvz3XITzBeTKyZXIBAIBJENMbliciuBWskbCu3WujHfLTfBfDG5YnIFAoFAENkQkysmtxKolbyh0G6tG/PdchPMF5MrJlcgEAgEkQ0xuWJyK4FayRsK7da6Md8tN8F8MbmhM7ktWrTwlC8QCAQCgZ9YunQp6tSpE9kml2J0QXH5+fmXfHex01DFYb6apG6cXZCPvF64VfD7jpOSkswC6Y7bBbWSNxTarXVjvltuNpf5KSkpZvAx9+nG6oLj/dDObXXWTYXqObe643ZBreT1ol0hKirK/GXSrl278j0CgUAgEIQOGzduxK233opWrVpVrFeBa5gu/FrPVb5uTFXBi1VczzMzM7XH7UJpV36iBsXoguLopPPy8iqMh9NQxWG+mqRunF2Qj7xeuDlBBguTmJhoGh61Tzc+MKiVvKHQbq0b891ys8HMT05ONoOPuU83Vhcc74d2bquzboE957a6eq5Ak/vXv/4V9erVw6pVq7Bu3bpqjfXr15uhO3Y1h5p3JM9dd+xqDum59DySIph59+jRA3/4wx/QsmVLcz0kdOtYYPi1nqt83Ri7UGs3L1ByPc/IyHC9npNT+QkxuQFBreQNhXZr3ZjvlltMbuhMLn+h8N6nf/mXfzHfOd92223VGrfffrsZumNXe0TyvKXnkRXSc/2xqzmC6fm1116Lf/iHf8C3335regFCt44Fhl/rucrXjbELtXb7ZnI5cV2ogcpw6MbYBcWofG75s26cXZCPvF64VcjtCnK7gtOgVvJ60U6wxmfOnMGQIUPMe58++eQTfPzxx46jcePGaNSokbnVHa8qmFe/fn0z3J6D41XojlcVzAtWu9dcRsOGDfH++++jQYMG2uOXi1Bq94P7gw8+8NRzBnOC4Zae649fLoLlZoR7z73mS8+99ZwfhP7iiy+wZs0ac60idOtYYPi1nqt83ZiqwrfbFcrnXQlqoDIcbsBFX+Vzy5/dgHzk9cKtIB88kw+eOQW1kjdY7epF5Sb4S4DvdqmZz1X+rBt3uWB+QkKCGXysG2MXHE9ehrqK7jSs2rl1q518XrlVpKenIy4uDmlpadrjdkGt5A2FdmvdmO+Wm8F8XuXw0nO/tFd33VREas/JqXrOc+jG2IVf2oOtG/N1Y6oK1XOua7rjdkGt5A33nsfHx5vn0I2xC+aqObv1An6t5yrfC6jdlw+ele+vBDVBDgpnw8MnhhtQK3lDod1aN+a75SaYLya3+k1uqEHdjEgEf4lHIvi8k55HFqTnkQe1NlYn/FrPVb4XiMmtAmJyxeQ6BbWSV3oefj3n6ztSe84rmV567pf26q6bQqT2nJyq5zyHG/ilPdi6Md8LVM+9GB7yhnvPefshz+EGfmkPpm4q3wvE5FYBMblicp2CWskrPQ+/novJFZPrFNRK3nDtOTnF5IrJdQq/tAdTN5XvBWJyq4CYXDG5TkGt5JWeh1/PxeSKyXUKaiVvuPacnGJyxeQ6hV/ag6mbyvcCMblVQEyumFynoFbySs/Dr+dicsXkOgW1kjdce05OMblicp3CL+3B1E3le4GY3CogJldMrlNQK3ml5+HXczG5YnKdglrJG649J6eYXDG5TuGX9mDqpvK9QExuFRCTKybXKaiVvNLz8Ou5mFwxuU5BreQN156TU0yumFyn8Et7MHVT+V4gJrcKiMkVk+sU1Epe6Xn49VxMrphcp6BW8oZrz8kpJldMrlP4pT2Yuql8LxCTWwXE5IrJdQpqJa/0PPx6LiZXTK5TUCt5w7Xn5BSTKybXKfzSHkzdVL4XiMmtAmJyxeQ6BbWSV3oefj0Xkysm1ymolbzh2nNyiskVk+sUfmkPpm4q3wt8M7ncoQse5FfDWSfpNNQEmc8tf9aNswtVXC/cKlgY9YtQd9wuqJW8odBurRvz3XITzFeGh48J3VhdcLwf2rmtzrqpUD3nVnfcLqiVvNLz8Ou5emMTqT23Ln66sbrwS3t1101FpPacnKrnPAehG6sLv7QHWzfm68ZUFarnWVlZ2uN2Qa3klZ6HpucqXzemqlBvbLz0nJxq7jUoRhcUx+8+5lfpqSI5DVUc9V3P/Fk3zi7IR14v3Jwgg4Xhdz7zF6HapxsfGNRK3lBot9aN+W65OUfmJycnm8HHTufN4Hg/tHNbnXVT/VU951bt040PDGolr/Q8/HrO13ck9pycXPi89Nwv7dJz/ThdWOvGfLfcnCM5w73nzNeNsQvVX9XzzMzMin268YFBreQN957T7PEcTufN8Et7MHVT+boxdqH6yzc2XntOTjX3GhSjC4qjk+YlY1Ukp6GKw3w1Sd04uyAfeb1wc4KMjIyMigKpfbrxgUGt5A2FdmvdmO+Wm08C5ivDw8fcpxurC473Qzu31Vm3wJ5zKz3Xjw8MjvdDO7fVWTfVX76+I7Hn5OTCl5SUZJ7LTc/90i4914/ThbVuzHfLfbX0nPm6MXYR2PP09PSI7DmD5wi3nqt83Ri7UP1VF6289Jycau41VHJgKJFqgroxdkEila+KqxtnF0qkF27l5tWLgoWyOvyqglpVgapbu7VuzHfLrV4UyvDwMffpxuqC4/3Qzm111i2w59xKz/XjA4Pj/dDObXXWTfVX/SKMtJ6Tk/22XuHRjdWFX9ql5/pxurDWjfluua+WnjNfN8YuAnvONzaR2nOeI9x6rvJ1Y+xC9VddvffSc3KqudfQ3dPA4GAKZQJPrhtjF6oRqrD8WTfOLshHXi/cKlggvuONpHtyGcznP28w+Fg3xi443g/t3FZn3VSonnOrO24X1Epe6Xn49Zyv70jtufWeXN0Yu/BLe3XXTUWk9pyc1vszdWPswi/twdaN+boxVYXqOc2u7rhdUCt5w73nNLo8h26MXfilPZi6qXzdmKqCV4G99pycau7y1xUCQK2qQNWt3Vo35rvlJpjPFwWDj92A4/3Qzm111k1B9ZxbN6BW8krPw6/nfH1Has/lryvIX1dwCr+0B1s35nuB6jnf2LgBtZI33Huu3sy6gV/ag6mbyvcCXgX22nNyqrmLyQ0AtZI3FNqtdWO+W26C+ZFqeMTkisl1Cmolbzj3XEyumFyn8Et7sHVjvheIyRWT6xRKu5q7mNwAUCt5Q6HdWjfmu+UmmB+phkdMrphcp6BW8oZzz8Xkisl1Cr+0B1s35nuBmFwxuU6htKu5i8kNALWSNxTarXVjvltugvmRanjE5IrJdQpqJW8491xMrphcp/BLe7B1Y74XiMkVk+sUSruau5jcAFAreUOh3Vo35rvlJpgfqYZHTK6YXKegVvKGc8/F5IrJdQq/tAdbN+Z7gZhcMblOobSruYvJDQC1kjcU2q11Y75bboL5kWp4xOSKyXUKaiVvOPdcTK6YXKfwS3uwdWO+F4jJFZPrFEq7mruY3ABQK3lDod1aN+a75SaYH6mGR0yumFynoFbyhnPPxeSKyXUKv7QHWzfme4GYXDG5TqG0q7mLyQ0AtZI3FNqtdWO+W26C+ZFqeMTkisl1Cmolbzj3XEyumFyn8Et7sHVjvheIyRWT6xRKu5q7mNwAUCt5Q6HdWjfmu+UmmB+phkdMrphcp6BW8oZzz8Xkisl1Cr+0B1s35nuBmFwxuU6htKu5i8kNALWSNxTarXVjvltugvmRanjE5IrJdQpqJW8491xMrphcp/BLe7B1Y74XiMkVk+sUSruau5jcAFAreUOh3Vo35rvlJpgfqYYn1CbXSy5hzfcC5vMXIcNt7TievMFqd8tLkC8YboK/CPmVl25f5wR5Q6Vd1Y35XsD89PR0Tz33S3so6kZEas/JqXru9hx+aQ+2bl7yCdVzt7/bCfKGe8+9rOfB1F3lBrsmqnwv+G83uWqg1yelyndbHAXyeuUm+AuQLwoWyi3IGyrtftRdGR63+jneD+1ueRWC4SZUz70sfuT1qj0YzYLgwb4JIgvS88hDJPfc65oaDPxYz4PJz8vL8/zGhpzKT9SgCF3Qgefn56OgoKDCjTsNumfmqXz1TsZpqHwv3CqysrKQlJRkvgvQHbcLq3Zyu9XOHK/aycUcr3VjMJ9PDIZb/mC1M+9K6Dm3uuN2EYx29UKmsea7zvj4eMTGxjqOc+fO4ezZs4iOjja3/Fk37nLBvEOHDpnBx7oxdsHxKmJiYrRj7CJY7eTzyq3i5MmT2L9/P06cOKE9bheh1B4sN4N5hw8f9tTzUGoPhltFpPacnOHec4ZuTFWhen78+HHtcbvwU3t1141BTvb84MGD5jl0Y+yCueTkmsQ1kWuVMq5VhV/rufJRujFVBc0t1/PMzEztcbtQ3CpqqKt+gcF7QJRZ4mPdGLvgpXWVy+DPunF2Yc13y60iISHBbDK3uuN2EcjtVnuwdbPmu+VmMF89yd3yB6td5XrRbs13y63Cj5671Z6RkWG+iHfv3o0vv/wSr7/+Op599lnH8cwzz5hRr149M/hYN+5ywZwnnnjCDLf5wXBzvMpXj3Xj7ELlep034+mnn8bf/vY3c6s7bheB3NWpXfF5zWcw58knn5Sea47bRSB3dWpXfF7zGcxRPec5dGPsIhhujlf56rFunF2oXC/cKqTn3nr+4osv4q233sKPP/5orlW8OqpbxwLjSljPExMTfVnPa3CHLniQV6YYFKkbYxfKLDGXW90YJUa3n/l23HZ51uAYvnvhOx9VIN04XVi57bRfLi6nnUEtOj1qn13d7fKswePM57s3Bh9XlWMNO24nwfEqn1vdGDst3H+5ujmZA8eonnPrZt5WbjvtdsFfHHznuGjRIlx77bX4t3/7Nzz++OPmL2Q3oUyq7piTCCbfD27dfifhB7daBHTHLxd+cIdrvh/cuv1Owg/uSO+5l3P4wa3b7yT84Jaeuz/HLbfcgho1aqB169bmvb00ubp1TBfW9VznB5yu54FrKo9XtT7zuDK5XM91Y+yC3Eo7w/Z2BV7mZUG8XG5Wl4uZz63bS93kI28wl7p5iZtF8vJP1+QNhXZr3ZjvlpvBfDaYwce6MXbB8X5o57Y666ZC9dzLP2+Q16t2/hNQVFQUatWqZb5rPnbsGE6dOlWtcfr0aTN0x67mUPOO5Lnrjl3NIT2XnkdSBDPvsWPH4pprrkHLli3NtUrdXldV+LWeq3zdmKqCt5p6Xc/JqfzEVf/BMxbZLdQTIRTa/ai7eqfkVj/H+6HdLa9CMNxEqD54Rixfvhx169ZFu3btyvcIBAKBQBA6bNiwAbfeeivatGlTvsc5/FjPg8mnQeV6HvQHz8r3VQLF0Y3TFbs1Hqo46oqc20mSj7xeuBVYGF6qdmt4qJW8odBurRvz3XITzFeX7fnYDTjeD+3cVmfdFFTP3b4oqJW8XrUTyuQ2b97cPJdAIBAIBKHEkiVLULt2bbRt27Z8jzP4tZ6rfC/4b/8TYmqCHBTOhkdMrnNwvB/aua3OuilcCSa3WbNm5nkEAoFAIAglFi9eLCa3fH8lqAl6MR1+FcgLt4KYXDG5TkGt5PWqnRCTKxAIBIIrCWJyxeRWArWSNxTarXVjvltugvlicsXkCgQCgSCyISZXTG4lUCt5Q6HdWjfmu+UmmC8mV0yuQCAQCCIbYnLF5FYCtZI3FNqtdWO+W26C+WJyxeQKBAKBILIhJldMbiVQK3lDod1aN+a75SaYLyZXTK5AIBAIIhticsXkVgK1kjcU2q11Y75bboL5YnLF5AoEAoEgsiEmV0xuJVAreUOh3Vo35rvlJpgvJldMrkAgEAgiG2JyxeRWArWSNxTarXVjvltugvlicsXkCgQCgSCyISbXMLkUowuK49eqqe8t1o2xC1Uc5qtJ6sbZBfnI64VbRVZWFpKSkswC6Y7bBbWq7z2ubu3WujHfLTeby/yUlBQz+Jj7dGN1wfF+aOe2OuumQvWcW91xu6BW8nrRrrB06VLUqVNHTK5AIBAIrggok8uv9VXrVeAapgu/1nOVrxtTVfBiFdfzzMxM7XG7UNqVn6hBMbqgODrpvLy8CuPhNFRxmK8mqRtnF+QjrxduTpDBwiQmJpqGR+3TjQ8MaiVvKLRb68Z8t9xsMPP5fc8MPuY+3VhdcLwf2rmtzroF9pzb6uq5QlRUlJhcgUAgEFwxUCa3devW5npI6NaxwPBrPVf5ujF2odZuXqDkep6RkeF6PSen8hNicgOCWskbCu3WujHfLbeYXDG5AoFAIBAQYnINk0sTpAs1UBkO3Ri7oBiVzy1/1o2zC/KR1ws3/3mewQLxUjcveat9uvGBQa3kDYV2a92Y75abc2R+pN2uoPqres6t2qcbHxjUSl4v2hWWLVsm9+QKBAKB4IqB9XYFroeEbh0LDL/Wc5WvG2MXau3m56nU7Ydu13NyKj8hHzwLALWSNxTarXVjvltugvnywTP54JlAIBAIIhvywTP56wqVQK3kDYV2a92Y75abYL6YXDG5AoFAIIhsiMkVk1sJ1EreUGi31o35brkJ5ovJFZMrEAgEgsiGmFwxuZVAreQNhXZr3ZjvlptgvphcMbkCgUAgiGyIyRWTWwnUSt5QaLfWjfluuQnmi8kVkysQCASCyIaYXDG5lUCt5A2FdmvdmO+Wm2C+mFwxuQKBQCCIbIjJFZNbCdRK3lBot9aN+W65CeaLyRWTKxAIBILIhphcMbmVQK3kDYV2a92Y75abYL6YXDG5AoFAIIhsiMkVk1sJ1EreUGi31o35brkJ5ovJFZMrEAgEgsiGmFwxuZVAreQNhXZr3ZjvlptgvleTW2KMLzKiuJS63XFbtVd33RTE5AoEAoFAUAYxuWJyK4FayRsK7da6Md8tN8F8ryYXhrn1Vu0rq+dicgUCgUAQ6RCTa5hc7tAFD/J7f62TdBpqgsznlj/rxtmFKq4XbhUsjDI8uuN2Qa3kvbx2o5DlBXUOI6/8EYouIC92M/Zu2YNte9KQUVC2u9Qwmda6u60bg/kpKSlmFBVVYRZL84HsOCQlJ+FkpvGQ+3IvIuNENJLOJyPL+NF8emp4AqNae05Nl6BsP3ueVP6isI6vQO4ZJJ/aiK0bj2D/0YswZm+i1FHP9aGwbNkyMbkCgUAguGJgNblqvQpcw3Th13qu8nVjqgpeoKSHy8rK0h63C6Vd+YkaFKMLisvLy0N+fr45UDfGLlRxmK8mqRtnF+QjrxduFZmZmUhMTDQLpDtuF9RK3qq1l71LqAhzX/mbA2q35BcVld0GoCxnXsx8bBnxN7z/yNt4/oMoLDieaRrMkhJjrKXuzNVz64PNJWdycrIZfKwaXnEu4+fiYiNMISnA6QVYu3o+eq6OwYb4TCTs2Io1vadi2eLtOG4MMa+DB/Dowpx3ufbL100f7ntuvOiMuZSUGPMu36d6zq11LF/afPJnHRqK+Z3vx3P3tcQH32zH1kyDk8eo3VHPK4dCVFQU6tSpIyZXIBAIBFcElMlt3bp1xXoVuIbpwq/1XOXrxlQVvFjF9TwjI0N73C6UduUnalCMLiiOTpqXjJXxcBqqOMxXk9SNswvykdcLNyfIYGGU4VH7dOMDg1rJq9dunIPGqvAiSi7sxq8LR+OrL9qZT6DW7b7E5193Raf2HdHpizZo17olWrVqha8698S09cdxLJumzLBUqbuxfn5PvP/+I3i47l145NWv8OK07ZhzMtswa8Y7pqKCirq7rRsNbV5evmFwU5CWmY68i+dxfutUzB/YGu3btcVnX32Drzp0xlefD8eoWbtx4EIm8uO3YuvCPmjXriE+bPwpGjVshWYtJmHGihOINexhvmHNS4xzFwVwBUa19JzmvMiYZ+ZJRB9Yj7GLtmHWjlik5pe908ws7zl7X9Zz48VWxHegWSjJOoKNMzvhy+fuxgu3PoL7Gw/AB8tPYtN5oyd8cRR4066wZMkSMbkCgUAguGJgNblcE4nANUwXfq3nKl83xi6UX+MFSq7n6enpFft04wNDaVd+Qq7kBgS1ktdWO58lxVlA7HLMH9wU9911m/kkuqXmn3Hdf/wP/NP//T/4xz/dgL/eeIu5/74nX0D7mTuwPZN5uUDiGiyYPwuv91qAERMH4scFffHatHUYuiPVvCJZWlKM/MISFFX+N/nfYYy5RFN50Ojl5/NKbhqyDNNWWpqI2BXdMbrx3ah3T23c/Of/wJ/+7T/xp2vfxHudorAqCeDdqxePzsXSbx/G+w/eg/teb4bWs49g+wWTyAjj3JfTQpTfZlH2xDbqdtnbJEpRqtHOWucXGE9SI/WydCXGCzVxJTbN7oE7Px2BV8cewLlyulLjTUJ2VirycrLLOQxTzGMlaUDyFkTNW47+veZh1Q89MXDOMLw6Yxd+OpaFImric9Your1ywywHaGYoyJVcgUAgEFxJkCu5+Vf3PblJSUn+35PLZ0mpYbRy4nHu6HYsXxplPpEWjvkMvRv+L/y13r34j2Yj0G/qQvPq3vLV67A3OgUppu8xLFRBMuITk7HzbC4upBsmPPsMdsUm42RqgXH+sn9+LzSei1X6SqsmS/DqZUpKOjLMD18Z73ySjyF61ypsWj4To1rUR6u/P4+W3/2AaXviEM+LmDxZYTKyT27ArrWrsHrbPhxMKTDNb5kK47zm48uDtw6U9dzomb1TLINGt9lzwxxXlWrWMGk5Nv7QBTc2GIpnRu5HbLlAvkHIzkpHQR5vsuB5+V8DhXmGyY1B9G9JOHguBxezY5EQfwzbD8bgeHIOMjjEEG1MoQpU1q0g9+QKBAKB4EqCMrlt2rSpWK8C1zBd+OXhVL5uTFXBq8D0cEHfk2vOWgMlUk3QDUik8pVJdQMl0gu3QrX/dYXkJTgw/kY81f4j3DfrPA4bvkqLxNU4vmoYJg8fhCGDh2PUzOXYFGuYs/LDKMlF0slNOLluKk5sX4mVUYvRv09f9OzVHwMmzsXYvfE4fpkpUW1OaSbi967D7mGDMHXgMAz5YSFG7TmI+aO/x8rO3yJqfwyOlg0Hcvfj1K8zMWb0GAwfNQqjRk00YjU27E4CLz4ThfHbcO7ADOw4vAYrly7GvN69MaxnX/QbNRsj153FobTyGvEJZmxKMs4idtZkLOjXEz0HDULP5avxw9LtODBjI37bG4fzhrMu+4eT38E652bE4Oy2uTi1aS72bV2PqZMmoWfPPujVbwiGRe1AVHwxzLJmrMH2BUNwd9sf8Er/aVi7qiemju6Jbj3HoNfALdh5XCkvR84FpK0ci8Uje+C7oYPQe9BwjBizELPW/oYj6cYL0RhSVJhu1GwJjm+dg6O/7cHW5Usws2cv9O/ZD98vWI8N5Ve97SB/XUEgEAgEVxKUyZU/IaaBmqAXo+lXgbxwK1S7yT0zF1uH18Tjn9XH3ZOPY4f5z/0WlBrvaDJO4eBPDdDtw7/i9to34eabb0Dth57DW32XY+GRbOQZz4USZOHEL9/gx2Y3oM9nH+Htj9vhpptvQa2a1+DPdzyJf/lyHgbuSkeBIUunrNTgycjeiu3jP8eAunVQ78ZbcPMzr6B29+/xUYv2GGXE7M2nDZNr1DczBvFL+6LPJ4+j9m21cYvxYqhd6xbUvPYVfNBjEZZllCDHKH/ujq5Y1v8GtGrfEG+93RIf3HQTHql1Ha6t9TD+9Nb36L8qBummdgNF0YjbMQKjnn4Az11TC7XuvgO1vmqBx15vjS9rtcTYgRuwJR9lZjUAGTFrsbbHwxj56X34/Mv2eLjeq6hV63rU/Mt/4d9e/BpPTj9lGGqDKHcLdi0YiHubDMTjzT/GoC618OYztXDDX+7GX679El9P3o1DecZzsMSoUN4FJBgGfeY3D+PtB2oZtbzZCGNs3edwW6PJmLA1AbnGsKL8M9g79i2Ma3E7uvbqgXaN2uHtWjVxe61rcPOLrdBs6mnsTigqu/KtgZhcgUAgEFxJEJMrJrcSqJW8brUXnZyFTUNvwGNt38NdEw7j1/MBRid1D35bMxCtvmiMes07oeeYCZgypRd6fPocXrnvebTuNAvrE4FM5CPm56YY+NL/xL1Pv4FHvpmF/uPHY/KY1vjkpXqocXtbvDpoKw4a09JZqYKsU9j386cY92U9dPlyKAaOnYzJP03E5Bm98e4L9fHII+3Ra/FpJBadxbm1k/GlYeAeffJLtBs5GROnTMHEXk3w9WvX4cEWn6HhujScyDLmtvcLzGj6D7i7Zj3c9/xYDB03AbMnd8M3rz2Mu699GB91mov1KUbNjVaVHh+GhaMfwSNv1ke9zyZh4tTRmDytFd574hHc/E9volGXNdhkmFzj/5WQdXYpVnxVE+89cg3q1O+HjwbNw+TJ/TD6i1dwyx2v4f++MRUTd6egMP8g9sxohwceuQ83vvg+ev8wCTN/nozhn7+JN+68HXc274evduQh4WIBcHAwZg19DI+2aIxXOo3HVGOOU6b0Q+e3nsHrNz6LbweswE6jlhfzfsOhMU/ji7v+Ebfe8Ale/WQGxk8eixkT26HlSw3x2pMjMHr+aZw1dOqekWJyBQKBQHAlQUyumNxKoFbyutV+eZNbjIv7xmBZr6fwaKsh+GDR7wa1dOcwTHrh3/HxR60x9EAJzhUW4cKSNhj49p9w0xtf48P5GeX/TH4YW4d1wPP/+Q7ebDYPy9ONOZr7rbiIjFPLMK3+U/j8zY8w5mAeYs39htmL/QVDG39smNxv0G3hCcQXxODcxnn4tt0v6DwuAanmOAOF25Dw02Oo174x6k6OxbYkY/5HOmNKqz/gmps/whOdT+K0OTATZ35ohe/u+Xc0adkPM+KA5MIsJE75BIPeuxN/G/QTBpwzBwIJP2Jm89fx0J8boHGPddhqONzyPw18CbJjVmBt5zvw8t/vRZ2OqzGbjpLXfKNno+tT7+Hh2p3Qb1kMsguOYvfYpnjwT7eg1rM9Mc3gMZ8lh8djztd1cZ1RywdnJeF4mkF06HssnNkKLZbtxwLLXQyZP32O6Q/8CR3bj8NcY/KpOTE4NfVltL3/P3FD3e/QZlpK+e0a57B/0Bf49qHn8dmARViUbCjSPCXF5AoEAoHgSoKYXDG5lUCt5HWrvbLJtd51moe45R0x6ZO/4rV2PfHVslTEZGQbGjOQuHMSor79L3z6VWO0XZONwxk5SFzUCqM+uh5vdhqF/ruVIY7HyR9HYsD1jdC1+VzT5AbceWogBhe2T0f3xz/Dpy+Mx7LYvLK/c0sUncX2ET0xrMkXGL/qMA7wSZCbiQuxiYg9l4zUrGxkGTXLPr4M+6a+j3odv8Vd0+OwI8l4gu7pgKmd/4IbW32H9xamV9w/nLCuD2Z9/Bd06TUIs+JLkZB9BFvatEX3uk3QZ8YBbC8fh1LDlA7uge5/bYJeXVdik+Fbc8sPWZF5ZjlWf3s7WjZ8Dg1/OIVNKdxr8GdvwvzXW6HDbV0wfnk0UvP3Ysf4Tri/Vjs82igKm5Vj/m0JNox+B3d/1QMP/3AGx9ON506hoTctFjHxF3A+hTW/aEQiDsxsjXHvXovOgyZh/gUgJSsaR8c8j27v3op3+kRhasVNy0D6+s74uVMtNBs8CoOMfmRqPKyYXIFAIBBcSRCTKya3EqiVvG61X97k5iJ2ZReMevN/4dG7b8PtT7+Fl197Ha+99iZef+4B/P3OGrj25ffxyI8x2H4hHRd+aYVJn96I9qNmY3b07yb39NzxmHhjEwxs9RNWGiaXfxXgUpxAwo6paP/+ILRquRz7LuRY7ttNw/FpgzHv888xfd0h7DP3ZaFoz/dY1Ks+PnrzNUPPa4aeJ/DsQ7XxX2+3x8Oz43GAHyrb8Q3m9q6Jl4aNReedRm3MXEPR5sFY8FlN9B4yFPPOFSA+dg3mvtcCTa/7BqPmnMKp8nFArGEgv8foG5piaNfl2GBjctN/W4ZVHW9D93Zvofe6VBw0n9v5KL24DSvf+RwD7uyOaYbJTb64C9tm9sF9L4/AS733lF9ZNnB6BTZP/gQPdRqAx2aeMb/FjSiK2YG13T5D+/dYc87zVTz7yM1GL/6CjwfOwdI0g9swuQdHPIMhze9H10X7sN6or0LO3u5YM/wvaDpsCHpsMcZqLkOLyRUIBALBlQQxuWJyK4FayetWe1Um99zKrhj31v/CM3fdhDsefAQPPvigGQ8//jSefPF1PN9hLD5bF4cTmcmIm98SU5rehJ4TfsLi88rknsOJWaMxotYn6FNucitfyTVM7k7D5DYajLafrcThFOvHu1JwbOpgzPniK0xffwRHclKRdGw+fuz8HN56pA7uuY96HsJD992B++64Dn948ys8UmFyv8YvfW5E81FTMMJwx+p+2rj1/TG3ZU30GDQMP8UYJjdmFWa/1wyf/PVrjJhzEifLx1H7kdHDMKrc5G68jMldaZjcvl++i+Fbs3DMlJ+D4oxNWPxWO/QwTO4Uw+SmZBomd75hcluNwesT9uO8eoqcjML6cR/hgY798cScWJzMyEFBwipsH9cEzR5+EPfdVlbzBx96BPfdei3urX0NGvWfh2UWkzu02f3oMX8v1lfcv2G8PdjcEQu/MwzxgKHo9avx5kLjYcXkCgQCgeBKgphcMbmVQK3kdav98iY3B9FLvsHUj/+Czzr3xKAVB7Hj4CEcOnQQB7k9cASHTsfjdHo+cotTcXxOc/NKLk3uIlcm9wyStk1F5ye/xaevzsSauJzfzWRJAvaP74fJ7Tpg6rpjOBq9CVt/aIOXPm6LJzvOwsIdBw09B3Bg1WQs7v8WHv+iCx748Tx2JRtPUGVyR07B8L2BJvcG9BgwBHPjS5CQvhdrm7ZDpxvbYNiPR3CgfBxwGvu/74+B13+KAV1XODC572D4r05M7mi8Pn4/4iqZ3AF4esF5HE+ORfIvzTGq6Z14v+Mo9F5k1PqgMc8D2xH1fUP0fOt6dBg2HYtSgNTMaBwZ9Rx6NrwTH49dj5/M+4GJPJz7pR3Gf/JXfNB9BAbsMuoe+PfPDIjJFQgEAsGVBDG5YnIrgVrJ61b75T94Voi0rYOwuMvDeKvzJHy7s3w3UXASiROHI2rSIqyOLkJKURZOz6PJvQnfjZ+HX+LcmNwMpB/9BeNffQ6N6jVFzx0Zv/9TfsoaTGrdAi8/+y36LDmFM8fnY8Xg11CzYX88MT3j9792EPMTNjR5HPe+3hr3z0nAnvIruQsNk/vpiMkYtifQ5F5vmNyBmGWY8aS8FJwd/gn6vfgQXhmxHBPSygem/oKf2r2PZ6/5CM2/W4tfDfNawWeBMrl9vngHw7Zk4qjphG1M7s+GyW0+Cq+N3YdYjcmt98t5HE06ibjRT6HLG9fiw2m7sKyilbHYOeodvPfoX9Gwx3Qs460fF8/ixLgX0PblmqjTcir67S4finjsHdgKX9z2CD7pOg9zjHnmap6SYnIFAoFAcCVBTK6Y3EqgVvK61V50fAbWD/gP3NvsNdw8+iA2xQUYncSNOLygI95r2RJPfzMR09dsxK+/rsLCwS3Rpu7dePutXhi6KxfR+RcRPbcxxjf8MzqNmoWfY5XJjcGxGd9jyJ8+QPcms81/Yq98T65hHtMPY/uEd9C18eNo2N4wpQs2YdOuFdi0dBAaPvMGbr3zS3SefwrRCVux88dWeOnNZni0+RTMXL/Z0LMTa4d2wMB7b8FfHmiM28afwdbkYpRsa4efuv8XGg4Zh4G7fjeosWt64sdP/ojOvXpi6m/ABeNA0Z7umDngTtz9cTu8NmwDNm1agT2rv0OXt5/Fnf/1IRr3XI9fjXG6v66QfnoJln1ZE91bvYKBGzNwWJnc9PVY8FJzdL7pW4yPOoPkjB3YMqc76jYehmdH7Kn4Wl+cWIS1o97D7V/2wkPz4nA0OQ4pS1pgRJPb8NxnA/DNnF/x6w4jtvyALk0fxG23/AF//2YC5iYY3NkxOD3pVXz1/H+hzhsdUX/ERqzetBqb1gzBoAZN0fjRPhj24yHzSzR0L1kxuQKBQCC4kiAmV0xuJVAred1qLzoxExsGXYMHW76JumMPYUugyS3KQm7CLqyZ8CZavH4D7rzzdtxxx6245c778Ic3uuGzmQdxKq0YOSWZOD7rE4xvdB26jpmDBRaTe3zmCAy79iP0bGb31xUM/SUXkZK4GCsHfYRvbrwVT9S+A3e89Cru6Nwbb9Rvha71v8KkNSdxsiADSQcmY9wLf0O9/7gJN99+t6GnHRq92hVje7TAE22647bee7DqbA5yd32F+T2vw8fDJmDwbovJXdsHs5v+Gd369sbUE4bJ5T/j5x3A6Y3d0P3x+/DQ9XfiwScfw7uDO6JVwy/R4pom6NOz7O/kmnciBCD9dBSWf30zerZ9HYM3ZeJIxZXcDfjl1VboVqczJi49g5TMndg6ryfuaDIcL47aazG5i7FuTH3c/U1vPDw7DifTc1GY+AtWD3oL99x9K/58y5248/GXcGeHcWjQ6SP0an4Nmg/8HkOPAAlp0Tg+8Q2MfP8vaNW8GZ54syluu+M23HHbdXj6tTboPiMa++JztVegCTG5AoFAILiSICbXMLkUowuKy8/Pv+S7i52GKg7z1SR14+yCfOT1ws0JMlgYfu8xza7apxsfGNRKXrfai5J24/T6Xhj+8zQM2BKHU6kFl+aa5TfOd2I81o5tjJaNGqBBg4b46MveaLr0JDYYptVoj/HsyEbsjtnY8mMvLP91Lw6mGb0wz5GKxN2bsbH3bKz6aR+OXeS3kf3OzzDnaJwiB6mI3TIfa9s2RfdGDdHgyy5o8OMaTJ2/HMeiFuNwdBISDLairOM4M64fJjZtjEYNGuHDD4ej/8BV2HV0E2Zs2oxBS07jcJJhcs8twYHVfTBn4zZsMBxlQTlf2sk12PtTT6xYsxrbE4qRUWTUmdPIO4/4SSMwveNX+LZ7e3y/dDS+a9Edb/1rO3TpsQG7DDNsmkVqLj8Xa5WddAhHFvXDygVTseG3HCTk81g+inNO49CU+VgxaDm2H01Bdk4MzuxbhSFzN2HSllikGZPm3Avi9uHAmokYuGAZRuxJR3Ie1VzA+V0/o9+3bfDpJ5+icbvv0GLmbszesgy/be6DlVvXYeU5Y1TKCewd+TImfloHQ74fjq96D0XDhkZ/PvoYPSYvxJa0cmNu0cxQWLZsmZhcgUAgEFwxUCa3TZs25hpJqLXrcsH12A8Pp/J1Y+xC+TVeoKSHy8rKqtinGx8YSrvykDUoRhcURyedl5dXYTadhioO89UkdePsgnzk9cLNCTIyMzORmJhoFkjt040PDGolr2vthQUoLCjLu5iTi9xK2qnBaEJRHgrzsnHRMOE04tnG2IuFRlOMY8VFRmMMzpyL2WaU8av8QuP8RtPyjDce+QZXxXl/DzY43ziWkpqKlOQLyMvKRJ7xRMm+aESe8YQz8oup05hToaGHOcX5xjwNLmrJyMhGZpZhavON2hvceca5Cjj/8rkxv6BCD2tl/GyM5Ty5Pz//IjIvnMX5k/twdO9u7NmzG7t3rsXepYPRpcGXuP3eUeg4/SjOGVa4iE9a8pefy+y5UbvcnGyj/rnm+X6fo6HX0FNgzMHUw58Nbs41v8D4WfU8IwMJCfFIS08v08mem303epp7ERdTYnEh7hROxaciLpN1KKtjsfHaz049hM39HsfARrfhu7nbsPJ8gfkiY14O680XT4nBU6GpLBSioqJQp04dMbkCgUAguCKgTG7r1q3NNZKwrl92wTXMDw+n8nVj7EL5NXoSergMY11X+3TjA0NpVx6yhml4NMGDXOStk3QaaoKmSTC2/Fk3zi5Ucb1wq2LoTK5ufGBQK3ndai8qMa/DlqHEyDHMXyXtNLrlQyqhVD0x8pFveKeKa4TFNJnMN95Jle8yUbH/96DJpeYLF1KQahhWW5QaZtsYb8jRgJf61UyMbYnxxKmYmIHS33kvTS8xTGgCTi/vj0ltHsc7Lz+Lei+8gBeeewbPPvACnn25Nz6bfBTrzxnmvZTvCo1aUEP5ucwnpTHxCtto1KPENLN84loF8M1A+RVjE8a7u/L+ZhgG/UJqplF+XifmFVej59bcC5twbtNoTFq5A/NPXPrht5zUA9jY+2H0bXAruvy0D5sDv07O0MM3IdZ6MxTE5AoEAoHgSoLO5AauYbrwy8OpfN0Yu1B+TWdydeMDQ2lXHrKGSg4MNVAZNd0Yu6CbVvnc8mfdOLsgH3m9cKtL1jS3vNTNQql9uvGBQa2m4XKtnVf61GX6y2kv03JpGLqNY7/Xrew2keLiAG7L+Ev2lwcv5zMvJSXFDPLrLvFfkmfZz/HM55Viavmdp2xu5jhrbsX+MiNZWJCMmPWjMKvjS/j4zZfx8suM1/Hyq9/g22HrsTuj/ANnhsk1TmQ5j6Xn5TW/lMeISvzlP7N25cdUz7lV+ziWbw7MWwyiV+PYmlEYt2In5h8rRI7Fi+Zln8OJqP5YNrkbFu06g6NZRo5RO/MNAXMreC8NhaVLl4rJFQgEAsEVA+vtClzHCN06Fhi/e5HgPJzK142xC7V281ZTrue8YKn26cYHhtJu+gkj5INnAaBW8oZCu7VuzHfLTTA/NTXVDD52A44PTnuhYRbTkJWSgOSkRPMJmpR0AUkXMpBx0Xiil4/Vwc+ec6uFeatIFrJzCwyDy3t8ynabPS80XtDZ6cjJzkBegaHDZenlg2cCgUAguJIgHzyTv65QCdRK3lBot9aN+W65CeaHzuSWXnpLhQv42XNbk2sDs+eGdvfV/h1icgUCgUBwJUFMrpjcSqBW8oZCu7VuzHfLTTA/dCZX9dx9z/zsuSeTa/Aq7V7qLiZXIBAIBFcSxOSKya0EaiVvKLRb68Z8t9wE80NvckPb8+BMrnvthJhcgUAgEFxJEJMrJrcSqJW8odBurRvz3XITzBeTKyZXIBAIBJENMbliciuBWskbCu3WujHfLTfBfDG5YnIFAoFAENkQkysmtxKolbyh0G6tG/PdchPMF5MrJlcgEAgEkQ0xuWJyK4FayRsK7da6Md8tN8F8MblicgUCgUAQ2RCTKya3EqiVvKHQbq0b891yE8wXkysmVyAQCASRDTG5YnIrgVrJGwrt1rox3y03wXwxuWJyBQKBQBDZEJMrJrcSqJW8odBurRvz3XITzBeTKyZXIBAIBJENMbmXMblKpNdFX+V7MSxKpFduguaWBWKh3EIVKBTarXX3AuYrk+tWP8f7od0tL+Fnz92+sSHI61U7sWLFCjG5AoFAILhi4NXkEn6s58GsqXl5eZ4uWhHkVH7iqja5ycnJEWly09LSzHCrn+P90O6Wl/Cz52JyBQKBQBDpUCa3Xbt25Xucw4/1PJg1lSaX63nQJpeGQBe8RJyVlWUGSXRj7ILjVT63ujE0n3b7mW/HbZdnDY7hlczz58+bWyc5KqzcdtovF5fTzqAWnR61z67udnnW4HHmJyQkmMHHVeVYw47bSXC8yudWN8ZOC/dfrm5O5sAxoeg5X4h8Qf3yyy/mLxMxuQKBQCC4ErBkyRJzXWrRooW5XtF0Bq5hdmFdz3V+wOl6Hrim8nhV6zOP80Id1/OUlBTtGLsgt9LOqMHLwbpISkpCYmKiGXysG2MX1lyGbgwd+uX223Hb5VmDY+Li4hAdHW0WyUmOimDmzagqn1p0etQ+u3y7PGvwOHNiYmLM4OOqcqxhx+0krLkM3Rg7LWq/HbeTOXCM6jm3Xudtp90u+EKkqZ0zZw5uueUWNG/e3PxFIhAIBAJBKBEVFWWa3CZNmpjrFU1g4BpmF9Y1UecHglnPq1qfeTw+Ph5nz54113PdGLsIXM9r0PXqgg44IyMDmZmZ5mPdGLugi2aeylfvBJyGyvfCrYJFYnH4LkB33C6s2sntVjtzvGonF3O81o3BfD45GG75g9XOvCuh59zqjttFMNr5S4P/JLJw4UK5kisQCASCKwbqSi4vvnC94toUuIbpwq/1XPko3Ziqgv8iG8x6rkLuydWAvKHSbq27FzBf7smVe3IFAoFAENmQD57JB8+0IG+otFvr7gXMF5MrJlcgEAgEkQ0xuZcxuTzIxdqLSDVB5nPr1rSo4gZTIBaGBXJreKiVvKHQbq0b891yE8znZX4GH7sBx/uhndvqrJuC6rnbFwW1kterdkL+Tq5AIBAIriTI38mVL4OoBGolbyi0W+vGfLfcBPPF5IrJFQgEAkFkQ0yumNxKoFbyhkK7tW7Md8tNMF9MrphcgUAgEEQ2xOSKya0EaiVvKLRb68Z8t9wE88XkiskVCAQCQWRDTK6Y3EqgVvKGQru1bsx3y00wX0yumFyBQCAQRDbE5IrJrQRqJW8otFvrxny33ATzxeSKyRUIBAJBZENMrpjcSqBW8oZCu7VuzHfLTTBfTK6YXIFAIBBENsTkismtBGolbyi0W+vGfLfcBPPF5IrJFQgEAkFkQ0yumNxKoFbyhkK7tW7Md8tNMF9MrphcgUAgEEQ2xOQaJpc7dMGDBQUFl0zSaagJMp9b/qwbZxequF64VbAwSUlJpuHRHbcLaiVvKLRb68Z8t9wM5qekpJjBx7oxdsHxfmjntjrrpkL1nFvdcbugVvJ60a6wdOlS1KlTx/UvE4FAIBAI/juwbt063HrrrWjdunXFehW4hunCr/Vc5evGVBW8QMn1PCsrS3vcLpR25Sdq8Add5Ofnm06aX62mhDoNnljlc8ufdePsgnzk9cLN4jIyMzORmJhoFkjt040PDGolbyi0W+vGfLfcbC7z+dW2DD5WDXcSHO+Hdm6rs26BPee2unquEBUVhZtvvhmNGjVCenq6+eZKonqCvwx1+yWu3pCeR15Ecs+9zn3u3LmoVasWWrVqZa6HhG4dCwy/1nOVrxtjF2rt5sUqrucZGRmu13NyKj9Rgzt0wYMsrHWSTkNNkPnc8mfdOLtQxfXCrSbKwijDY518VUGt5A2FdmvdmO+Wm4aW+crk8jH36cbqguP90M5tddYtsOfcVlfPFXi7wp///Gf86U9/wgcffIAGDRpUazRs2NAM3bGrOdS8I3nuumNXc0jPpeeRFMHM+5FHHkGNGjXQpk0b0wsQunUsMPxaz1W+boxdqLWbFyi5nvOikdv1nJzKT9RQDjkw1EBlOHRj7IJiVD63/Fk3zi7IR14v3GwkQxWI7wbUPt34wKBW8oZCu7VuzHfLzTkyX5lcPnY6bwbH+6Gd2+qsm+qv6jm3ap9ufGBQK3m9aFfYt28f6tevj3vvvRd33nmnq7jjjjsqQne8qmAe/0mK4fYcfnD7ka875iRuv/12815obnXHLxeh1O4Ht9eeM4Ll9iNfd8xJRGrPGeHec6/5que33Xab9vjlIlhuP3K95jOC6fldd92F+++/H5MmTTL/KZ/QrWOB4dd6rvJ1Y+xCrd28Eq0uVLpdz8mp/ESNwPsZVKiBynDoxtgFxah8bvmzbpxdkI+8XrhV0NyqDyHpjtsFtZI3FNqtdWO+W26C+eqDZ3xM6MbqguP90M5tddZNhep5dd+Ty/F8IR45cgQ7d+7Eli1bHMfmzZuxadMmbNiwARs3bjR/1o27XDCf9wQz+Fg3xi44nrwMt7lW7dy61R4Mt4o1a9ZgyZIlWL16tfa4XVAreUOh3Vo35rvlZjB/2bJl0nPNcbugVvJeDT3nOXRj7MIv7dxWZ91UqJ6vWrVKe9wuqJW84d5z3g7Hc+jG2IXSu2vXLiQkJJhrFaFbxwLDr/Vc5evGVBW8Csz1nBetdMftQmlXfkL+ukIAqFUVqLq1W+vGfLfcBPPlrytU719X8KpX4A+k/pEH6XnkQXpeffBrPVf5XsBbDdRFKzdQ2pWfEJMbAGolbyi0W+vGfLfcBPPF5Fa/yfWSZwXPEUw+70NmeAF5g9XuFcFy85+j+FznP4u5BXlDqT3YnvNfD6Tn7kDeq6HnXs7hh3avCJZb9ZzGxy3IG+49532pXs7hVTtz/FjPVb4XiMmtAmJyxeQ6BbWSV3oefj1X/6QViT1PS0vz1HO/tFd33RQitefkVD3nOdzAL+3B1o35XqB67sXwkDfce67+JKgb+KU9mLqpfC8Qk1sFxOSKyXUKaiWv9Dz8ei4mV0yuU1ArecO15+QUkysm1yn80h5M3VS+F4jJrQJicsXkOgW1kld6Hn49F5MrJtcpqJW84dpzcorJFZPrFH5pD6ZuKt8LxORWATG5YnKdglrJKz0Pv56LyRWT6xTUSt5w7Tk5xeSKyXUKv7QHUzeV7wVicquAmFwxuU5BreSVnodfz8Xkisl1Cmolb7j2nJxicsXkOoVf2oOpm8r3AjG5VUBMrphcp6BW8krPw6/nYnLF5DoFtZI3XHtOTjG5YnKdwi/twdRN5XuBmNwqICZXTK5TUCt5pefh13MxuWJynYJayRuuPSenmFwxuU7hl/Zg6qbyvUBMbhUQkysm1ymolbzS8/DruZhcMblOQa3kDdeek1NMrphcp/BLezB1U/leICa3CojJFZPrFNRKXul5+PVcTK6YXKegVvKGa8/JKSZXTK5T+KU9mLqpfC/wzeRSjC4ojt8yYv3uYqehisN8NUndOLsgH3m9cKvg9x0nJSWZBdIdtwtqJW8otFvrxny33Gwu8/mCYPAx9+nG6oLj/dDObXXWTYXqObe643ZBreSVnodfz/n6juSeJycnm4/d9Nwv7dVdNxWR2nNyqp7zHOHYc+brxlQVquf89i/dcbugVvJKz0PTc5WvG1NV8E2s156TU829BsXoguLopPnViapITkMVh/lqkrpxdkE+8nrh5gQZLExiYqL5i1Dt040PDGolbyi0W+vGfLfcbDDz+YJg8DH36cbqguP90M5tddYtsOfcSs/14wOD4/3Qzm111k31l6/vSOw5OdlvXungudz03C/t0nP9OF1Y68Z8t9xXS8+ZrxtjF4E951caR2rPeY5w67nK142xC9VfvrHx2nNyqrmLyQ0IaiVvKLRb68Z8t9x8ATA/Ug2PmFwxuZHSc3KqxY/nctNzv7RLz/XjdGGtG/Pdcl8tPWe+boxdBPZcTK6Y3KpCaVdzl9sVAoJayRsK7da6Md8tN/8pg/mR+k/Xqufc6o7bBbWSV3oefj2P1H+6Zr76Z0w+dtNzv7RXd91URGrPyal6znOEY8+ZrxtTVaie842N7rhdUCt5peeh6bnK142pKny7XaH8Xt1KUANVcdyAjVD53PJnNyAfeb1wK7BAfPcjHzxzDo73Qzu31Vk3BdXzSPtACvMjtefywTP54JlTUCt5w7Xn5JQPnskHz5zCL+3B1E3lewGvAnvtOTnV3MXkBoBayRsK7da6Md8tN8H8SDU8YnLF5DoFtZI3nHsuJldMrlP4pT3YujHfC8Tkisl1CqVdzV1MbgColbyh0G6tG/PdchPMj1TDIyZXTK5TUCt5w7nnYnLF5DqFX9qDrRvzvUBMrphcp1Da1dzF5AaAWskbCu3WujHfLTfB/Eg1PGJyxeQ6BbWSN5x7LiZXTK5T+KU92Lox3wvE5IrJdQqlXc1dTG4AqJW8odBurRvz3XITzI9UwyMmV0yuU1ArecO552JyxeQ6hV/ag60b871ATK6YXKdQ2tXcxeQGgFrJGwrt1rox3y03wfxINTxicsXkOgW1kjecey4mV0yuU/ilPdi6Md8LxOSKyXUKpV3NXUxuAKiVvKHQbq0b891yE8yPVMMjJldMrlNQK3nDuedicsXkOoVf2oOtG/O9QEyumFynUNrV3MXkBoBayRsK7da6Md8tN8H8SDU8YnLF5DoFtZI3nHsuJldMrlP4pT3YujHfC8Tkisl1CqVdzV1MbgColbyh0G6tG/PdchPMj1TDIyZXTK5TUCt5w7nnYnLF5DqFX9qDrRvzvUBMrphcp1Da1dzF5AaAWskbCu3WujHfLTfB/Eg1PGJyxeQ6BbWSN5x7LiZXTK5T+KU92Lox3wvE5IrJdQqlXc1dTG4AqJW8odBurRvz3XITzI9UwyMmV0yuU1ArecO552JyxeQ6hV/ag60b871ATK6YXKdQ2tXca3CHLniQ3/trnaTTUBO0fmeybpxdqOJ64VbQmVzd+MCgVvKGQru1bsx3y00wXxkePiZ0Y3XB8X5o57Y666agM7m68YFBreQNRjtzQgn+QmBEIvhLkH2INOTl5UnPIwyR3vNQ/54NBdhztxfrdLCuWVUF6+zHeq7ydWPsQkFncnXjA0NpV36iBsXoguJY3Pz8/Arj4TRUcZivJqkbZxfkI68Xbk6QkZWVhcTExIoXBkM3PjColbyh0G6tG/PdcnOOzE9OTjaDj53Om8Hxfmjntjrrpvqres6t2qcbHxjUSt5gtDMnlOAvQT9+EYYbVN/Zh0gDFwHpeWQh0nse6t+zoQB77vZfLXSwrllVBevsx3qu8nVj7EKt3Zwz1/PMzMyKfbrxgaG0Kz9Rg2J0QXF8MbHAyng4DVUc5qtJ6sbZBfnI64VbTZSFUYZH7dONDwxqVb9Iqlu7tW7Md8vNJwHzlcnlY+7TjdUFx/uhndvqrFtgz7mtrp6Tgy+q2NhYzJ49G0OHDkXv3r3Rq1cvx9GzZ09899136NGjh/b45aJPnz5mfqdOnczgY+7TjdUFx5OXwce6MZcLpd1rrldu1pjRrVs3dOzYEV27dq3YpxuvC/KGQjuDOX70/NtvvzUfS8/1OYFBXum59NxpBKOdwRy/es5zuO15v379MGLECOzcudP1mujHeq7ydWPsQunkBUqu5xkZGZ60Kz9Rgwu0LpRINUHdGLsgkcpXhkU3zi6USC/cqhg6k6sbHxjUqgpU3dqtdWO+W24aWuYrk8vH3KcbqwuO90M7t9VZt8CeW02ubnxgUCt5vWhX2Lx5Mx544AH88Y9/RM2aNVGrVi3HwfEqdMerCmu+23N4zVPhV77umJMIhj+YXIYfuV7zGcGcIxjuYHgZweQyguEPJpfhR67XfIYf/LpjVYXKDcf8YHIZfuR6zWcEc45rrrkG//qv/2q+KeA/5RO6dSww/FrPVb5ujF2otVtncnXjA0NpV36iRuD9DCo4mEKZwJPrxtiFMlbKrPBn3Ti7IB95vXCrYIGSkpLMS96643ahrnyGQru1bsx3y81gPm9SVzeq68bYBcf7oZ3b6qybCtVzbnXH7YJayetFu8Ly5ctx7bXX4t5778WYMWMwYcKEaonx48eb24kTJ5ph3Xc1B+donXvgvqs5rPOWnkvPr+aw9ld67r7nzZo1wz/90z+hdevW5SuVu/tag13PVb5uTFXBq8Bcz3mhUnfcLpR25SfkrysEgFpVgapbu7VuzHfLTTBfffCMj92A4/3Qzm111k1B9dzt/UvUSl6v2olly5ahTp06aNOmTfkegUAgEAhCh7Vr16Ju3bqu1yW/1nOV7wW8Chz4wTMnUNqVnxCTGwBqJW8otFvrxny33ATzxeRWv8nllVz+MmnZsmX5HoFAIBAIQocVK1Z4uvji13qu8r1ATG4VEJMrJtcpqJW8XrUTyuTyn4d4HoFAIBAIQonFixejdu3aaNu2bfkeZ/BrPVf5XiAmtwqIyRWT6xTUSl6v2gkxuQKBQCC4kiAmV0xuJVAreUOh3Vo35rvlJpgvJldMrkAgEAgiG2JyxeRWArWSNxTarXVjvltugvlicsXkCgQCgSCyISZXTG4lUCt5Q6HdWjfmu+UmmC8mV0yuQCAQCCIbYnLF5FYCtZI3FNqtdWO+W26C+WJyxeQKBAKBILIhJldMbiVQK3lDod1aN+a75SaYLyZXTK5AIBAIIhticsXkVgK1kjcU2q11Y75bboL5YnLF5AoEAoEgsiEmV0xuJVAreUOh3Vo35rvlJpgvJldMrkAgEAgiG2JyL2Ny1UCvhkPluy2OAnm9chM0t8nJyWah3IK8odLuR93T0tLMcKuf4/3Q7pZXIRhuQvXc7RsbgrzBaOc3y4jJFQgEAsGVAmVy27VrV77HOfxYz4PJz8vLM9dztxetCHIqP1FDPQgMLtT5+fkoKCiouLrmNDgxla+cvG6cXZCPvF64VWRlZSEpKcl8F6A7bhfUSt5QaLfWjfluuRnMT0lJMYOPdWPsguP90M5tddZNheo5t7rjdkGt5PWqnS+opUuXiskVCAQCwRUDZXL5tb5qrQpcv3Th13qu8nVjqgqaW67nmZmZ2uN2obQrP1FDXfULDP5zN100zRIf68bYBcczT+XrxqSnp192vzJqgdx2edbgmISEBMTExCAxMdFRjgqrdrfzZqh8nXYGtej0qH3M0dXdLs8aPM6c2NhYM/i4qhxrcPzltF8uVO6V0HNuvcz7ctrtgi9AvqB/+ukn3HLLLWjevLn5s0AgEAgEocSSJUtMk9u0aVNzveLV0cA1zC6sa6LODzhZz3U+iserWp95nAb33Llz5nquG2MXaj1XUcP6gzUojvdDMNREnYY1l6EbEygkcL8dt12eNTgmPj4eZ8+eNbdOclQEM29GVfnUotOj9tnl2+VZg8eZwycGg4+ryrGGHbeTsOYydGPstKj9dtxO5sAxfvTcTrtd8MXId43z5s0TkysQCASCKwZRUVGmyf3000/N9Yq3bwauYXZhXRN1fiCY9byq9ZnH1UUrrue6MXYRuJ7X4IKsC15mZkHo/NU/ITsNdZmb+epytW6cXZCPvF64VfAKG6/i8p+udcftglrJGwrt1rox3y03g/lsMoOPdWPsguP90M5tddZNheq5urrqNKiVvF60859G+E9A/GVSp04duV1BIBAIBFcE1O0KrVu3Ntcr/nN+4BqmC7/Wc5WvG1NV8FZTrucZGRna43ahtCs/cdV/8IyTdAt1X0cotPtRd3XZ3q1+jvdDu1tehWC4CfngmUAgEAgEZQjnD57RqHI9D/qDZ+X7KoHilHt3azxUcZjvZZLkU67cLbeC+nNSbg0Ptap3A9Wt3Vo35rvlJpiv/jmAj92A4/3Qzm111k1B9dzti4JayetVOyF/QkwgEAgEVxLkT4jJ38mtBGolbyi0W+vGfLfcBPPF5IrJFQgEAkFkQ0yumNxKoFbyhkK7tW7Md8tNMF9MrphcgUAgEEQ2xOSKya0EaiVvKLRb68Z8t9wE88XkiskVCAQCQWRDTK6Y3EqgVvKGQru1bsx3y00wP3xNbrGnXAUxuQKBQCAQlEFMrpjcSqBW8oZCu7VuzHfLTTA/LE2uMdz9bC+FmFyBQCAQCMogJldMbiVQK3lDod1aN+a75SaYH5YmtzgfeVnJiD8fi3PnYnH+fArSswtQUH7cCcTkCgQCgUBQBjG5YnIrgVrJGwrt1rox3y03wfxwNLmluScRvW4kvmjxPp5/4XW89lZ/jIo6iZPGFJwqEZMrEAgEAkEZxOSKya0EaiVvKLRb68Z8t9wE88PR5CLvDGLWfI+v334YD919D+56thf6LDqBE2JyBQKBQCBwDTG5YnIrgVrJGwrt1rox3yV1OUqRnq4zucXIz8tB9sUc5JeU6u9/JWFJEYqD1F7spWel+bgYvQc7x3fF5FHDMGZrHPalF6DARQ3E5AoEAoFAUAYxuYbJpRhdUBy/Vo3fQcyBujF2oYqjvvOYP+vG2QX5yOuFW0VWVhaSkpLMAumO2wW1kjcU2ivqlpeHfObrnlfl44pLDF3cFpdUMqy5WWlITU5GQaFhlM09xpPk/EbMHPI1mn/RCRN/PYMY7jYPGufgpgKGyS0sKJt7hbayv3pArkthPPnNY+XaDc38GuWiS05o5KgxFeeznNfQYL5+SpJw/tfp6Pfx82jaoTdmJQEpZr5xslJjXKXcyqF6zq3uuF1Qu9eeKyxduhR16tQRkysQCASCKwLK5LZp06ZivQpcw3Rhruf0IkH6IJWvG1NV8GIV1/PMzEztcbtQ2pUPq0ExuqA4OmmaFmXYnIYqDvPVJHXj7IJ85PXCzQkyWJjExETT8Kh9uvGBQa3kDYX2irrlGW8u8i6iKDse54/sxPr167Fm/0nsSTV0FRjG2TKX4hKD0xiXsuNX7Fu3GWs2nMKO43GIT09FgeE2aYHzk48gdm5HtHv5Bvzl1gfxXNOfMHvTBaQY/tGoDIqzLyDj/FHsOvkbdsSkIy07t9K8y2qYj+zEE4g7uhWnY2IRn12M/ELu/117fn4eLqafR9KJbThz8jBi0vKRVVA2xnq+ivMaBre4tACZx5ZhTZ+3UO/ha3H9w43x2cBD2PZbFnINfSU0uZpcFYE957a6eq4QFRUlJlcgEAgEVwyUyW3durW5HhK6dSww1HoerA9S+boxdqHWbl6g5HqekZHhej0np/JhYnIDglrJGwrtZXUrQG6hYU3z01Aaswzze72POx54ALfU74dPl8chNtswVubl+LIro6XIRsbJBVhU/zm8fcuTeOD+Ueg++yBO5GejqJTv3Ipw4dAGrO3WCqO/+wifd+qO9x8Ygd4dN2F/PgwTaSBuI04s6YwGwyei/oLfcDLF2Gvk/m5My/65orQ0G9Gr+2F+l79jxIx5iIopRWYh9xv1NcYUGTXmlduUk8uwvv/zGDOgPabvy8EZk4SXa42xvHpbMWfjvMb/ikvTcHzBJMz78kMMGNQOTT4y5vrodMz4+SRijeOFHGVeLTbeqbGXFflGcJ9xar6DyxKTKxAIBAKBCTG5hskNvNSrQg1URk03xi4oRuVzy5914+yCfOT1wl1mxgzrZxSIl7p5yVvt040PDGolbyi0l9XNeINBb1qQCpycjtFdHkONa/6MGv/YFC+33Im9ScYTxjhsTMewfgYKYxCzdTAa/b0u/keNm3BdjS7oMHwHDpbyGihRhOyEMzixfDNiTx1FQlI8tv6wFevnHcLJDMPk8iQJK/HbT41wX9dBuGtmLM5llf2zRqlhdMu0mUwGsnFiXguMf/9f8c2AUZhxGsgoI7kEGYd/xKIWf0THlm9hwPZinC3f/zuMPlWcl5GF+H37cNTQGH8hBif3nsD6cZuwbUsczmcZU1T0FQjUVYaCnCxcSOIbm+xq67nCsmXL5J5cgUAgEFwxsN6uwPWQ0K1jgVHmRYL3cCpfN8Yu1NrNz1Op2w/drufkVD5MPngWAGolbyi0l9XNeIPBH2hyT83CuElt8H9f+QA3/Nt76PTGGKw6lYEUi6SSpOU4sKwJnv3mHfzfvzTF638ciJEjt+GAYW7L2M8jM3Y7Nq3ehvVrdmLnrh3YtWcvDh+/gKQUgzPPON/uqZjT+xXc+XFr3NZrKeYcSEJCjk57Ln775UtMb/JXdB8xCXPOAWXVzUG+YU4P7juFo2dT8dvB+Vj6TW0M7lgfIzecw+a9R3Bg+w7s3L0fxxIyAoxxgeFij+K3A1uwbNE2bFjPcduwZ/8RnDyTjbTM8ppmnUNa0inEpWUjPb881ZhhQWY80s+fxIW0DMSn5yLxQjJyc+SDZwKBQCCIbMgHz+SvK1QCtZI3FNrL6qZMbrJhcn/E6AmDcU2DXnj5xfswpus7mLzTMJNZ5nATGbt6Y/OEuugwqhWerzcCH147HMOH/4pD5lFDe/xibBzXEK/Uewz33vswHnzoMTz6VCt8MWwbdiXkAanbsHJ4Yzx0yx/wv/90Df75gbdxx6C1+PGUcawSDJO76GvMaFoT342cjHnxpkU1/rMLO6b1w5svdkTTwWuxeNtiLOp8D8Z3eQkDJk9D5w8b4a2778EDD/4Nbw5YgDmnlDk2UJiAgj1DMKr9S7j77odx7z0P4uFHn8Nzb/bFsEWn8Zvx+igpyUXmlk6ImtwQfRbvwPKKS8O5iF03GEv7v4epi9ZiWXQJYi+kozhfTK5AIBAIIhticsXkVgK1kjcU2svqpkzuBcPk/oARI8fghkaj0bb9oxg++Tl8sGgvfjzL81JXBk6N+Q6L6/8Ns6f1ROe2U9Cg5kgMMAzs6ZIE5JzdhJ97dMIHT7+KJ954C+/Wfx/vv/Z3PHvrjXikYQd8s/EcTscdxLaZX+L9J2vhP267C//vxbZ4dfJ2LDtXcbnUAprcrzCj2Y34bswsrEgsRGHWISxbOR7NW3fGqw0GoeeMHdi0ZwmiutyDrxs8gNe/HoQ2Tb/F1+8/j7cevQXXPtUaz/fbhc1xhhEtjMXZDbMxqHETPP/Ui3iC+ox498k78did96Bej+kYHVOMzNwMZP7yHEa3/wveHrkEEw6Xy0EWjs38CGPr/wEdR8zAlGPA2QvGO4ACMbkCgUAgiGyIyRWTWwnUSt5QaC+r26Umd/iIobixyXh0G9gGQ8a2xu3dl6LHukzD4homtPQglnaYjL6PDMSSeRMxofdINL5pJPoN3YmYokNI3TUFX73TH/Xe+QU/HUtHnjGf4sRfcWLSQ3jn8+dRe8xeLDhrPBnil2Pf9MZ4rGMvPDTxAHadz0FhwP2uZaDJ/QY/tLgRfcdNRtTOaBxcMBnNO43AM/3XY8XJVOTmFyHr9GKs7lgXLzx5L275fCEm7k5HTvYRxC7rjXfvewO3PDoII39NQG7ePuycOgyvPvk9Puq6BXuLilFgaMzbMQALe9+MO77piFeW5eFcajryV7yNid3r4KPxKzDtaLkc3iM8tzkmf3IDvhs3Gz8cB2IuGLURkysQCASCCIeYXDG5lUCt5A2F9rK6XWpyhw0bgJtaTsGgeePw0+j+eOXx8egy4jTS+Vdkkxej94Af8OwXy7Bi83ys7DkUn9b6Hr0Hb8Xx4vPISTqOX9efxtpdhWW3FZgw8n79FC17foRrhu3GzDPGrqwtOB/VBn/vOxJPzONfcLCbcy5OL/kWs1tei6Ej2qNv7yXoVm8k2ncxjOeJTGSWj8o7vRCr29fGe28+gxdGH8a6NO41apG4DKOf+ggf1u2EUWvPI7Y4GUknjmDFqvPYE22mliEzCsfnvoJ7u/TCEz9nIzo5FYWr3sPkHrfj44krMeNY+TjD5J78qRWmNr0JPSfMxcwTYnIFAoFAICDE5IrJrQRqJW8otJfVLcDkDumDm9rOxNBN67FnzjT0e+A7DOm7G8cunkDK7i/xxbheeGzObmw8uhJbOw1G0+uHoNegTeX35BrI3Iu4TVMwe8JojBo5EiMHdcOQts/i8U9a4sZR+/HLOWNM8hrDVDbFE90G4tHpJ3Ak+XdLfClycW55F0xr8md83LoB6r3WCR/e0Qijp60BL66qp3L68flY8U1tdGhbH13WpJXfQ5yLopRNWPpKW/S/uyumb0zCKXO00Z+YZdj9y3iMNfSNMGLUd83RockzuKHtULy69CLi0tJQoDW5OTi1oA2mt7oJvSaJyRUIBAKBQEFMrpjcSqBW8oZCe1ndAkzu4J6o1WYuBmw7jZjdSxD12WeYOGU1Fu/fgE2jH8N3vVvg89WncThmM9Z3HIgm1w9Fr8G/4lhJIQqKfsPJeW3R6/UbcM/NtVCrlhE1/4pa1/4B//bEh6g18gCWJxhcLkxu/MrOGNPwOtzzems89OkXGNTxToyaPhqzDpXiQnlaWrnJ7f3NRxi+Ix8nzc+wXTSmtB6LXm6D3vd0x/RNSThbUoTcmFVY1/fv+PjRmqhZsxZqGhpvvP4aXHfD9fin+v3w7qo8JGSkmyZ3Ss/b0WTyKvO2hDJk49TcVpj28U3oOU5MrkAgEAgECmJyxeRWArWSNxTay+oWaHJ7oGbrn9F7Swouxm/GyZktMW7RWHSe+ANGPf0chjXvjR9OJCMxYxtWftMfn9zwPXoP24WT6QcRu3MYvvuqIZ5461O07tYfQ4YMwdD+XTHo82fwt2YtceNoD1dyl3bAxI9r4r2vhqF71GrsWNUW3xsavmq1B9vPlf1t3vQT8w0ttdGvfSOM3lWIU+Zn2LJRkLQWC15qjZ7398GMjecRk7AV2+Z2wIcN38NzDb9El0FDDI3D8H33Zmjf/O+o+fkQvKau5K58D1N73YFm09Zh1kmej4jH4eGNMeahG9Gt3zzM/M0wuclicgUCgUAgEJMrJrcSqJW8odBeVrfKJveGVj+j54Z0IOcwstd/hR7fN8A9r7bAC39qhT5frsLe7IvIK/4VS780TG7NEegzYh9OxS7EgRnv4YlG36B2v6PYr6ZRfBCJYz7A+02amCb3Z5rcCytxdE4TPN5zeNX35C76Gj80uxF9xv2I1RmlyDi3CwsatEKbv7XHiK3nwFt8L55agPXta6PPNx9hRMWVXIvJfWggZqw7i7OHx2NGzzfx50bj8MECY34Kh6dgVccXcXubAXhxeS5i01JRtOI1fP/19Xh20GKMrrhdYRdWfv4s6v+hJj799mfMOwvEpojJFQgEAoFATK6Y3EqgVvKGQntZ3awmdwaGDOyOa5vPxXfr+M0N8SjdOwjfvFsH//jPN+Kf7+qGr36MQXppDkqLN2LRZ33R6Lrh6PX9XpyKX4rDcxvjhY8+R91vt2BdYtlX0OYdnoWol+7E/be9hL8O2Y358cZOXsmlye3UBw9MOox9CXko1k7bMLnlXwbRc/RULKHvzs1G7A8fYES7R9By8hosPFeClOOGye1wM3p91QDfb8/HiQqTuwbzn2+J7+7rh+k0ucdnYG7/93Bj/cF4Z/IpGDM2kITYSZ+j/+034T+f/xYvrshFXFYGSjc2xMA2f8FNDfqi1fxEZBekIT9mLgZ9eAeu/4/r8ErX+ZgfDZwXkysQCAQCgZhcI8TkBoBayRsK7WV1UyY3CTg+CX17dcC/NJiBjsvpRvOBxJ8x6ulrcEuNf8J/vDcBPfYXoBSGqStYiXlNu+Htf+mPzn234WTOMSQeGYmB9V/Dozc+gxfeaYjGjfvjm0bdMPKDF/DYKw3xb1+twsSjRn1y9+H8wlZ4+oVH8I9PtsYrE7dhVazuloVcnPypJSbW/ze0HzgaM2PLv9QhfjI2TXgfnz3fGf1H7cC6bXPw8+fX4rs2b2DQr/k4ZprcLBQkrMCcxxqhw42dMWFtHGLSDEM9rz2a3PckHrrvdbzbuKWhcRD6NmyO7955Bv/5Rhc8MPoUjmXlAnELsHL4G3jjpnvxwIPvomG7z9D4+75467278eID/45PB83BzJNAbDK/B1hMrkAgEAgiG2JyDZPLHbrgQX7vr3WSTkNNkPnc8mfdOLtQxfXCrYKFYYFodnXH7YJayRsK7WV1K0aBsS0pSEVpzFL8OGMCXu6zEhO2XzDGGA0sOYQ93zXFwGfeQftxv2Kp4YVRmovS/B1YP2Qaur80E+Om7sWZ4kwUFO7HoT6fodtdd+LBO+7CPfe0xgfvT8OypT+g/88/4LUhm/DT4UzDJCfh4q4J6Nroadz12Bu4ve9yzDhhnDNAX2lpHmI3DENUr1cxfs4vWBVfirLvRUtD/MZFmPtad0zusxSLd63FstEf4IeR3TD3UAFi8pmbg4LUnVj3WX9M+GA8luxLNa/cZh/9BcvefxGN77gdt932CG69tQs6d5iOpRumo+nYeWgy6SCOXyw0/y5wxt6fsPDVeviQY594Ebf1nIS2gzvglz5vYN7StVhyphjnLqSjKC87QPflI5ieKyxbtkxMrkAgEAiuGFhNrlqvAtcwXZR5keA9nMrXjakqeIGSHi4rK0t73C6UduXDalCMLiguLy8P+fn55kDdGLtQxWG+mqRunF2Qj7xeuDlBBguTmJhoml21Tzc+MKiVvKHQXlE3I7cg7yKKLiYh/nws9p9JRmxanjHGmEPpRWSfOY64fYdw5nwGUgo4L4OnMB1p5+Jxck8sjh2PQ2JGOgqLs5B/9jjObNmAzevXYd26/di1Ow4X0i/gXGoSDkSnID4jH8UlhtaMOJzatxVbNm/DmqNxiE439lfSWIiclBhcOLMfsQmJSM4x5mvsN57+yE9LRcKOY4g+cg6xKUlIjDmE+JjTSMgsxMVC5hq1zEtHyvFoxB6KRZLBm2e85opzkpF+YBcObliL1avWYdWqQzhy7DxSLl7A8fNJOBKTjswCowfGi7PkYirS9u3EwY3rsHbzVqw9fg5HY35DxrmDSE5JQUzKRcQn8p1fVrX1XGHp0qWoU6eOmFyBQCAQXBFQJrd169bmekjo1rHAqPAiQfogla8bYxdq7eYFSnq4zMxM1+s5OZUPq0ExuqA4OmleMlaGzWmo4jBfTVI3zi7IR14v3JwgIyMjo6JAap9ufGBQK3lDod1at9xcw+hecpW/7IlTWHZr7e8oYa4xN8v+7Ow0pCRdMPitt0ucx/F9B7B6w2lEJ1tNGM9rvPMp/6kMRp5hSgP1keeSGzAM7iJzv/HkKt/F8116Q6+RU1SWWxQwn2Ij95JdNig1e1dmdC+HvGz2PMHsfXX1XGHJkiVicgUCgUBwxcBqcrkeEoFrmC6sXiQYH6TydWPsQq3d6kJlenq66/WcnMqH1VDJgaFEqgnqxtgFiVS+Mnq6cXahRHrhVm6e5pYFYqGsDr+qoFZVoOrWbq0br+YWGq7QfPdVaryLUfo5F16WN56spXx3U8xc45ixn/uKiguRmpqC5ORkg7/I3MdvOStOXIc5k2ahx4D12Hoitdys0szyvKxP2a0SRYYhLSo0dGvnbYwjp3FS852VwV1cvp/8hcbP+QWG7gJeweY7r1JTd3G5RvaghP+cUD6f4nJeno/nLeNgbvk/j5hRlqc0UnfZnAwY5zH/iYIPjW12VlnP2fvq6rlCVFSUmFyBQCAQXDGwmlyuh4RuHQsMqxcJxgepfN0Yu1BrN/8Vnus5L1q5Xc/JqXzYVX1PblJSUhjek/t73d1yM5ifkpJiBo2haQhLc1GScx6/HT+NvQfizVsFyoyi8d+AXD+0V3fdVKiec6s7bhfUSl4v2hXknlyBQCAQXElQJrdNmzYV61XgGqYLv9Zzla8bU1XwKjDX86DvyTVnrYESqSboBiRS+cqwuIES6YVbIXz/usLvdXfLTTA/NTXVDD52A473Qzu31Vk3BdVzbt2AWsnrVTshf11BIBAIBFcSrB88cwO/1nOV7wW8CuzLX1co318JaoJeTIdfBfLCrSAmV0yuU1Areb1qJ8TkCgQCgeBKgphcMbmVQK3kDYV2a92Y75abYL6YXDG5AoFAIIhsiMkVk1sJ1EreUGi31o35brkJ5ovJFZMrEAgEgsiGmFwxuZVAreQNhXZr3ZjvlptgvphcMbkCgUAgiGyIyRWTWwnUSt5QaLfWjfluuQnmi8kVkysQCASCyIaYXDG5lUCt5A2FdmvdmO+Wm2C+mFwxuQKBQCCIbIjJFZNbCdRK3lBot9aN+W65CeaLyRWTKxAIBILIhphcMbmVQK3kDYV2a92Y75abYL6YXDG5AoFAIIhsiMkVk1sJ1EreUGi31o35brkJ5ovJFZMrEAgEgsiGmFwxuZVAreQNhXZr3ZjvlptgvphcMbkCgUAgiGyIyTVMLsXoguLy8/Mv+e5ip6GKw3w1Sd04uyAfeb1wc4IMFobfe0zDo/bpxgcGtZI3FNqtdWO+W27OkfkpKSlm8LHTeTM43g/t3FZn3VR/Vc+5Vft04wODWsnrRbvCsmXLxOQKBAKB4IqBMrlt2rQx10NCt44Fhl/rucrXjbELtXbzAiXX86ysLNfrOTmVn6hBMbqgODrpvLy8CuPhNFRxmK8mqRtnF+QjrxduTpCRmZmJxMREs0Bqn258YFAreUOh3Vo35rvlZoOZn5ycbAYfc59urC443g/t3FZn3QJ7zm119VwhKioKderUEZMrEAgEgisCyuS2bt3aXA8J3ToWGH6t5ypfN8Yu1NrNi1VczzMyMlyv5+RUfqIGd+iCB+mkrZN0GmqCzOeWP+vG2YUqrhduVQydydWNDwxqJW8otFvrxny33DS0zFcml4+5TzdWFxzvh3Zuq7NugT23mlzd+MCgVvJ60a4gJlcgEAgEVxJ0JjdwDdOFX+u5yteNsQu1dutMrm58YCjtyk/UUMmBoQYqw6EbYxd00yqfW/6sG2cX5COvF26aOgbNrfqna7VPNz4wqJW8odBurRvz3XLzcj7z1e0KfMx9urG64Hg/tHNbnXUL7Dm31dVzhaVLl4rJFQgEAsEVA+vtClwPCd06Fhh+recqXzfGLtTazVtNuZ7zopXb9Zycyk/IB88CQK3kDYV2a92Y75abYL588Ew+eCYQCASCyIZ88Ez+ukIlUCt5Q6HdWjfmu+UmmC8mV0yuQCAQCCIbYnLF5FYCtZI3FNqtdWO+W26C+WJyxeQKBAKBILIhJldMbiVQK3lDod1aN+a75SaYLyZXTK5AIBAIIhticsXkVgK1kjcU2q11Y75bboL5YnLF5AoEAoEgsiEmV0xuJVAreUOh3Vo35rvlJpgvJldMrkAgEAgiG2JyxeRWArWSNxTarXVjvltugvlicsXkCgQCgSCyISZXTG4lUCt5Q6HdWjfmu+UmmC8mV0yuQCAQCCIbYnLF5FYCtZI3FNqtdWO+W26C+WJyxeQKBAKBILIhJldMbiVQK3lDod1aN+a75SaYLyZXTK5AIBAIIhticsXkVgK1kjcU2q11Y75bboL5YnLF5AoEAoEgsiEm9zImV4n0uuirfC+GRYn0yk14NbmEKlAotFvr7gXMVybXrX6O90O7W17Cz567NbkEeb1qJ5TJbdmyZfkegUAgEAhCB65LderUcW1yCT/W82DWVK8mlyCn8hOOTK4XcJLM92JYrIbHK2huk5OTzUK5BXmDaU4w2oOtO/PT0tLMcKuf44PRfqX0PJg3Nl60E8rkevllIhAIBAKB31i3bp25LrVp06Z8j3P4sZ4H46Py8vLM9dzLRSurn6hBE6gLnjgrK8t00XysG2MXNBnMU/n8WTfOLlS+F24VvJJ5/vx50+zpjtuFVTu53Wpnjlft5GKO17oxmJ+YmGiGW/5gtTPvSug5t7rjdhGMdr4Q+SJetGgR/vKXv+CBBx7ApEmTMG3atGqN6dOnm6E7drVHJM9beh5ZIT3XH7uaI5iet2rVCv/8z/+M5s2bm2sVTaduHQsMv9Zz5aN0Y6qK9PT0oNZzFTV4OVgXSUlJFWaJj3Vj7MKay9CNoUO/3H47brs8a3BMXFwcoqOjzSI5yVERzLwZVeVTi06P2meXb5dnDR5nTkxMjBl8XFWONey4nYQ1l6EbY6dF7bfjdjIHjlE959brvO202wXfRPG+I17Jvfvuu/GHP/wBtWrVwo033ug4OF6F7nhVYc13ew6veSr8ytcdcxLB8AeTy/Aj1498L+fwmscIhpcRTC4jGP5gchl+5HrNZwRzjmC4g+FlhDI/mFyGH7le8xnBnOOaa67B//k//wedOnWqMIu6dUwX1jVR5weCWc+rWp95PD4+HmfPnjXXc90Yuwhcz2v8/+z9B3wUZ5Y9DOv7vv2/7+/977c7u/vfnZ3xjBO2MTiHcY4455yzTTLRJjoQDZhsgsFgbEywydEmZ4NNjiZnEAiEhLJQRBLnfU5JD5Srn0JV1bVq5L5n5rpaVff2OXVvi+d0qYPd8dojJyfHctLZ2dmn3bzXYL6u59aUY79q6NzPevKauN3q7MEcNikpKcnaeqnRobnPpv1scTbtDGox6dH73PruVmcPHmc9HxwM3q6sxh7MP5v2swXztXZuTTluWrj/bH3zcg7MicXM+ayRz47379+PMWPGoE+fPujcubPn6NSpEzp27IgOHTpYW/5syjtbsK5NmzZW8LYpxy2Yr8Mvd7TadX2QWh38x7t169b45JNPjMfdIpbao+VmsK5t27aBZh5L7dFw64jXmbOmus+cYcqpLGTmwWberVs39O/fHytWrLDWxOLiYuM6Zgr7em7yA25rLPefbU3l8crWZx5PT08/bXBNOW5BbnJqP/GHfeMZzQebw2cufkHeWGm39z0IWM9nbAy/+pkfhna/vESYM+fWL8gbVDtrgmoOC/ofjngD58Z/0Di7eAMf5zLz+EK8zzweP7mGM6d5q2qEsZ4HrSf48gptcP2CnORn/KFNLq/oxaPJDeONZ9V55tz6BXmDamdNUM1hoaioyIp4RJB5/xHAqzIy8/hCvM881v/OxgKcOQ1fVSOM9TxoPRHNG8/Iqf2EfE6uA9RK3lhot/eN9X65CdbrK7m87QfMD0M7t1XZNw09c7+/FNRKXpl59Zs5f7/jdeZ8Ihtk5mFpr+q+acTrzMmpZ8778IOwtEfbN9YHgZ6536t61Ere6j5z/ume9+EHYWmPpm+6Pgj064eDzJyc+tzF5DpAreSNhXZ731jvl5tgfbwaHjG5YnK9glrJW51nLiZXTK5XhKU92r6xPgjE5IrJ9QqtXZ+7mFwHqJW8sdBu7xvr/XITrI9XwyMmV0yuV1AreavzzMXkisn1irC0R9s31geBmFwxuV6htetzF5PrALWSNxba7X1jvV9ugvXxanjE5IrJ9QpqJW91nrmYXDG5XhGW9mj7xvogEJMrJtcrtHZ97mJyHaBW8sZCu71vrPfLTbA+Xg2PmFwxuV5BreStzjMXkysm1yvC0h5t31gfBGJyxeR6hdauz11MrgPUSt5YaLf3jfV+uQnWx6vhEZMrJtcrqJW81XnmYnLF5HpFWNqj7Rvrg0BMrphcr9Da9bmLyXWAWskbC+32vrHeLzfB+ng1PGJyxeR6BbWStzrPXEyumFyvCEt7tH1jfRCIyRWT6xVauz53MbkOUCt5Y6Hd3jfW++UmWB+vhkdMrphcr6BW8lbnmYvJFZPrFWFpj7ZvrA8CMblicr1Ca9fnLibXAWolbyy02/vGer/cBOvj1fCIyRWT6xXUSt7qPHMxuWJyvSIs7dH2jfVBICZXTK5XaO363BO4wxQ8yG/asJ+k19AnyHpu+bMpzy10c4Nw62BjUlNTrX8ITcfdglrJGwvt9r6x3i83g/X8hdC/FKYct2B+GNq5rcq+6dAz59Z03C2olbwy8+o3c/5+x+vMaXaCzDws7VXdNx3xOnNy6pnzPkw5bhGW9mj7xnpTTmWhZ56bm2s87hbUSt7qPnN+8xfvw5TjFmFpj6Zvut6UU1nwiU3QmZNTn3sCfzAFvzqQTppfraaFeg3esa7nlj+b8tyCfOQNws3mMvg91ykpKVaD9D5TvjOolbyx0G7vG+v9cnO4rOcvBIO39cC9BPPD0M5tVfbNOXNuZebmfGcwPwzt3FZl3/R8+fsdjzMnJ+fNKx28Lz8zD0u7zNycZwp731jvl/uPMnPWm3Lcwjnz7OzsuJ0576O6zVzXm3LcQs+XT2KDzpyc+twTuMMUPEgnbT9Jr6FPkPXc8mdTnlvo5gbh1ifKxuh/CO0nX1lQK3ljod3eN9b75eYvAOu14eFt7jPlmoL5YWjntir75pw5tzJzc74zmB+Gdm6rsm96vvqJTbzNnJxc+Hilg/flZ+ZhaZeZm/NMYe8b6/1y/1FmznpTjls4Z56VlRWXM2fwPqrbzHW9Kcct9Hz1E5sgMyenPvcE7ZCdoRN1c0w5bkExup5b/mzKcwvykTcINx8EDN0gPhvQ+0z5zqBW8sZCu71vrPfLzXNkvTY8vO31vBnMD0M7t1XZNz1fPXNu9T5TvjOolbwy8+o3c/1sP95mTk7+2TrIzMPSLjM355nC3jfW++XmOZKzus+c9aYct9Dz1TOn2dX7TPnOoFbyVveZ0+TyPryeNyMs7dH0TdebctxCz5cvUQk6c3Lqc08wvaaBoRN1c0w5bkExup5b/mzKcwvykTcItw7+UvCBEU+vySVYz9fw2N+cYMo1BfPD0M5tVfZNh545t6bjbkGt5JWZV7+Z8/c7nmeuX5NLmHJNEZb2qu6bjnidOTn1zHkfhCnXFGFpj7ZvrDflVBZ65nxiYzruFtRKXpl5bGau6005lQWvAgedOTn1ucunKzhArbpBVa3d3jfW++UmWK8ND2/7AfPD0M5tVfZNQ8+cWz+gVvLKzKvfzPU/hPE4c/l0Bfl0Ba8IS3u0fWN9EOiZ84mNH1Areav7zO1PZr0iLO3R9E3XBwFfahB05uTU5y4m1wFqJW8stNv7xnq/3ATr49XwiMkVk+sV1Ere6jxzMblicr0iLO3R9o31QSAmV0yuV2jt+tzF5DpAreSNhXZ731jvl5tgfbwaHjG5YnK9glrJW51nLiZXTK5XhKU92r6xPgjE5IrJ9QqtXZ+7mFwHqJW8sdBu7xvr/XITrI9XwyMmV0yuV1AreavzzMXkisn1irC0R9s31geBmFwxuV6htetzF5PrALWSNxba7X1jvV9ugvXxanjE5IrJ9QpqJW91nrmYXDG5XhGW9mj7xvogEJMrJtcrtHZ97mJyHaBW8sZCu71vrPfLTbA+Xg2PmFwxuV5BreStzjMXkysm1yvC0h5t31gfBGJyxeR6hdauz11MrgPUSt5YaLf3jfV+uQnWx6vhEZMrJtcrqJW81XnmYnLF5HpFWNqj7Rvrg0BMrphcr9Da9bmLyXWAWskbC+32vrHeLzfB+ng1PGJyxeR6BbWStzrPXEyumFyvCEt7tH1jfRCIyRWT6xVauz53MbkOUCt5Y6Hd3jfW++UmWB+vhkdMrphcr6BW8lbnmYvJFZPrFWFpj7ZvrA8CMblicr1Ca9fnLibXAWolbyy02/vGer/cBOvj1fCIyRWT6xXUSt7qPHMxuWJyvSIs7dH2jfVBICZXTK5XaO363MXkOkCt5I2FdnvfWO+Xm2B9vBqeWJpc1gXVTbA2yLw1srOzrQgC8kbDHc15R8vN7ybnY53fke4X5I2l9mhnzu90l5n7A3n/CDMPch9haA+KaLn1zGl8/IK81X3mWVlZge5Da/dby/ww1nNdHwShmVyKMQXF8YFl/+5ir6Gbw3p9kqY8tyAfeYNw6+D3HaemploNMh13C2olbyy02/vGer/cHC7r+ayPwdvcZ8o1BfPD0M5tVfZNh545t6bjbkGt5A2qnTXcCmIDzksQX5CZxx/ieeZ+TaYJznXrbMFeh7Ge63pTTmXBi1Vcz2nyTcfdQmvXfiKBYkxBcXTSfLasjYfX0M1hvT5JU55bkI+8Qbh5ggw2JiUlxTI8ep8p3xnUSt5YaLf3jfV+uTlg1qelpVnB29xnyjUF88PQzm1V9s05c26raubkYD6fae/cuRMbNmzA6tWrPceqVauwcuVKLF++HCtWrLB+NuW5xdq1a636hQsXWsHb3GfKNQXzycvgbVOOW9i1c+tXezTca9assWLZsmWYN28eli5denqfKd8Z1EreWGi39431frntM1+wYIF1W2ZurrEHtZJXZl59Z/7zzz/H7cx5H35nzu3GjRtx7Nix0+uVcw0zRVjrua435biFXrt5gZLrOf9yofeZ8p2htWs/ISbXEdRK3lhot/eN9X65xeRWvcnVV8o3bdqEt956C7feeituuOEGX3H99defDtPxyoJ111xzjRV+78PO7beWEVZtkHrGddddh6uvvhrXXnut8fjZIhpue2209abjlQXrZOYyc69h5/ZbywirNkg9Q2YebOb/+Mc/cPvtt2PEiBHWOsX1yrSOOSOs9VzXm3LcQq/doZlcnrgpdKI2HKYct6AYXc8tfzbluQX5yBuEW4e8XEFeruA1qJW8QbRrzJ8/H3//+9/x5z//Gc8//zxefPHFKo2XXnrJCtOxP3Lo847nczcd+yOHzFxmHk8RzXnffPPNSEhIwAcffFCxUnl72UJY67muN+VUFqG9XKHivCOgE7Xh8AMaK13PLX/2A/KRNwi3hrzxTN545hXUSt6g2ok5c+agZs2aePPNN60nGHz2WZXBfwgYpmN/5NDnHc/nbjr2Rw6Zucw8niKa8x43bhxq1KiBJk2aVKxU3hDWeq7rg4BXgUN541nF/gjoEwxiOsJqUBBuDTG5YnK9glrJG1Q7QZN7xRVXoFmzZhV7BAKBQCCIHZYsWYIrr7wSTZs2rdjjDWGt57o+CMTkVgIxuWJyvYJayRtUOzF37lzL5DZo0MC6H4FAIBAIYokZM2agVq1avi++hLWe6/ogEJNbCcTkisn1Cmolb1DthJhcgUAgEJxLEJMrJjcC1EreWGi39431frkJ1ovJFZMrEAgEgviGmFwxuRGgVvLGQru9b6z3y02wXkyumFyBQCAQxDfE5IrJjQC1kjcW2u19Y71fboL1YnLF5AoEAoEgviEmV0xuBKiVvLHQbu8b6/1yE6wXkysmVyAQCATxDTG5YnIjQK3kjYV2e99Y75ebYL2YXDG5AoFAIIhviMkVkxsBaiVvLLTb+8Z6v9wE68XkiskVCAQCQXxDTK6Y3AhQK3ljod3eN9b75SZYLyZXTK5AIBAI4hticpXJ5Q5T8CC/99d+kl5DnyDrueXPpjy30M0Nwq1hMrmmfGdQK3ljod3eN9b75SZYr00ubxOmXFMwPwzt3FZl3zRMJteU7wxqJW8Q7RpicgUCgUBwLsFkck3rmDPCWs91vSnHLTRMJteU7wytXfuJBIoxBcUVFhaiqKjISjTluIVuDuv1SZry3IJ85A3CzRNk5ObmIjU11WqQ3mfKdwa1kjcW2u19Y71fbg6Y9enp6VbwNveZck3B/DC0c1uVfXPOnNuqmrnG7NmzUbt2bTG5AoFAIDgnoE0uv9aX6yFhWsecEdZ6rutNOW6h125erOJ6npOT43s9J6f2EwkUYwqK41VQumltPLyGbg7r9Uma8tyCfOQNwq1PlI1JSUmxDI/eZ8p3BrWSNxba7X1jvV9uPghYn5aWZgVvc58p1xTMD0M7t1XZN+fMua2qmWvMmjVLTK5AIBAIzhlok9ukSRNrPSSca5gpwlrPdb0pxy302s0LlFzPs7Ozfa/n5NR+IoGu1xRapD5BU45bkEjXa8NiynMLLTIIt26GyeSa8p1BrbpBVa3d3jfW++WmoWW9Nrm8zX2mXFMwPwzt3FZl35wzt5tcU74zqJW8QbRriMkVCAQCwbkEk8k1rWPOCGs91/WmHLfQa7fJ5JrynaG1az+RYH8tgz2YTKEs4J2bctxCGyttVvizKc8tyEfeINw62CBe6uYlb9Nxt9BXPmOh3d431vvlZrBev1yBt005bsH8MLRzW5V906Fnzq3puFtQK3mDaNeYM2eOvCZXIBAIBOcM7C9X0OuVcw0zRVjrua435VQWvAqsX35oOu4WWrv2E/LpCg5Qq25QVWu39431frkJ1sunK8inKwgEAoEgvmF645kXhLWe6/og4FVg5xvPvEBr135CTK4D1EreWGi39431frkJ1ovJFZMrEAgEgviGmFwxuRGgVvLGQru9b6z3y02wXkyumFyBQCAQxDfE5IrJjQC1kjcW2u19Y71fboL1YnLF5AoEAoEgviEmV0xuBKiVvLHQbu8b6/1yE6wXkysmVyAQCATxDTG5YnIjQK3kjYV2e99Y75ebYL2YXDG5AoFAIIhviMkVkxsBaiVvLLTb+8Z6v9wE66ujySVOlZagNAC3hphcgUAgEAjKISZXTG4EqJW8sdBu7xvr/XITrK/OJjcIt4aYXIFAIBAIyiEmV0xuBKiVvLHQbu8b6/1yE6w/501uWS5Kj67G/OnD8XnPvuj5+WiMn70NO7JKkKd4T50SkysQCAQCQTQQkysmNwLUSt5YaLf3jfV+uQnWp2dmITvH3wODYG0Y2ivtW2kqTm4ZjR6N7sdlF12ECy5+Hq91mIP5yaXIturE5AoEAoFAEA3E5IrJjQC1kjcW2u19Y71fbqK0tAzpWTk4UVBcscc7yB2G9kr7dqoAZek7sW5kR/Ru/g4adxmNL5ccwP7cUhQrXrmSKxAIBAJBdBCTexaTqxf+oCbTW0tScWTrFkybuBnLNqUhp2IvQd6g3ATNbVpamtUov9ADMg32VMoGHPx1IqYt/g1LDqghVuy3Ixrt0fZdsaMoYx82LZ2OiePHY/5v+5BScaQykLusrDSw0bNQdtKDdnU8LxHrR36Grz9vj1E70rDT2q84FX9Qaj1zv09siLPN3AvmzZsnJlcgEAgE5wy0yW3evHnFHu/QXiTomhjtmlpYWGit534vWhHkJD8jQd9wBhfq4uJiK7TpskIVnypTPxfnI/9EPnJyldEr4Umo/TxmRZkySsXIzclBZmYu8gpPooSkVi2v1Knbpbk4eXg6JnXqgFtvHogmAzdjv+ZQfEZuH0H3n5qaajXIvv/0yZcU4WRRPgrJo/SXlWndpae5y5+FqFxLtzJfJek4MKcDer19Da5/tgle/WY9tmSrPpWW1zKoN6h2ctv7zp9NeW5hndvJXBRumYyhHz6I6669Eg82/xqTthchs0TdF6ekzqPsZBEKi4qQX6xmp85Pz6ycW4V13iqv9KTVo6KiQtUjpa+iR7/jU/dXUlyAooI8FBQWo6BIzfokzztSu+YpLUxCzvJBaPv81ah9031oOGw9VqSrc7fOV3FHOXNuTcfdInLmkdrdgudEzJkzR0yuQCAQCM4ZaJPbtGnT0+uVcw0zhd2L+F0TGXYfxHpTTmXBi1Vcz3Nzc43H3cKunZGQlZUFU/CNS+np6Vbwdvn+bGSfKMSJ43uRsvpbDOvUF+83n4/JvxxBJgqQk3cCOTn5OJmbjNz9C/FNjz6o32QIvlmwE7tzCpGlTG9udjZOFOYg7cgWrB3WGt1feQNP1h+LnjMP4mB2ljqueDIzDdz+IiUlBYcOHbK29v05Sn+22h5ZNwrLpnyMb2YtxIxtOTiekYOCE9nKlP+eOzNT1alzKjx+AHk7pmHQoLa45qkHccsDl+L11u+jy9ydWH5AGf7cbGXq3frmLchtr+fPpjxzlPc19fAWrP7yI3R95Xo88PhduOHGtmhUfy4WbD+KZPVEJC9lD1JXf4/vpvyAT2ZtxtI9x3EyLwcnTmtXoXhzC3JwZOcSrPz+Y0wZ9x3mbMvA/uPKGKs89s/iU8Y2I3UPts7ojZnDu2DKL1uxLkkZatZnO7VnqydEfBlFBg6um41FHV5F89duwm2PvISH7vgSvfutxG+KP7VIPcZ89k2H28wrC/vM/fY9Rz2m+Qs9efJkXH755WjYsKH1s0AgEAgEscTMmTMtk1u/fn1rveLVUecaZopo1kSGvd6vD9JBg3v48GEcO3bMeNwtnNoT7D/Yg5eJScLXRPC2tT8jE5m5yswm78CRn/ui+0uP4JqaL+PxPrMxKa0AGQUncCKvEHm7F2FLzzfw2o0P4rL7e6Dz9M3YmqmO0yQrw1iEUhRkJWLzuBGYO+IH/Ho4DYeLy5CXmYFsFRb38TTLeObmF6FEOXO685LiQhSeUCYrI1JvuT51gtknUJSfZ5nplOPKbJ3It2pLSwpRkEcjWoBMVb976lsY1urPePGzgejySxHSinlFTj0DKSpEUY4aaPpx69wt05eVh/xj+5C1ZRqGzl2C9yYuw9SxzTB/bAv0mb4ei7Zn4YTi45u98tSzjkJl9k/kFVlXNUv52a+lRSgqyEVOpnqwqIHbjayOjMwcZaZPqNocZZjVk4XcYhRa9cUoOZln3W9Obj4KTvLqq+rFyWIUKVPO+7Q0qtnkFmUi+dBmLPrqK/w0tD8WrZiHYe0not/7kzFnzSEcKAPykzYi/af38XaHJjiv9y8Yvek4UKj6kpVhne9x1fc0pS+nIAt7lg3GD+/9Ba0bv4bui45j/RH1BIcPJKWjsLhIWeZiZCWvxsJOt6Dzy7XRZuQyzEpSd1dSqlpZonqpzD97ac1LPXaU8c0pPI59q5dgUf+BWDx7DGbNmY8B9UZj2OeLsOJQCg4zP0ud64mTyD+h+pld3jOrR9yfX4y8vHylV+2390/lJCcnIzEx0dqaeuwWfLzx3PXj3ZTjFvyl4rPGSZMmickVCAQCwTmDWbNmWSa3bt261nrFl2861zC3sK+Jpz2gLdzWWL1f1ztrebyy9ZnHaW71em7KcQu9nutI4AJtiqIiZdJUQ+j89SXnk2rxLiktQ2lxPoqzj2Df9Nbo0/gyXPVhB7w+5zhSTvJSeCaS5vbAN7fURN0H3kf7H5Ow8bgyaSWnLLN6in+OVqaPV03TlUtPOXIM2fyzuRqI/jIA/smc/MVFBSguVMZO6bC0FBWjmAaPUcI/i0fqLtdZimxlOo8dTbIMUkEh/zzPY+V/BmftsXn1Mbb9eXjzi6/Ra5Uya3nkUkZY5eYpngKet9JAw1JSquxcXi7S9u/Ejr2J2H4sC8eP7caRA1uwaXcSkjPyrD/tl6r7LVK9Ym1B/gkVeUo375MvASg/Nwbv06mZ58KXCfAcCwrUOefnquC5Uzs10Oir8y/UvSiqmIcKGl/r5QiKM/cANq9cj42rduK4MupH9x/Avs17cSCxUPVZzeD4FhxXJvetTxvhvB5L8d3mrPJzVMGeF6rzt16uoExqyoYRmNbob2jf8l30X12M3Xl82YbqYQl1qFw1p/ysrVjR6y70fvsqdJqwCvOPlFh/ZihUOovU8XLd5fdPradOpSE7ZT92rz+Aw4kp6kGpnq3t2Indmw/jYFKBMtB8rKlzUyb+dG9+168z++3BHF5V5VVcfXXVlGcKPr75OGdf2QNTjluQh38C4j8mtWvXlpcrCAQCgeCcgH65QpMmTax1if7Hvn6dLbQHtLyY9oC2cFtjuf9sayqPV7Y+8zhfpsD1nF7OlOMW5C73MoVWnPWNZ/p1GK7IXYG9817BO4/cgefqjsbSxGJkJE3C7C/vxoN1nkWjHvOxp4iv1rUh5xesn9oVrZq+j8bNP0SzVh3Rqu1ETPv5KNIqUsqhCo/Mw68/dEDj+g1Qv35DtOz7Hb7fmYfkiowIFCUh/cBKfLd4DXqNHo3Rfd5Flw/fQYNGbdC09QRMWZaMjIrUnJ8/xE/9LkWzsV+g89dTMblhQ3Sq3wiNu32NtsuOYmNuRWIFSjN2YG33zhjSoB7aftAMH3zwKZr1/gEdf0nEDut10ZnAsbWY+ssq9Jz4E6Z81wZDO9VDg4bN0PjDr/HN5J04WODohR0F+5C0ay0GzdmB72aMx5JJ9dCzfX00aNwXbTuvwbqDiTh6cBYmtGuBFvUbo/ln/TB83REc+N2HKCQif+sQDPisOd58XZ1Lo6Zo+Wlv9Bu5GusOlAIlx3D016Ho8u5tqP2Pa/Cv97yJ+/rMxXfqBAoqhPG1yRpZ28dhdsvL0K1dIwzZzHu39gL7F+Cb7l+j3YDFWLhjM5YMeR4jml+HgWPH4auvvkNvNa+m7zfFJ9/+iDmHab1tKPgVO+d3x0cftECD+h+i+Yet0abjcIyauRt70gH1fAclR3/Gvl/64Kflv2LpYeuRUF56bAN2ze6LnxfNwbpU9fBzNDPaN57x8a5fY+sX8sYzgUAgEJxLiPaNZ9GsidGuqTSqXM+jfuNZxb4IUBwXazpqd6NbgsLkBVj41j3oUOd5NOkzGUN6vIZWDW7Fzf2n4YtNtk82KMtF/tHfsO67T/Dhc7fhsmuuwlVXX42rLrsMNc67B099Mg5jDhcj2/pLr3LhKduxdlIHtHzzLtS66gpcddVluObOZ/Dyx3Px4/oMZCtJEaqy12DXrC64+70GOO/Bx/DOC1fg6TpX4YqLL8Rf/3Q3Hms9DhNSS5Cj/F7BijaY9vn5eKNDE7z11qfocNXVeOaqi3HhNXfiP+oOQa/FhywtZeoci1LXYfv0duh956149JKrcPXVV+JqlXvBjY/j/A9/xLe/5aGw9BBK1g/Cu60a4T8ffh6vv3oj3n1acddU9/lv1+C253ui74YsqOcBBqgHQfoSrJzQBde8+glueutldP30Srzw+FWoXeMOXPLXJmjRYTCGDOqApvfcgjuuugiXXHM7bmz5E4asVc+UlEacTMORlRPwQ5vn8cDtV6n+qt6qvl1xQS3c8EBLfDJnLw5mH8CenzrgjTqX4T/++z/xf130D5zf9Dt8siITORV/YS/hFeGKB2XG1rGY1eIydGnXHN9sBVJLc5F2/GfM/bYLHr/vfTzW4Ad8v24jFg17FV/VuwwffNYBDd9tgTeuvBw3XfoXnF/nTTz55UYsSCxE6Sn1bDBrH3ZM7IFOb9yDq28on//Vl9fEpX+5GQ80HIyhuwuRrPxh0bqumN/976jfuyc+W66ePlR8Aknahm/xY5ML0FnpGfobkOTopXyEmEAgEAgE5ZCPEAvjc3LLMpC3pD9GNqqDGjVvxKUX3oM7H+6BbmuPYqe+BEcUbcb+mYPw5j0f4s5He6LnjEVYuGgRFo34GP3qXoRbmzTCUzOOYUeWyi3eip2LhuHVVt3wVPvv8MOCOViwYCyGt26Ftte2xhc9l0F5O0R8OFjeBuwY1wQ3X38h/u8r70OjfqMxfdlCzB7UCG0fOB9XvNIYz81Lx65cJXvLJ/ihyX/gxitewP2vTsbk2XOwcsFQ9K33IO6peQve+XgMFmcAJ5Q5T57ZCsOb34z3mnZFu+GLsWjRPCxa0Bfd3nob91/3Edp9vQUHC1OQs6oP3n70cvxTjRvxQsehmLRyAeaM7Y5+L1yCWx95FLd8sx4zk1wGnvUrVnz9DmrWugR/ue81fD5tLuatWICfBr6PD265DDec9xTuf3kUBk+ahZ8X9EGv99/Cpdf0xMs9diCxTDUtaz6+b9set13dGs99MAijl1Dnj/jps3vx3ts34Lq+0zFoex5O7F+MtUNexxPvvIDzmn6NT+fsxtb0YpxUj+HyB6bD5Lasia4dW2H0xmykJf6KCWP746EWX6P54IVYvuEQDqXvxqZhz6LNE3/DVa+2x3uDluLX+ZOweHQLvP7I0/j77d3QdvJepBUfRdqqUWj9ZEvccncXdBg7G/MXq/lP6INhjS/DffVexP0T9mNZitKx4TPM7/pfeKd7N7T/RemoaNnxdV9jaoM/o13bRhi0ETgkJlcgEAgEAiPE5Ib2ZRAHseGrN1AnIQEJ//t5XN56F9ZnVxyyPlpLNah4L46unIXuXZZh0PR8nDnt35Az+0E89Gk9XP5tIlanqNzD32LBkGdxqzJT9X86cfqKbdHGlVjxyUjMm7AR25WBtntoC4UbsfP7lrjn/Bvwl+tbou+aE7D+cJ02G78NuBM3N6iHK0ccwdrj6h63foJvG/8f/OXq91Cn20Ecsu6gCIfHN0P3m/6Euo26YuQBZbBK8pG2fBgW/NAL03Zk4rCVR2Th8JDe6PbXd9Ch3RJszj+OtNUD8f4tN+E/L3gDrX5KxnErbx8yxz6J1xo+iv/8fDGGU7gJJ1Zg1Zf1cd1/XYuaj/TBuGMV+/cPxJwP/w13XPccHvxoHzZZV1x3Y+fIPnj0L+3wQv2l2FR2AiW5qzFv5Cx81HUHZmyxmazEzhitzv0vHb9HkxXq56IjwLoO+LB/e1w+fBdmqx81yh8YZ0xu+rbxmN2qJgZ0fRNDpqzA+HZj8EnDr/H2D5uxLLViKqf2Y+dXj6H5Yxfh8nrD0Gm1/mVYiUmNG+K+/3wHTb9Yje0njyvTvABf9VyEnqPS+eKOCihXu/QZvNX+BZw/4DdM3a/qt/TE4t4X4/2+vdFVaT59JXfjd/ipeQ106dACwzbLlVyBQCAQCNwgJjcsk1uyCdu+eweNzv8r/r3mK7h34GpsTC8pf/2p9eH+FQ3iG87SDuPY/t3Ys2dPeawYj8WDXsI9bdrjH2OOYP3xIpSu+BDj2l+CN/qMQP/1sH3hwimc4icOnOSbrAzIX4Ud47rgrmva4srHJ2DynvRyI5y+EklTG+Lxjp1x4w9HsS5VOcV1bTCyw/mo3bo73pqTW26GFZJ//hxj652P9t0+x8hdqtSaTyGKTqTgYOI+7NpN3btULMSPn7TFR+fXR9fPl2Nb3hFlcoeg3gPNcfGtwzFkzfHyK83Fh1GypA1afN4UF33xK0ZsN71eVPUnZwlWDPkU19b8CPfUn4/VFSddsnkAfu59ARp264RPfwaOW3q2YccPX6FZja5o/f4ibFDl9HtleRnITNyJ39atxfrNO7Bn+ybs+fFjdO34Cv722XS0Xau6lrcf+OUjNO7eBpcNWo9Je8+Y7vIHxhmTm7ljEua0ronPW9VBw4++xKtXdsCndcdgoXKdp1+yXLAbm758BJ+9cQ3e+HIBxu7lTk5nJ1a174Su5zdE3/4rsEbtUY8mFGceReqB3dir579+NtZ++zqebdMcNYdsw8xExb3ZxeRuGoEZLWqgaycxuQKBQCAQnA1icsMwuSczkbemFb7pfxNufOERXH3hTWj6dGOM/eUI9lrnZmtOaTLSFnyCb5vch4fuuh23367i5mtx05UX4/882xZ3T07C1swM5Pz0HgbVPR9v9RqFoVuVgavEY59GjjKb03vgjpcG4KYWi7Ek8Xi5GU5bjSM/NcdTXT/HTWNocpUJWd0KE7tdgmcHfIsu69VArDsAjvzSCxObXoTOvbpj1G4gy7qD40hZ/wPaNHgeD95dofuOf+D6Gtfgyj+/gw8GbsTunCRkrhuK9+p3Q626szF5Z2b5mRcok7usPdr0boka/ZZjpJvJzViEX7/vimuf+RJP9FwPXtAkCjYqk9vvYjQf1ANd1ynDZwndgm0/DEGrS7vh00aLsUntsVp9aBbWDXwCjR+/HbfefBtuv/UW3HH9Zbjslnvxv9tOQ9et6k7z9uLUz23wfrdWuHTgGozffeZFH+UPjDMmN3fXZMxuVQsvPHMfrnj5E7z+2B3o16s1fjwGpFboQ/4urBvwEL6o/w90mLgOC60r0DR5u7C2Y1f0u6gRvhywEkq60piPglW9ManN/Ximzh24g3285QbcetUF+MvDdVHr6x1YxHoXk5v+20jMbKlMbmcxuQKBQCAQnA1icqM2uYUoO/wrxjR/BI++9zQe/P5b9Gn5IgbfXgcv1JuLwctzzlyFzT2II+u+Q98PHsZjd9+KOg8/jsceewJPPHIPHrm7Fs577SPcNSkJW/h5r7PqYUjDC/F2n9H42o/JzVQmd5Yyuc2/xK2fL8XyQ+UvGEDqCiRObYQnOnexmdyWmN79MjQaPBqDlUss90uncHhJd4xteBE69uiFMYdoKrOQ9utgTG30MO656z5c/8BjeOzxJ/DYUw/jvmuUmfzvd9F6wHrsyjqMjPXK5H7SHVd8Og8/7eGLixXyE1G4+CO07P7B2U3ucWVyJ3bDtY2+wjPDNkK/dDd/Y39l+C5C495d0PFXlWYJ3Yyt3w/GB5d+jo+bLceWk3koyvgNy0Z+iPpPXou7br8TD1Lj44/j6Qevw40P349/+WQ6umxWPCd8mNydE5TJvRzPvfAaHugyBiPHvIIxX9TDp113YPG2gvInEMV7sL7/QxjY8Gb0mL4Ry6yPyKDIbVjZvjN6XNwUAwatw2/56onCnukY1fFZZXD/gToPPqrm/zieePR+PHHv5bj4ufrK5G7HwqOqVJncJX1qoOnAfui5Bsi25JTi+OqhmP7ixfisactyk6ufmVRATK5AIBAIBOUQkxulyS3LWYld33fEEzc2xy2v/4TpSSnIy56DuR0/xE21PsYzHZZgtTo/qz2JU/HrsHdw85sf474eP2PNMX7ofxqOb56K5QNexr0t2+PmccnYkFaMslUtMb7DpXi11wj0XUd7U4GSAhSlq5POzkOB2hmhKkuZ3JnK5DYZiFu6/oxfE89ucqd9fikaDBqFgRudJvdiZXL7YmIKkFawDWtbPIKONa5Cy89nYeohfqNGOjKSl2Ju+4/Q+vz38dnnK7E9+zDSaXLbfo7aH83Fj7srXnXq1eSm0eR2xbUNBuPpIetx2IvJvaw7PmmxDltPHELWps/Rsc07uOjdr9F67GokWl+WsA9HZ3yK7p+8gvM/+xEfr1Mdy92DU0tao+HnbXDZ4I2YvL/8zInyB4bt5QoVbzxr/1FzDFqXigPHfsHiTp3Q5IbeGDBmu/X65JLS/dg8QJncBjfh82kbsNRq+RmT2/PSDzDwq9+w+chqbJrYGE+89wH+0W425u09ruafjvQ9i7Bl2Bt4rkVzy+TO4oujf/scC7r/He/07IGOK5Rk3iWykDSzM/rW+hsaPdMaw7YAyY7fOzG5AoFAIBCUQ0xuVCb3EHZNaIHeda7Dg48NxEeTsys+gzYXR5d9gy4v3oh/NGiNd9fk4RBf9pk4Cgv6PI2/v94LdUZnnnnT2O7vMfeFm3D1I+/jpgnHsIkXQHf3x/Tud+PGxgNRd1puhQFVJmblGMxv8A5GDJiGJcfw+89fJbTJbTQAt3y2BL94MLn1vhyJARtMJvcLTFLlx/PXYekrN6DFv16ObiP2YpeVp5D/I6Y1exX3/qUBGnRbi905h5FJk9umG2q3mYPpQUzuBGVy6w3C01+txyGvJrflRmzN3ov0lc3RuNGb+Jemi9Fjre5uCrK+fAsf3n4b/rvlBLTbqnbl7sapxS1Qv8fHqPnNDsxMOvPgLX9gnDG56VvKP0KsZ6cPMHa/kqi6lDyhCwY/dzOaDRyLiWlqBoWJ2D243OR2m7oBP0eY3A+Vyd2MzQeXYNU3L+LGNz/FNQMPV7zRTyFzPta+dwfuuuclXD50O+by5QpbuuKn9v+GW+s3xQtT8io+P3k3Ng99Ew/853/g5kc/skxuxXRPQ0yuQCAQCATlEJMbyOQq4Zk7cHBqZ3xa5xpcX/tBtBj2CzYpX3W6DZlrcGDW43j37VtxzTtDMXhxEhKPL8dvkz7E80+8gdtf/Bx9vh+LsWPnYnLHVuh5+9X4++11UXPgViznO6vSl2P95I54teHbeLRZV/Qf8wPGjBmEvo2eQePr7kOHThOwIFlf4bMhcyk2T+uEa97uhSs/XYifD1bYoJRlODDhbdz78aeoNeIIVqcoE7KiESZ2+DNe6zMMvdaeMbmJCzpi1Jv/gbadu2J0kjJ2RQexq+/r6PWPy/DS2+3QdtRYjJv0PeZN7IDWL9+N62veg9d6zMf6o0lIWzkQrzZrj781nYFJOyu+diL/AArnN0ejjg3wnz2WKnPm9nKFefj5h3ao8VpfPNB/DRK1yV3XE/O7/Dve6fIp2v6s/LoldCN+G/4FGvy5Iz6svwK/FaTixL5vMLjNG7ju9gZ4oXlfjBo3EeNHjcC4Vx/Gi9fcgv/7reFoviIfp4oSgVUd0PSDZ/H/vN4dDX5YjxXJRdZLQsofmDaT+9tITH//v9GuxdsYuAk4yIfBobH4bdx9aNWoFdoN24H1e5WZHVAHfd6qhY4T1mJhKispcjN+af0xOv9nPfT6Yh02pu3EroXt0ODFV/GPJzqg09ej1PznY1LPLhhU53pcceNz+EvnFZh8UD2QkqZh1Xf34cn76uAfz36Oz4eNxpglo9H5o6dw06X/C3e89iEG/6bG6vjdEZMrEAgEAkE5xOQGMrn5OLFjImY8cyvuveRuXPbRVPyw+4TtExAUTuXhZNZP+LHJg6hb6z6822MRZmbnIn3HeEx8tg6e/O8LcdGltXHppU3x1nM98f2QdniqQx/8o8syLDpUoMgLkH9kNX795mE0fvICXHLppSr3Ylx5z9N4vec8zN6WgRxFGNG6rBXYPrs37m02CHd2s79cYSUOTW+GZ7p+jtvHJWM9r+SuaYMfe9bG+1+Ntj5zVZvcpJ97YXyTy/BZ794Yq/xgVulJFG0fhVnt6uDO62rg/MtqovZtdfBiz6Ho8HkL9Hn3BvT4ZgKW7D6GY6uGo2G7HrjmY74mV1/JPYTCnz9Fm14tcfnAFRi9w+1K7hIsn9Qd/3j/Kzw/dMOZlyts+hI/f3EZmn/xufXFCOVXcrdg25ihaFm7Jz5tvgLbykpQWrwLmwe3ROvz/o7r/nYxLr3sEVxzbRcM6NAV3Qd3QK0WY9B8xlGUnFK69o9G3wZ34H9fcgPOe2sQWv+aYX3xRbnZO2NyM7aNx5zWV6B7h6YYpkxlIodcehQ5e8fi+6c/QI+Xv8XEFWsxY9jLGNr0DvT+caPt5QrbsapTV/Su+QG+HLweW0qLkJ0yFzPffQIv/9cFuLTGJWqmdfHUgz0x+sv2eKtrN1zx0Tz8sFk9OTiZhdwD4zD2hfvwjMqtUaMWLm3cHvd82gId3rgUvT5vhxHbgKMOLykmVyAQCASCcojJVSaXYkxBcfo7i7XRLQ8a0LXY+FV/DOk/HoN/y8I+y3idqeUpnUIWjs0dh6W9+mPc3K3YVKi8S14iUiYPx9TO7fDpx+3w0UfjMHL0WuxK2ozZv/2GUUv2Ym8Gvx1L3UFJDop2jsCS0Z+i3UcfqdxP0GXYZEzdWwx+lC75Tp3WVBEFSTi+bzXGL1yPkUv3YOeRVOscyvKOIHv3QkxbsRJjtucg+YQ6nyNLsFuZ0nkbtmD9MXW+1n2UIuvgKmyd+zWWrViBzeklyOfJnExE0saJ+KZ/J3Ts0AWd+n6L737djdWbV2L/0mHYtHkT9qbkIjvpN8xdugLDlyju4yesRpcVZaE4cRmWrFqMb9clYctxpcepW/GW5R3E4R0rMHLuOkxReRnFyriq+qJj65C45hssXLMSy/kVuSeZn4LUbRuwePgqLFtwyPqkg1MoQsGWpVjToxN6t2mL1m36oXuvpVi/aTs2K10jlmzFPPXkoOSU4s/djY0zv0Wvnj3RafQiTNiVizx1v5yz/o5qcuenbse+JcOx8peF2Kh6lEludr7wOPaNmYfVI9X97zuMrRtnYOOCMVi18ygOqGcfJSVFqj4VR35dgdXfLMS69Uf5abgoVbrTZo/F7C7t0fmTj9VMR2LwkJXYfmAzFm3fiG/m7cDGw9nlT15KjyPlpzGY8Vk7dPzkU3z0w1wM+vkXbF48HLs2LMPm1DJkW704E/yu69TUVGtr319Z8Fz1913rczflmUJj9uzZqF27tphcgUAgEJwT0Ca3adOmp9cr5xpmCq6B2gP6XRMZ2kvoelNOZcGLVVzPc3JyjMfdQmsnPyNBu11nUByddGFhoZX4u+Ol6s6sdhGncKrUdkyF1ZxiFSeVmeSXQZSprVWnciuqzkDts3bSqalGqvsiX2GREsjPw40oUNwOvjNxJr8wTxmelBSrQaWK9/T98Konc5WTsvYpcrv+k+rciktUKA0nKwZk112avR+Zh1fi0LFjSFXGvfw5SoUm8tCwlijtRbpv6hkFm2VxqWdErtrVA0NxW8eLC62+a+5ynSpO15aqJwKnd5afD0/I2lOKE1mHcXD3DuzYcQTJ6YWnPx6N527V/24O6lbF/XLm5D0984o5W0wqR/PoeqVMnXd5zxklJ9XcCvIrHtgqX9eq8y7vuf1xo1E+f+sJi71vv9NIOH6y9ZEPagZnnXJ65uX7dM7Zgn3mOfPxrn8pTXmm0Jg1a5aYXIFAIBCcM9Amt0mTJtZ6SJjWMWdwDdMe0O+ayLA8nG1NNeW4hV67eQWX63l2drbv9Zyc2ssEM7m/cyrKfNgMB6OcRDnp03nqBo+pHv/eqjihjI26r/IGqWcBjo+IKkeFEbTxnYkzxuhkwQkc14ZH0Z+RXG6kf3cO2vwxKNU6JdXsYm1yK/IUCrZ9jY3jn8e4BfOsN7+dfgOdMrfKl1XcPqkMss3knj5pdcPOZQ9tZnl+JUUoUn23uJWeM+XaaNrNoqqr2FcOdSx7DX7+cQx69pqLGb8esX39ccWDxHY+FipMqP2BQe3s22lu/eTAqj+9VyWcUVJWomZ+2uSqPlfstzRZtU7jagOdrupbieq51bcIk+uATY/+BRCTKxAIBAJBOcTkKpNrutzL0InlRs3+coXKg2J0Pbf82ZTnFuQjbxBuHfpP12yU6bhbUCt5ndoJmq6cXVOxbV57zF+7BuvTgELrcXOmPhrt9r6x3m/fqO9UST5yj63D8vkzMHr0Svz6W8ppkxvx8g5HkDsM7bGeubxcQSAQCATxDnm5QnG0XwZhRlgvWg7CraHfhJSfb3qjlzuolbyu2q2XX6iBq/2ms4pGu71vrPfbN4L1GRnpSE9PV/fj7z5YG4Z2Y98qQZgzlzeeCQQCgSDeIW88i/LLINwQVoOCcGv8j5ncShCNdnvfWO+XmygtLUNGZjZycv09MAhyh6E91jMXkysQCASCeIeYXDG5EaBW8sZCu71vrPfLTbA+IyPDCt72A+aHoZ3bquybhphcgUAgEAjKISZXTG4EqJW8sdBu7xvr/XITrBeTKyZXIBAIBPENMbliciNAreSNhXZ731jvl5tgvZhcMbkCgUAgiG+IyRWTGwFqJW8stNv7xnq/3ATrxeSKyRUIBAJBfENMrpjcCFAreWOh3d431vvlJlgvJldMrkAgEAjiG2JyxeRGgFrJGwvt9r6x3i83wXoxuWJyBQKBQBDfEJMrJjcC1EreWGi39431frkJ1ovJFZMrEAgEgviGmFwxuRGgVvLGQru9b6z3y02wXkyumFyBQCAQxDfE5IrJjQC1kjcW2u19Y71fboL1YnLF5AoEAoEgviEmV5lc7jAFD/J7f+0n6TX0CbKeW/5synML3dwg3DrYGG14TMfdglrJGwvt9r6x3i83wXptcnmbMOWagvlhaOe2KvumQ8+cW9Nxt6BW8gbRrjFnzhwxuQKBQCA4Z2A3uXq9cq5hpghrPdf1ppzKghcouZ7n5uYaj7uF1q79RALFmILiCgsLUVRUZCWactxCN4f1+iRNeW5BPvIG4eYJMtiYlJQUy/DofaZ8Z1AreWOh3d431vvl5jmyPi0tzQre9nreDOaHoZ3bquybnq+eObd6nynfGdRK3iDaNWbPno3atWuLyRUIBALBOQFtcps0aWKth4RpHXNGWOu5rjfluIVeu3mBkut5Tk6O7/WcnNpPJFCMKSiOTpqXjLXx8Bq6OazXJ2nKcwvykTcIN0+QkZ2dfbpBep8p3xnUSt5YaLf3jfV+ufkgYL02ubzNfaZcUzA/DO3cVmXfnDPntqpmrjFz5kwxuQKBQCA4Z2A3uVwPCecaZoqw1nNdb8pxC71264tWWVlZvtdzcmo/kaCLnaFF6hM05bgFiXS9NiymPLfQIoNwazdPc6uv6tkdfmVBrbpBVa3d3jfW++WmoWW9Nrm8zX2mXFMwPwzt3FZl35wz57aqZq4xa9YsMbkCgUAgOGdgN7lcDwnTOuaMsNZzXW/KcQu9dvOv8Pqild/1nJzaTySYXtPAYDKFsoB3bspxC22stFnhz6Y8tyAfeYNw62CDUlNT4+o1uQzWp6enW8Hbphy3YH4Y2rmtyr7p0DOX1+QKBAKBIN6hTW7Tpk1Pr1fONcwUYa3nut6UU1nwKjDXc16oNB13C61d+wn5dAUHqFU3qKq12/vGer/cBOvl0xXk0xUEAoFAEN+wv/HMD8Jaz3V9EPAqsH4juR9o7dpPiMl1gFrJGwvt9r6x3i83wXoxuWJyBQKBQBDfEJMrJjcC1EreWGi39431frkJ1ovJFZMrEAgEgviGmFwxuRGgVvLGQru9b6z3y02wXkyumFyBQCAQxDfE5IrJjQC1kjcW2u19Y71fboL1YnLF5AoEAoEgviEmV0xuBKiVvLHQbu8b6/1yE6wXkysmVyAQCATxDTG5YnIjQK3kjYV2e99Y75ebYL2YXDG5AoFAIIhviMkVkxsBaiVvLLTb+8Z6v9wE68XkiskVCAQCQXxDTK6Y3AhQK3ljod3eN9b75SZYLyZXTK5AIBAI4hticsXkRoBayRsL7fa+sd4vN8F6MblicgUCgUAQ3xCTKyY3AtRK3lhot/eN9X65CdaLyY2tyeV9CQQCgUAQS8ycOVNMLsWYguKKiop+993FXkM3h/X6JE15bkE+8gbh5gky2Bh+7zENj95nyncGtZI3FtrtfWO9X26eI+vT09Ot4G2v581gfhjaua3Kvun56plzq/eZ8p1BreQNol1j9uzZqF27Npo3b16xRyAQCASC2GHp0qW48sor0aRJE2s9JEzrmDPCWs91vSnHLfTazQuUXM9zc3N9r+fk1H4igWJMQXF00oWFhaeNh9fQzWG9PklTnluQj7xBuHmCjJycHKSkpFgN0vtM+c6gVvLGQru9b6z3y80Bsz4tLc0K3uY+U64pmB+Gdm6rsm/OmXNbVTPXmDVrFi655BK8+OKL2LdvHxITE6s0Dh06ZIXp2B894vm8ZebxFTJz87E/ckQz82+++Qbnn38+GjVqZK2HhGkdc0ZY67muN+W4hV67ebGK63l2drbv9Zyc2k8kcIcpeJBO2n6SXkOfIOu55c+mPLfQzQ3CrZthMrmmfGdQK3ljod3eN9b75aahZb02ubzNfaZcUzA/DO3cVmXfnDO3m1xTvjOolbxBtGvMnz8fF1xwAf793/8dderUwf3331+l8cADD1hhOvZHj3g+b5l5fIXM3HzsjxzRzJwvoUtISECLFi0sL0CY1jFnhLWe63pTjlvotdtkck35ztDatZ9I0MXO0InacJhy3IJuWtdzy59NeW5BPvIG4eYgGTS3+k/Xep8p3xnUSt5YaLf3jfV+uXk5n/X65Qq8zX2mXFMwPwzt3FZl35wz57aqZk6wx9u3b8cHH3yAxx57zDK5fuLee+89HabjlQXr7rjjDiv83oed228tI6zaIPWMu+++G7fffru1NR0/W0TDba+Ntt50vLJg3Z133ikzNxw/W0TDba+Ntt50vLJgXbzP/K677jIeP1tEw22vjbbedLyyYF00M3/wwQfx1FNPYeLEidY6RZjWMWeEtZ7relOOW+i1my815XrOi1Z+13Nyaj8hbzxzgFrJGwvt9r6x3i83wXp541nVvvGMevmM8dixYzh8+DAOHjzoOQ4cOGC9vGHPnj3Yu3ev9bMp72zB+o0bN1rB26Yct2A+eRn79+835riFXTu3frWTLyi3Dj65WL9+vbU1HXcLaiVvLLTb+8Z6v9wM1m/atCnQzMPSXtV90xGvMyennjnvw5TjFmFpj7ZvrDflVBZ65tu2bTMedwtqJW91n/mGDRus+zDluAVrGVyTeOHHD8Jaz3V9EHBNDeWNZxX7I6BPMIjpCKtBQbg1xOSKyfUKaiVvNNoFsYPfx7mg+kNmHn+QmVcdwlrPdX0QiMmtBGJyxeR6BbWSN1rtQWoJe30QsD4zM9MKv71jPnmj1e6XlyBfNNwE/yHk68/9/p4T5I2Vdt031gcB67OysgLNPCztsegbEa8zJ6eeud/7CEt7tH0LUk/omfv9t50gb3WfeZD1PBrtujbaNVHXB4GY3EogJldMrldQK3ll5tVv5vz9jteZ0+wEmXlY2qu6bxrxOnNy6pnzPvwgLO3R9o31QaBnHsTwkLe6z5zvseF9+EFY2qPpm64PAjG5lUBMrphcr6BW8srMq9/MxeSKyfUKaiVvdZ05OcXkisn1irC0R9M3XR8EYnIrgZhcMbleQa3klZlXv5mLyRWT6xXUSt7qOnNyiskVk+sVYWmPpm+6PgjE5FYCMblicr2CWskrM69+MxeTKybXK6iVvNV15uQUkysm1yvC0h5N33R9EIjJrQRicsXkegW1kldmXv1mLiZXTK5XUCt5q+vMySkmV0yuV4SlPZq+6fogEJNbCcTkisn1Cmolr8y8+s1cTK6YXK+gVvJW15mTU0yumFyvCEt7NH3T9UEgJrcSiMkVk+sV1EpemXn1m7mYXDG5XkGt5K2uMyenmFwxuV4RlvZo+qbrg0BMbiUQkysm1yuolbwy8+o3czG5YnK9glrJW11nTk4xuWJyvSIs7dH0TdcHwf+4ydUig5wgoev9NpfQIoNyE0FNLqEbFAvt9r4HAeu14fGrn/lhaPfLS4Q5c7+LH0FemXn1m3lQw0OQtzrPXBsev/rD0h6LvhHxOnNyBn1iE5b2aPsWpJ4IanIJ8lb3mdPk+r2PsLRH07eg9URQk0uQU5+7q8nVIoMK1PVBmkuQNyg3wV8KfkMKG+UXukGx0B5G3/lLwfCrn/lhaPfLqxENN6Fnzq1fkFdm7h9au19ejWi4Cf5+x+vM9bdfBdEfhvZY9I2I15kTQb/ljghDe7R9C1qvZx7kiQ15q/vMgzyZJcLQHk3foqkvLCwMPHNy6nNP4B2ZgndMB83gPyamHLfgA1LXc8ufTXluQb6g3Dr4D0FycrK1NR13C2rV3FWt3d43hl9uButTUlKs4G1TjlvYuWXm5lxTyMxl5qYct7D3jeGXm8H61NTUQDMPS3tV900HF/14nDk59cx5H6YctwhLe7R9Y70pp7LQM6fZMx13C2q1c0ejPZq+MfxyM8gpM/c/c3vfE3g52BS6sQzeNuW4hb2WYcqhQz/bfjdutzp7MOfo0aM4ePCgtfVSoyOa82ZUVk8tJj16n1u9W509eJw1hw4dsoK3K6uxhxu3l7DXMkw5blr0fjduL+fAnDBm7qb9bFFZ36jFpEfvc6t3q7MHj7MmFjNn6FqG6bibFr3fjdvLOTBHZn7Iuo/KauxRmfbKQtcyTMfdtOj9btw8Xtl58DgXPj1zU45b2M/bTfvZorK+uenX+93q3ersoevjeeaJiYk4cuSIMcct7Oftpv1sUVnf3PTr/W71bnX20PXnwsxN9W5a9H63Wh6v7Dx4PKyZJ+Tm5sIU2dnZlpNm5OTkGHPcgvm6nltTDh22237Wu3G71dmDOTzZpKQkq1leanTYud20ny3Opp1BLSY9ep9b393q7MHjrOeDg8HbldXYw43bSzBf13NrynHTwv1n65uXc2COnjm3fs7bzu2m/WxxNu0MajHp0fvc+u5WZw8eZ30sZs7Q9dyajrtp4f6z9c3LOTCHv98yc38zr0x7ZaG1u/XNTQv3n42bxys7Dx63z9yU4xZ2bjftZ4vK+uamX+/TfXPWu9XZg8dZo2fO+6isxh6Vaa8swpq5s57HKzsPHufMtdkx5bjF2bi9RGV9c9Ov94U1cz6h431UVmOPyrRXFvaZu527c5/eb+cOOnO+DjnozO19l09XcIBayRsL7fa+sd4vN8F6Xt4P8uYE5oehnduq7JuGnjm3fkCt5JWZV7+Z8/c7XmfOP9cHmXlY2qu6bxrxOnNy6pnzPvwgLO3R9o31QaBnTvPjB9RK3uo+c/l0Be/Q2vW5/2E/XYG/FHz2x0b5hW5QLLTb+x4ErOcvBcOvfuaHod0vLxHmzLn1C/LKzKvfzPn7Ha8z51WKIDMPS3ss+kbE68zJqWfu9z7C0h5t34LUE3rmfp/YEOSt7jMP8mQ2LO3R9C1oPcHX1wadOTn1ucuVXAeolbyx0G7vG+v9chOsj9erenrm8XaFh/XxOnP+fsfrzGl2gsw8LO1V3TeNeJ05OfXMeR9+EJb2aPvG+iDQM5crud4RlvZo+qbrg+B//EqufTixalAQbg0xuWJyvYJaySszr34zF5MrJtcrqJW81XXm5BSTKybXK8LSHk3fdH0QiMmtBGJyxeR6BbWSV2Ze/WYuJldMrldQK3mr68zJKSZXTK5XhKU9mr7p+iAQk1sJxOSKyfUKaiWvzLz6zVxMrphcr6BW8lbXmZNTTK6YXK8IS3s0fdP1QSAmtxKIyRWT6xXUSl6ZefWbuZhcMbleQa3kra4zJ6eYXDG5XhGW9mj6puuDQExuJRCTKybXK6iVvDLz6jdzMblicr2CWslbXWdOTjG5YnK9Iizt0fRN1weBmNxKICZXTK5XUCt5ZebVb+ZicsXkegW1kre6zpycYnLF5HpFWNqj6ZuuDwIxuZVATK6YXK+gVvLKzKvfzMXkisn1Cmolb3WdOTnF5IrJ9YqwtEfTN10fBGJyK4GYXDG5XkGt5JWZV7+Zi8kVk+sV1Ere6jpzcorJFZPrFWFpj6Zvuj4IQjO53GEKHiwuLv7dSXoNfYKs55Y/m/LcQjc3CLcONiY1NdX6h9B03C2olbyx0G7vG+v9cjNYz18I/UthynEL5oehnduq7JsOPXNuTcfdglrJG4121sQSunfxCH4zTjxC/77GI2Tm8Yd4njnXpmhhWrvcIqz1XNebcioLPrHhep6bm2s87hZau14TEyjGFBTHB1VRUZGVaMpxC90c1uuTNOW5BfnIG4RbR05ODlJSUqwGmY67BbWSNxba7X1jvV9uDpf1/Co8Bm9znynXFMwPQzu3Vdk3HXrm3JqOuwW1kjcM7az3E6zhM1Y+GeMvtd/7oFbW8x8DBm/rWXgJ5pOXoc/fa9i1c+tXO/mCcrPnjOzsbCQnJ1tffan3mfKdQa3kjYV2e99Y75eb8yUn583HO+/Lz8zD0i4zN+eZwt431vvl/qPMnPWmHLdwzpxXNeN15rwPvzPX58x+mdYut9A8+pz5synPLchHXl1vyqkseLGK583Zm467hdZOfkaCfsA4g+LYVHuTvIZujv2BYcpzC/KRNwg3T5DBxmjDo/eZ8p1BreSNhXZ731jvl5uGlvXa5PI295lyTcH8MLRzW5V9c86c26qauX4SsW/fPgwYMAAtWrRA/fr1PUe9evWsqFu3rhW8bcpziwYNGlg1b775phW8zX2mXFNEw818Xa9vm/LcQtcGPW/Gu+++izfeeAPvvPPO6X2mfGc4uatSu+YLWs9zZI3MXGZuyjVFNNzM1/X6tinPLXRt0PNmyMzftO7D63kzWNuoUSO0adMGixYtstYpr34grPVc15ty3EKv3bxAyfWcT2b9rufk1H5CruQ6glrJGwvt9r6x3i83H8Cslyu5VXclV2Pp0qW48sor8ac//Qm1atVC7dq1JSQkJCQkYhZ///vf8U//9E9o37699ad8wrSOOSOs9VzXm3Iqi9Cu5Dpfz6BDJ2rDYcpxCxorXc8tfzbluQX5yBuEWwcbpN+cYDruFvqZTiy02/vGer/cDNbH82ty9QvVTcfdglrJG0S7xpw5c3DhhReiTp06mDlzpvWzl5g7d25EmPLOFtHUh1kbbb0pp7Jg3bx583zX23l1mPLcIsxav/WMaOrDrI223pRTWbBOZl59tEdTq4N1MnP//O3atcO///u/o3HjxhUrlbfX5oa1nut6U05lwavAXM+jfk1uxXlHQIvUJ+gHJNL12rD4gRYZhFuD5pYNYqP8gFp1g6pau71vrPfLTbA+Xt9pr2fOrR9QK3mDaif4j8oVV1yB5s2bV+wRCAQCgSB20H9hbNKkScUebwhrPdf1QcCXGuiLVn6gtWs/ISbXAWolbyy02/vGer/cBOvF5Fa9yeWzZprc999/v2KPQCAQCASxw+zZs62XLTRr1qxijzeEtZ7r+iAQk1sJxOSKyfUKaiVvUO2ENrl8YwDvRyAQCASCWGLGjBnWe0TE5BqgTzCI6QirQUG4NcTkisn1Cmolb1DthJhcgUAgEJxLEJMrJjcC1EreWGi39431frkJ1ovJFZMrEAgEgviGmFwxuRGgVvLGQru9b6z3y02wXkyumFyBQCAQxDfE5IrJjQC1kjcW2u19Y71fboL1YnLF5AoEAoEgviEmV0xuBKiVvLHQbu8b6/1yE6wXkysmVyAQCATxDTG5YnIjQK3kjYV2e99Y75ebYL2YXDG5AoFAIIhviMkVkxsBaiVvLLTb+8Z6v9wE68XkiskVCAQCQXxDTK6Y3AhQK3ljod3eN9b75SZYLyZXTK5AIBAI4hticpXJpRhTUFxRUdHvvrvYa+jmsF6fpCnPLchH3iDcPEEGG5OammoZHr3PlO8MaiVvLLTb+8Z6v9w8R9anp6dbwdtez5vB/DC0c1uVfdPz1TPnVu8z5TuDWskbRLuG/lpfMbkCgUAgOBegTW7Tpk2t9ZAwrWPOCGs91/WmHLfQazcvUHI9z83N9b2ek1P7iQSKMQXF0UkXFhaeNh5eQzeH9fokTXluQT7yBuHmCTJycnKQkpJiNUjvM+U7g1rJGwvt9r6x3i83B8z6tLQ0K3ib+0y5pmB+GNq5rcq+OWfObVXNXGPWrFnW1yeKyRUIBALBuQBtcps0aWKth4RpHXNGWOu5rjfluIVeu3mxiut5dna27/WcnNpPiMl1BLWSNxba7X1jvV9uMblicgUCgUAgIMTkKpNLE2QKnagNhynHLShG13PLn015bkE+8gbh1kFzq/90bTruFtRK3lhot/eN9X65eTmf9fH2cgUdeubcmo67BbWSN4h2jdmzZ4vJFQgEAsE5A/vLFfR65VzDTBHWeq7rTTmVBV9qyvWcF61Mx91Ca9d+Qt545gC1kjcW2u19Y71fboL18sYzeeOZQCAQCOIb8sYz+XSFCFAreWOh3d431vvlJlgvJldMrkAgEAjiG2JyxeRGgFrJG0px5AYAALFrSURBVAvt9r6x3i83wXoxuWJyBQKBQBDfEJMrJjcC1EreWGi39431frkJ1ovJFZMrEAgEgviGmFwxuRGgVvLGQru9b6z3y02wXkyumFyBQCAQxDfE5IrJjQC1kjcW2u19Y71fboL1YnLF5AoEAoEgviEmV0xuBKiVvLHRLiY3WN/KISZXIBAIBIJyiMkVkxsBaiVvzLSXicmNduZicgUCgUAQ7xCTKyY3AtRK3irTXpSFoqNbcOTwQRzMPIkTxRyO4lb1frkJahaTKyZXIBAIBPENMbliciNAreStKu15+2ZjZb9n0KN3V/RZno29OacUJ79dJJjZomYxuWJyBQKBQBDfEJMrJjcC1Ere/3nt6ljBEWxb/jU+/PhlvNNzMMZuOoEk5c/KxORW7PUHMbkCgUAgEJRDTK6Y3AhQK3m9aOcxb2fGq7Plof5Tsa8YODQO00Z9gkvbjEOTnw6jSO3l0ZMniy0NRm59P2dBbnYWsrOzK34iyvPPVBUgJyMZhw4n4fiJQmhLVlaqzpvnHqDvpzgz1a/ikrKInkSorTgH+/4wZ243uRHcCk5u/ux15m4QkysQCASCcwlicpXJ5Q+mKC4uRmFhIYqKik4L9Rq8Y13PLX825bkF+cgbhJvNZeTm5iI1NdVqkN5nyncGtZLXs3bed0VzzVAPjrLf11goO4GiVY0woO5V+JdreuGNQUnIKT+CkwXlfT8r91lI83OzkZOdc8bIWVeG1flbPyjTn7YE43o3wLOvvIn2E1ZiS6F6UsPksuLAfT8985N2k6s4yfu734/yB6Azwpw5t6dn7ujTKUO975nbQmP27NmoXbu2mFyBQCAQnBPQJrdp06bWekiY1jFnnF7Po/Rwut6U4xZ67ebFKq7nOTk5Z9ZzQ74ztHbtJxIoxhQUx6ugdNPaeHgN3RzW65M05bkF+cgbhFufKBuTkpJiGR69z5TvDGolb+Xa1bMEbd6K9iJpwxT88O1gfDlwIPr3H4D+AwZh5Px1WJOhDltJ5Q+SkypQnIb8xF8x7qs38WKdmrjrymfxUKsJ+HzrcezLKVZeU/G6cJeUVJxLbhJSNo/BgolfYtDgIfhq2Gh8O3wUvvvuO0z9eTWWr16GLQtHYf3G9dieVooTSmypMrh5h9XPvT9Cq7tr4dJrb8CtTw7EgDH7sD9X9f2UCnXuhQH6zqu/RYWq7tg27N/+K37atBcrjhTgZFE+SnP2Y/u23/Dj6n3YlJSD4op5lNjqw5w5t9aTj1J1THEf3L4KYxb+hjlbU5BdkU9uze995pGhMWvWLDG5AoFAIDhnoE1ukyZNrHWPcK5hpuAaGIaH0/WmHLfQ6zkvUHI951+l9T5TvjO0du0nEuh6TaFF6hM05bgFiXS9NiymPLfQIoNw62aYTK4p3xnUqht0du3qGQevkOYdR86KoRjR6kHccPWluLhGDdSocbGKC3DjS63RdvI+bE1VzT9V/ifyEj7K8nYhc/0PaNJ9KB79oDuG9W+C+oMH4uHx2/HLoRM4pcxmSbGZW1+ZLM3cjL2Tn8KnL9fE5Zcqvgv+G+f//a+47Prb8G6/cfhu7FBM6fgwho/4FtP3AxkWcRpS18/G1Cdb46u3W6DvV1+iyaOD8VmDeViZkocspfBkER/M7NfvLr9WQO3jVWmHJivUUWrGlhGYNbI5bus7GU2X5SmHnwkcmYohg3vg+paT0HPJEb5QwwaaUcfMFX9ZBL3qn8r7PbfSYstjbWZGBgrzK16uUKbMZspSLJ8+GI+3G4sPJ+3AsWKrEShT9fq+vM88MjTE5AoEAoHgXILJ5JrWMWdwDQvDw+l6U45baL9mMrmmfGdo7dpPJOjLwM7QidpkmnLcgmJ0Pbf82ZTnFuQjbxBuvh6DwQbxUjcveet9pnxnUCt5K9eu3FX+LiQvGYZer76PJ+9thDfbfY6uffqgT5+e6NPrfTR/8mG8e19DdP1uDX5NV8ZUPcAsj1qSjZPpB/Hz9gws2ZOJ/Nxt2Hx4G6ZuS0ViZqHiVMMycttfS1qIksMzsGb2UHzd40N8/Oy/4OmHLsZjH/RFrxlbsGbjauxZPhlbt27B3myVbRGrB23aESTO2oyUzYeQW5CLPYv3YvO8/TiSV4x8xaF8o43DBafsmsqDNarFwLYhmPn1Gziv83i88jPPOEeZ3O/RvUtr/On1kfho/nHeQwRoOvXMy38VTVAEp7nVPA1C2bfyThPqpPOScGTvJkxbvhM/785Anqol+BpiBu/L+8wjQ2POnDnymlyBQCAQnDOwv1yBHogwrWPO4BoYhofT9aYct9B+jVeB9csP/Xo4cmo/IW88c4BayetFe1niBCzvczeuu74urqm/HusKKw5YSML+L15Hl1rn44aX+uHDxVnIPH1XyuSm/IxtK2Zgzoyf8ONPc/HL9qM4qryRlcI/syuj68ZdkroN+3+Zijk/zcKMJTuxaOVSrBl5AyZ9/waGbirG6mPAiSNbkbFvLZKOHsVxvubWqlTPqLL3YPXKhZgxc4binY/ZGw5jl34xsDKFRdlHkXFwGQ4mrce2XVuxbvYszJs0BVN+nI8Zaw9hW7p6RlWR/TucKsSp9F3YPL4NWtW9F+e91Ax391uGedv3I233OHz9VV/UaDIR7cZPx451kzBj2mR1n+uwdFUWsqxLu+oxo1yrdd8lycg/NBurFk7B5EmTMXnqTCzenozE318CtnAyaTf2/jQVcydPwvffj8F3o8dh0qrt2KDOybqvsmxkK2P/274U7EnNP/0mOzv8zNwN8sYzgUAgEJxLkDeeyacrRIBayetF+8mtgzG324Wo9fp7+MeXe7Hd+clVvw3DzE5P47o3Psfz3+3EIWvW6v4PzcGqr25Hw8dr4+qrrsAVta/E/U2+wBe/5lgfIUZ7dsr4EWLq57Ij2DejLfq9WAu3X3MNrnqkEx5oMxADP7sCo0e9i2FbSrAhEzi8uC/mf3Y/ho4YgRlHgFyWF/yGnVM748Un7kTtq65UpuxmXPFSd3wwdRcSabDV3efvm4WNI+9FvwGvodFHHdHglrvwaM3LcFmtm3DJc73w4eQ9SDJ5uNI0lGz9Ab0b34fz/vyv+L/+z1/wr4+0wqPDl2HDqh8wdvgg1Kz3FRq0fwH929TErdep+7z0NTzw7FRM2a6MqD5VJSJv1w9Y1PsqvHSvyiH35VfhvhZfY+CaAqRpo8uXipTswvZv2qF7rctx12U1cemll6LG5Veixju98c78NBwrUA0vWI01s4bhmU6T0GbaXqQZHk5+Zu4GMbkCgUAgOJcgJldMbgSolbxetJcemYmN39TBLY9dhX9+sDVe+2oDlqZUHLSQioKkn/HD3BUYvzoZmSUFQPIvWNy/Fd646VbUefQtNGjTAq2bPIyn7r4Pz77yOb5flIgkZeTKLN7fc5dmbsLRta0xvP+LeL/Jh2jeog3adB+KVu1bo+kDf0ezeu9gwOp8bFSOdteU5vjh9f8/Pv6sG0YdOIWMnIPYPuoLDHzmDTz9cmO806YNWjZ6HS89fAfuqtcSHy7aj7VZyrjvH4sV3f4Nz916CWrd1A7167dH3zaNUP+pW3HF32/BfW8MwLTdRUh3jqUsF6WHf8Hs/u/imQevxn/c8TiubPk9+i7dgYPbJ+H7z9/FBXc8jIcavo1+37VB+0/eR727b8Lt1z2NJ4YswoRD6j5KcoCkJZjW6X28cMMtuP+ZumjW5kN8+N79ePSOh/DKewPx4/p0ZKjU4rTfsGtyPfR59z68/GBD1GvSBm3b1kODl+rgmutex73vz8D8XVkozl6E+SM+wd9f6Y/HvlL9E5MrEAgEgjiAmFwxuRGgVvJ60l5yBDmrh6Hdew/hmpo34q/3N0KDvhMwY8kSLFnyM35evQebjqpmV6Sj5DgKV7RGrzceRs0bBqHl6KPIppHNX47ZTW7BG1dchFc+/0kZvlIUW6dt5y5G9oaRWPhRLbTs0BadVpXhiOWl0pD+S3/0qXM+3n7iLfRdnmeZ3D0/foSJDS/AZ30HYvLeHBzdNglD3qiPp2/tiWFLMlF+0Xk/jn3/HN579378tcsCfLlTnW/yFKzpcxFuv+wGXPjQjxizk58NcQJpy79A3zv/ilfvewm9lmRjt8nHlakz3TwMP35dF7W7jsM7i5WpP6Ui7UcMbVgHf/k/V+DeluOxWD1mS5GL9ClvocPbtfFfLb5GoxX0yftRsrQJ2j79OC67ZQS6zEhTZ12KsmOzMeG12nj5mqvwztBVWHSiDIVHf8G6L19A317t8eXGEhyxBOQge/MPGHjHa2h4Qzd8+3MScrJWYsnYrri6/lC8PHwrjonJFQgEAkEcQEyumNwIUCt5vWlXw8tPx+GdG7F4VAe0f6Em6lxTE7WvugpXMR78AE8P3IB1vPRIFBxC8pRH0OvD2/Bk1+UYu71iPwqROulVdHv7v1CrzUB8sDQb+SftvLydggPTBmHYjY+jfbORmJzGqgocWYTlXa9Gn/avov/qXOtjy/b89DEmNboY3QYMweQNB7Fzdic0ebsurnp7Mibt0iZMPXi2fIHPOzbGfzWegk6/5qHg8GSsGnAJbnv5SVzZfQuWZ5Vnlh2eiTlNLkW7d59B76VZ2Ka8awTYq+3DMee7Brii52TU/YX2XvU/bQoG1XsXf/tzU7zRdwP2lWcDm3piVO+n8fd236PeslMoSN2E4xPuxqfNHsLTvTdj1sGKPKTi0HcPoe2b56NWp7HotqkAZUWZyE7chIOHE6GeR1SgEFl7fsK4e99Gh2s/w4jFh5GlTO7P47rh2gZf45XvxOQKBAKBID4gJldMbgSolby+tRfvQOK0jzGg5bt495138PZbb+HVZx7CAw3eQYMpSzFPuavCjK3YPeRWdGlxGxpO3YaF9pc2bO6B8QPvxQWfDMLLPx3DifJLuRXg7f3YMfo79PtbR3zZYgk2qMeNNrmlGZtxYNxNGDPsZQxcl4uVx20md+BQTFqzD1snfYCGr96Jf7n1ZTzdsAU+btMGbT/6EJ82fgr33PUE/tc1A9FyqjLshydhxZCaeLljPTw3MxU7Kt6UVnBkMZZ1vhZ9276I/sr5bnO+/pgoLVbGdSimfvUuan32A95aqB6cJdnAsYn48uMOuPCeUfho4oHy1wfTuG8bhsnfNMLl3aegyYoCZVp/xrZ+1+DjVo+gyaxDWJVuJSoUo2zNR/iqzwP4S8fv0ZhXiC2cwJ71M9Gvyyfo8FEbtGnTDA3few5PXfgAXryzD75bfgz5yuQuFZMrEAgEgjiDmFwxuRGgVvJWrr0MxSdykXs8A4VFFS9IOKXqigrUz0UozC9A5q/tMKrbdbi8TW+8vTgXKcnrsXvg7WhX/w7UG78F84+Vl1nYPgTTvn4Jl3T4Fq/OOIq8YvsDo9zkbh/9AwZc0BvffrICO9QebaVK0jZh7w//wPdDX8HAtblY5TS5aw9i25QWaP5SLfzT3y/BBZfWRK2aNVGz5uW4/IprcOWVT+PWO0Zg0Lws7EmciOXK5Lb6vClaL8zDvorHV96h+Vjc7mr0bFlucreb2moyucVZwNGJGNj3M1zUYDw6Lzhc/qkH/O/mrzBhSH3U7DYJzVbmIvPAAqzvdjVaNHoE7/94ECvTrESFImBjDwz/8jWc32USmq/IQ2lRMvLXD0O/Ro/i/Bo1UUOdD9+kdkmNC3D+P9+IO+7th29WpaJITK5AIBAI4hBicsXkRoBayVu59kIcWamMX78BmPfzRuyu2Ps7ZP6IdWProVa93nh49FHsS96GQ2PvRc+2t6H+xC2Yd7QiT+HkmnYY2eMGXPBxf7w2M1WZXPt5U8NB7Pz+Gww4vxX6fzgPa5Sf1NczS9OVyf1emdwhFSZXmcPfmdyVu7FlSkvUbfsm/t78S3QdPhFTJ0/G5CnTMOWn+Zi/YC1W/3IYh1JPInXXGCwfcCnafN4MHy8qwH5tchPnYdGnV6NHC68mdwzeWpR3xuT2Vya36QR0WXS44pXG6oH/22CM/6quZXKbrDiJnMPLsWfI9Wj/0SNopEzuitMfqaueOCxrjH5dbsN5nb9H283Hkb1zGn55rw5a1HkCb3YZj0H8qLEpI/HNwI/R8prn0Oi2Xhj161HkyssVBAKBQBCHEJMrJjcC1EreyrUX4djP32Fq0yfxzidD0GltPrIrjpzG/tFY0OdlXPBmDzz0fSqSMg8jZ8kr6NnwdtzZcD6GrqnIQyYODHkMbR/5E25o+zU6rs1DwZkv01KghgwkzxuMUfffgjca9ETHnUDFy2WBA9Mwo1kttGv8OvqtOmF9SkK5yb0IXft/hSmbDmPPkj5o1bwlbvtgEZbYXyZxahX2bfsR09btw+a0U8jdOQYrlclt0a0pWi+wXcn1anI3DMJkZXIv7zkN9Vdxp7qDlEkY0LczLmw4Dp0XHDpzJddmchv9UobitK3Inv4I2r77IO5qvgrjebnawkFs7XELGj/yN9zSfTq+TclCyi+9MfyCf0ez2xpiwuknC3nIXatM/I0v4tUb+mL4sqPIzxGTKxAIBIL4g5hcMbkRoFbyVq5dnePhBfjt+/fx7PttcV/XOZi15QCSkpLK49AmrB5eDx+/dT1qthyoTFwxCoqycGpHfwyu+xyuqvkx3unxKzYl7cfh7aPx9Ss344Wrb8MHg5ZikTKb5e87s3OX4eTeqVgx8EY88cHLuGPwSszdqniO7cKmaZ+h3U3/hVcffg29fs3DBvWY2D29DSbU+ys69foCEw4UIOXgIkxq0gzv3dIGXUetwerUVKQmrsO2kU+iecN7cFuHH/H1phJk7R2LVQMuRPPP3seH8/KwV5vcg3OwoO3l6NbsGfT9JRPb3Ezu5mGY9uUbuKTVADw98RCOZaSgOHEcBvTpgPPqjkH7eYlnTO6mgRjz5du4sNM41F1SgLK8wzi1tis+e+FZ1L6iM5qpZwG7kvZi36qv0Pexq/D8jQ/j0/HbsFk9JtLXf4MJt16EZre/iK5zjmGdOp/0ffOweNBbeOzSf+Cq2zvji6VHUJC+Akt+6Iza732F57/ZgmQxuQKBQCCIA4jJFZMbAWolryftxSnIPbQUc7/vgKb1nkGdhx/EQw89VB4P3oVbH30CN7Tsgc8WbsOadN53CXBiL7ZO7o5OT9XEPbfejDsfuh8P3nM5br73ebz2yRTM/y0DWeqUy06Vf73d71CYhMwD32L4F0/imYdvRZ06iueNzniqcUs0e+rf8VGLF9B7ZR7WZCmTO/VDjHnzX/FJl24YeQDILExH8pLRmPD+a7jn3gdxMzXWuRt31LgZtz7UEi1m7cLaY2U4sWMklvf6LzRs/x4azz6BPeXvEsOJAzMxt8UF6NTwUfRYmoktjjeeWUrL1IM5aQZ+HvgiavzjBvzp0Q54d/xybFs7AkP6tsOf3x6Nj2YfPGNyN3yB0f1ewZ8//R6vz0lHaVmBEroTq7/7CG0euRh33n4b7n3oPtx3ey3cfP8bqNd1HlYeyLNeplGUsho7ez+HFnVqosaND+IOdT4vNmqA99u3wHuP1MY7Lz6HnnN348jBlVg4qh1qvDEQTwz5TT4nVyAQCARxATG5ZzG5WmRQgdo4BDEMWmRQboLmNi0tzWqUX+gGeTbYKcp8fdsQLz15P+65556KuBd1mvVDg4XHkciPmrXjxDokznwFnevfhzr33ot76zyI17uPx/e7lcezKNV/lMk14ySyVw7G5A/vwwsPqtqXe+LFHhMwfkJTLFs+EHP3F2F7+kkcWv4dVgypi0nTp+PnVL6qlTiEYyuH4YN6L+GRhx/Co489jYce7Y8O/fdgv3Vc+fbDP2PXjw3w3eRvMGpzMVIqtBenbcKWMR9g6og+mLmrwPytZ7S6+XtwcP4AtH7vWTz2die8MWEttm1bil/mTUGTYcsxYfPpj0wAEudg+dzBaDRpOb7alF1hfhXSFmLnpKfR9q2K/tz/JN4dOBtTDllvQavACZTtm4QJfd7FIw/cjwceegLPqicU7SfMwuyRbbBMPfGYvSkJyckHsO3XyWg5dD6+WHw48iUlFdAzD/J4JebNmycmVyAQCATnDLTJbd68ecUe7wjDw/nyUQ4UFhZaHo4XLP3C7iET+IMpKK64uPh3Tt5raIPMen2Spjy3IB95g3DroPtPTU21GmQ67hbUSl5P2isairITKMxMwsH9e7Fr1y7s3LnTit1Jx3Ek37KsCvaaIpTlH0Jq0l7s3bMHe/bux6G0XGSVACWKr/Rked8juK1ahYIM5B7di4N7Ve2BFBxIzUZ27jEUFGYgu+AkUtIzcTw5EblpScjOycGJk6qnVmEpyooykHxoL3Zu346tW3dj5550pGSoBwMPl6lnXvnZyFPnkpGVjqwC1YvScu6ykwUozD6GHLU/t5BfVmHTxeNKa/nM81XecaQcPoCDh5JxMCMP+QUqTuTgWGae0qd6atWocyvORV5uBo5l5yE9T52zqj9JIaUnUHLiII4d3os9Vn8OIikjH7n6d4X17KrKy8k4igN7d2H3js3YtG07Nu07hJRjh1CYk4LcgmKlpwiFeTlIyTyB9BNqpg7dWrvnmRuCmDNnjphcgUAgEJwz0Ca3adOmxrXLLc6s59F5OF1vyqkseKGSHi43N9d43C20dvIzErKysmCKjIwMpKenW5GZmWnMcQvm63puTTnZ2dmu+1nvxu1WZw/mpKSk4NAhZXjU1kuNDju3m/bfh7rvE8pI/e6NYhXgyxOKTiAv50w+tWTnFkJ5ujOmleDHj+WpY5nmvlt11nnkKPOmHkAVZTSuKFNmTu0oKixDQU4mjh05jKOpGRbHSfUgK8xV9dSZU4Siohwgfwc2/LoCE6ZswbZDGVAPZRScUH1X55uRpYxj/ikUFyrTqQxvbnYFf24+8hRHcUkZipROvV/H6ZlnZKt6RWxBGVFlevPyClFQpPaVFqoflZnXdapvBUVK/8lClKj7PH3eOQXId/rE0iIUq5wcXZudg+z8knJzXpyGjPX98Ous3pi+ei+2paknC7zbglz1C6L6r8wuSgpRVqjOTdfbwv/MzwR/AfkLNWXKFFx++eVo2LCh9bNAIBAIBLHEzJkzLZNbv359a70qKiqKWMPcwu7hnD6M4earuP9sa+oZL/P7OnvwOA3u4cOHLQ9nynGL016kgj9B33AGXwtBEgZvm3LcgpeYdS2DP5vy3MJe75dbx9GjR3Hw4EEkJycbj7uFk9u7dmUQKxrLmvI6Zb4i8lRYeeX5OmgwmW/vuzu3yrXVZmSU7+PtNFXPBwYjLa38AXa6LkOZvsxEZB2ch8kjRqFjlxmY+esepObnIDOrvDY19fhZzrtcd+T+yL6d1mbLKT/H39fx/vS5n663uPW5lf+ClZ+jIzIykZ1XiuOJm7Bl4psY81VdDJr7G37dn6/MrPrFyjyTSx3GWaiwa2e49z0y+EvFZ4sTJ04UkysQCASCcwazZs2yTG7dunWt9Yov33SuYaaIZk1kOP2AKaeyOHbsGBITEy0vZzruFk7tCfqSrjP4egheLmZT6P5NOW7BS9S6nlv+bMpzC/KRNwi3Dj4TYJNycnKMx92CWskbC+32vrHeLzeD9XxQMXj798dLUHqyACcL0pCiHjj79qu8rHwUl5bgZEl5bRjaua2qvpWUnkIxr9imbMWBPRuwZV8SjmXkoYTHHLluQa3kDaJd/ymGz5hr164tL1cQCAQCwTkB/XKFxo0bW+uSfmleZRHWeq7rTTmVBf9KSg+nLyR5Da1d+wnXN55x4ebrKtiUIND13AYBeYNyE2wuHT1P1i/IGyvtYfSdVz4ZfvUzPwztfnk1ouEmlN/FiawMZXr9v1CdvNFolzeeCQQCgeBcQrRvPIt2PY+mnkaZHi7oG8+0n5CPEHOAWskbC+32vrHeLzfBev1nft72A+aHoZ3bquybRn5+gfqlUDP3+UtBreQNqp2QjxATCAQCwbkE+Qgx+ZzcCFAreWOh3d431vvlJlgfryZXz9zvMz9qJW9Q7YSYXIFAIBCcSxCTKyY3AtRK3lhot/eN9X65CdaLyRWTKxAIBIL4hphcMbkRoFbyxkK7vW+s98tNsF5MrphcgUAgEMQ3xOSKyY0AtZI3FtrtfWO9X26C9WJyxeQKBAKBIL4hJldMbgSolbyx0G7vG+v9chOsF5MrJlcgEAgE8Q0xuWJyI0Ct5I2FdnvfWO+Xm2C9mFwxuQKBQCCIb4jJFZMbAWolbyy02/vGer/cBOvF5IrJFQgEAkF8Q0yumNwIUCt5Y6Hd3jfW++UmWC8mV0yuQCAQCOIbYnLF5EaAWskbC+32vrHeLzfBejG5YnIFAoFAEN8Qk6tMLsWYguL4tWr8HmBtPLyGbg7r9Uma8tyCfOQNwq2D33ucmppqNch03C2olbyx0G7vG+v9cnO4rE9PT7eCt7nPlGsK5oehnduq7JsOPXNuTcfdglrJG0S7xuzZs1G7dm0xuQKBQCA4J6BNbtOmTU+vV841zBRhree63pRTWfBiFdfznJwc43G30Nq1n0igGFNQHJ10YWHhaePhNXRzWK9P0pTnFuQjbxBuniCDjUlJSbEMj95nyncGtZI3FtrtfWO9X24OmPX8vmcGb3OfKdcUzA9DO7dV2TfnzLmtqplrzJo1S0yuQCAQCM4ZaJPbpEkTaz0kTOuYM8Jaz3W9Kcct9NrNC5Rcz7Ozs32v5+TUfkJMriOolbyx0G7vG+v9covJFZMrEAgEAgEhJleZXJogU+hEbThMOW5BMbqeW/5synML8pE3CLcOebmCvFzBa1AreYNo15CXKwgEAoHgXIK8XKFY3njmBLWSNxba7X1jvV9ugvXyxjN545lAIBAI4hvyxjP5dIUIUCt5Y6Hd3jfW++UmWC8mV0yuQCAQCOIbYnLF5EaAWskbC+32vrHeLzfBejG5YnIFAoFAEN8QkysmNwLUSt5YaLf3jfV+uQnWi8kVkysQCASC+IaYXDG5EaBW8sZCu71vrPfLTbBeTK6YXIFAIBDEN8TkismNALWSNxba7X1jvV9ugvVicsXkCgQCgSC+ISZXTG4EqJW8sdBu7xvr/XITrBeTKyZXIBAIBPENMbliciNAreSNhXZ731jvl5tgvZhcMbkCgUAgiG+IyRWTGwFqJW8stNv7xnq/3ATrxeSKyRUIBAJBfENMrpjcCFAreWOh3d431vvlJlgvJldMrkAgEAjiG2JyxeRGgFrJGwvt9r6x3i83wXoxuWJyBQKBQBDfEJOrTC53mIIH+b2/9pP0GvoEWc8tfzbluYVubhBuHWyMNjym425BreSNhXZ731jvl5tgvTa5vE2Yck3B/DC0c1uVfdOhZ86t6bhbUCt5g2jXmDNnjmVyGzduXLFHIBAIBILYYcGCBda61LRp09PrlXMNM0VY67muN+VUFrxAyfU8NzfXeNwttHbtJxIoxhQUV1hYiKKiotPGw2vo5rBen6Qpzy3IR94g3DxBBhuTkpJiGR69z5TvDGolbyy02/vGer/cPEfWp6WlWcHbXs+bwfwwtHNblX3T89Uz51bvM+U7g1rJG0S7xqxZs6xnzI0aNarYIxAIBAJB7DBv3jxrXeLFF66HhGkdc0ZY67muN+W4hV67eYGS63lOTo7v9Zyc2k8kUIwpKI5OmpeMtfHwGro5rNcnacpzC/KRNwg3T5CRnZ19ukF6nynfGdRK3lhot/eN9X65+SBgvTa5vM19plxTMD8M7dxWZd+cM+e2qmauMXv2bJx33nnWPyidOnVCly5dqjS6du1qhenYHzl4zt26dYvbc5eZm3P+qCEzl5n7iRdffBH/9E//ZF18oQEkTOuYM8Jaz3W9Kcct9NqtL1plZWX5Xs/Jqf1Egi52hhapT9CU4xYk0vXasJjy3EKLDMKt3TzNrb6qZ3f4lQW16gZVtXZ731jvl5uGlvXa5PI295lyTcH8MLRzW5V9c86c26qaucaqVatw33334fzzz8cll1xS5XHxxRdbYTr2R44aNWpY582t6fgfOfS5m479kUNmLjOPp4hm5hdddBH+9re/oW/fvtaf8gnTOuaMsNZzXW/KcQu9dvOv8Pqild/1nJzaTyQ4X8+gg8kUygLeuSnHLbSx0maFP5vy3IJ85A3CrYMNSk1NjavX5DJYn56ebgVvm3LcgvlhaOe2KvumQ8+8ql+Tyy1fO7Rw4UKMHz8eI0aMwHfffec5vv32W3zzzTfW1nS8smDdwIEDrfB7H8zXMXz4cGPO2YJ1QbWTLxpuxtChQ9G/f38MGTLEePxsEUvt0XAzWPfll18GmnkstUfLzYjXmZOzus88SD1Dz/yrr74yHj9bhKW9qvvGICdnPmDAAN/3wdpRo0Zh0qRJ2Llzp7VWEc41zBRhree63pRTWfAqMNdzXqg0HXcLrV37Cfl0BQeoVTeoqrXb+8Z6v9wE6+XTFar20xWC6g0T1HAu6IgFOLd4BB+nMvP4gsw8/sCZ+13Lo4XmjHY91/VBwKvA+o3kfqC1az8hJtcBaiVvLLTb+8Z6v9wE68XkVr3JDao5LPCc/Z73HwGcl37dfbyB/7bJzOML8T5z/hsdb+DM/Rq9aBHWeq7rg0BMbiXgPwRicsXkegG1kldmXv1mzt/veJ15ZmZmoJmHpb2q+6YRrzMnp54578MPwtIebd9YHwR65kEMD3mr+8z1yw/9ICzt0fRN1weBmNxKICZXTK5XUCt5ZebVb+ZicsXkegW1kre6zpycYnLF5HpFWNqj6ZuuDwIxuZVATK6YXK+gVvLKzKvfzMXkisn1Cmolb3WdOTnF5IrJ9YqwtEfTN10fBGJyK4GYXDG5XkGt5JWZV7+Zi8kVk+sV1Ere6jpzcorJFZPrFWFpj6Zvuj4IxORWAjG5YnK9glrJKzOvfjMXkysm1yuolbzVdebkFJMrJtcrwtIeTd90fRCIya0EYnLF5HoFtZJXZl79Zi4mV0yuV1AreavrzMkpJldMrleEpT2avun6IBCTWwnE5IrJ9QpqJa/MvPrNXEyumFyvoFbyVteZk1NMrphcrwhLezR90/VBICa3EojJFZPrFdRKXpl59Zu5mFwxuV5BreStrjMnp5hcMbleEZb2aPqm64NATG4lEJMrJtcrqJW8MvPqN3MxuWJyvYJayVtdZ05OMblicr0iLO3R9E3XB0FoJpdiTEFxRUVFv/vuYq+hm8N6fZKmPLcgH3mDcPMEGWwMv/eY/xDqfaZ8Z1AreWOh3d431vvl5jmynr8QDN72et4M5oehnduq7Juer545t3qfKd8Z1EpemXn1mzl/v+Nx5uSk2Qky87C0y8zNeaaw9431frl5juSs7jNnvSnHLfR89cxzc3NP7zPlO4NayVvdZ56Wlmbdh9fzZoSlPZq+6XpTjlvo+fKJTdCZk1OfewLFmILi6KQLCwtPN8lr6OawXp+kKc8tyEfeINw8QQa/AjAlJcVqkN5nyncGtZI3FtrtfWO9X24OmPX8hWDwNveZck3B/DC0c1uVfXPOnFuZuTnfGcwPQzu3Vdk3PV/+fsfjzMnJefNKB+/Lz8zD0i4zN+eZwt431vvl/qPMnPWmHLdwzjw7OztuZ877qG4z1/WmHLfQ8+WT2KAzJ6c+9wTuMAUP0knbT9Jr6BNkPbf82ZTnFrq5Qbh1M0wm15TvDGolbyy02/vGer/c/AVgvTY8vM19plxTMD8M7dxWZd+cM7cvfqZ8Z1AreWXm1W/mJsNjyncGtZK3us6cNc7Fz5RrirC0y8zNeaaw9431frk5X3LqmfN2dZw56005buGcud3wmPKdQa3k/SPMnPdR3Wau6005bqHnazK5pnxnaO363BN0sTN0om6OKcct6KZ1Pbf82ZTnFuQjbxBuPggY/KXQf9LS+0z5zqBW8sZCu71vrPfLzcv5rNd/uuZt7jPlmoL5YWjntir75pw5tzJzc74zmB+Gdm6rsm96vvz9jseZk5Pz5gLI+/Iz87C0y8zNeaaw9431frn/KDNnvSnHLZwz5xObeJ0576O6zVzXm3LcQs9Xv0QlyMzJqc89gU0zhU7UzTHluAXF6Hpu+bMpzy3IR94g3BpsEJ/98JmEhinfGdRK3lhot/eN9X65CdbzNTz2NyeYck3B/DC0c1uVfdPQM+dWw5TvDGolr8y8+s2cv9/xOHNyOt+EZMo1RVjaZebmPFPY+8Z6v9wEOav7zFlvynELDT1zml0NU74zqJW81X3mNLq8D8KUa4qwtEfTN11vynELDV6FDTpzcupzl09XcIBadYOqWru9b6z3y02wXhse3vYD5oehnduq7JuGyeR6AbWSV2Ze/WZuMjxeQK3krc4z14aHt/0gLO1V3TeNeJ05OZ0m1yvC0h5t31gfBCaT6wXUSt7qPnOaXN6HH4SlPZq+6fogMJlcL9Da9bmLyXWAWskbC+32vrHeLzfB+ng1PGJyxeR6BbWStzrPXEyumFyvCEt7tH1jfRCIyRWT6xVauz53MbkOUCt5Y6Hd3jfW++UmWB+vhkdMrphcr6BW8lbnmYvJFZPrFWFpj7ZvrA8CMblicr1Ca9fnLibXAWolbyy02/vGer/cBOvj1fCIyRWT6xXUSt7qPHMxuWJyvSIs7dH2jfVBICZXTK5XaO363MXkOkCt5I2FdnvfWO+Xm2B9vBoeMblicr2CWslbnWcuJldMrleEpT3avrE+CMTkisn1Cq1dn7uYXAeolbyx0G7vG+v9chOsj1fDIyZXTK5XUCt5q/PMxeSKyfWKsLRH2zfWB4GYXDG5XqG163MXk+sAtZI3FtrtfWO9X26C9fFqeMTkisn1Cmolb3WeuZhcMbleEZb2aPvG+iAQkysm1yu0dn3uYnIdoFbyxkK7vW+s98tNsD5eDY+YXDG5XkGt5K3OMxeTKybXK8LSHm3fWB8EYnLF5HqF1q7PXUyuA9RK3lhot/eN9X65CdbHq+ERkysm1yuolbzVeeZicsXkekVY2qPtG+uDQEyumFyv0Nr1uYvJdYBayRsL7fa+sd4vN8H6eDU8YnLF5HoFtZK3Os9cTK6YXK8IS3u0fWN9EIjJFZPrFVq7PncxuQ5QK3ljod3eN9b75SZYH6+GJ5YmN6jmsMDv8WfEGzizrKws6+sj4w38x19mHl+I95kXFRVV7IkfcOY5OTkVP1UNwlrPdX0Q/I+bXJ0YdPHW9X6boxGtcaC5TUtLsxrlF+SNlfYw+s5nfgy/+pkfhna/vBrRcBN65n6f2BDkDao9Gs2C6MG5CeILMvP4QzzPPOiaGg3CWM+jqS8sLLTWc78XrQhyaj+RwDsyBY0CHTQJaBRNOW7BfF3PrSmHz8jc9rOevCZutzp7MIcmLzk5+fSzP1OeKTT32bSfLc6mnUEtJj16n1vf3ersweOsT01NtYK3K6uxB/PPpv1swXytnVtTjpsW7j9b37ycA3P0zLn1c96aO8jMeTWJv8js94oVKzBnzhxMmzbNc0ydOhVTpkzBpEmTMHnyZOtnU97ZgvWjR4+2grdNOW7BfPIG4bZr5zZIfVBuHePHj8fIkSMxbtw443G30Nyx0M583beg587677//PtDMw9Je1X3TEa8zZ42eOe/DlOMWYWmPtm+sN+VUFnrmY8eONR53C81d3Wc+atQo6z5MOW7B2h9//BHz5s3D3r17rTWRVzZN65gp7Ou5yQ+4rbHcf7Y1lccrW595PDs7+/R6bspxC3KTU/uJBDplU3DRTklJsYK3TTluwUvMupbBn015bmGv98ut4+jRozh48KC1NR13Cye3X+3R9s1e75ebwfpDhw5Z4Zc/Wu26Noh2e71fbh1hzNyvdv4C8k8yS5YswaOPPoqaNWvi8ssv9xzMd4Yp72zBmksvvdQKv/V23mhro6035VQWl112GS655BJrazruFk5uv/xh1vqtZ7BGZi4z9xp23mhro6035VQWMvPgM2fPevfubb2EkQbQtI4541xYz2lwExMTo17PE/Rr+ZxBF80FnFdCeduU4xZ8/QjrdD1/NuW5ha4Pwq2DJ5qUlGRtTcfdwq6d3H61syaodnKxJmjfGKzng4Lhlz9a7ayr7jP3q53PFHkll8+Y//rXv+Liiy/GBx98gBYtWniOli1bng7T8cqCda1atbLC732EwR1GvemYl2BtkPNmaO6g/GHURlMfdOaMaLnDqDcd8xKsjceZM6r7zKOpl5n7vw9eeElISECDBg2sq6r8y6NpHXNGWOu59lGmnMqChjWa9VyHvPHMAWolbyy02/vGer/cBOvljWdV+8Yzgi9TqFWrlvWPid++CwQCgUAQNmbOnGldzW3atGnFHm8Iaz3X9UHAq85cz2nO/UBr137C1eRqkUFOkND1QQyLFhmUm6C55TMBNsovdINiod3e9yBgPZ89MfzqZ34Y2v3yEmHO3O8TG4K8QbUTc+fOxRVXXOH7HxOBQCAQCP4nsGjRosDrUhjreTRrKl9fy/Xc70UrgpzaT8iVXAeolbyx0G7vG+v9chOslyu5VX8lV5tcXsnl/QgEAoFAEEvMmDHD+gtjs2bNKvZ4Q1jrua4Pgv/xK7n6BIOYjrAaFIRbQ0yumFyvoFbyBtVOiMkVCAQCwbkEMbliciNAreSNhXZ731jvl5tgvZhcMbkCgUAgiG+IyRWTGwFqJW8stNv7xnq/3ATrxeSKyRUIBAJBfENMrpjcCFAreWOh3d431vvlJlgvJldMrkAgEAjiG2JyxeRGgFrJGwvt9r6x3i83wXoxuWJyBQKBQBDfEJMrJjcC1EreWGi39431frkJ1ovJFZMrEAgEgviGmFwxuRGgVvLGQru9b6z3y02wXkyumFyBQCAQxDfE5IrJjQC1kjcW2u19Y71fboL1YnLF5AoEAoEgviEmV5lc7jAFD/J7ju0n6TX0CbKeW/5synML3dwg3DrYGG14TMfdglrJGwvt9r6x3i83wXptcnmbMOWagvlhaOe2KvumQ8+cW9Nxt6BW8gbRrsGv9RWTKxAIBIJzBXaTq9cr5xpmirDWc11vyqkseIGS63lubq7xuFto7dpPJFCMKSiOX6tWVFRkJZpy3EI3h/X6JE15bkE+8gbh1pGTk4OUlBSrQabjbkGt5I2FdnvfWO+Xm8NlPb8Kj8Hb3GfKNQXzw9DObVX2TYeeObem425BreQNol1j1qxZqF27tphcgUAgEJwT0Ca3SZMmp9cr5xpmirDWc11vyqkseLGK63l2drbxuFto7dpPJFCMKSiOTpqXjLXx8Bq6OazXJ2nKcwvykTcIN0+QwcZow6P3mfKdQa3kjYV2e99Y75ebhpb12uTyNveZck3B/DC0c1uVfXPOnNuqmrnGzJkzxeQKBAKB4JyB3eRyPSSca5gpwlrPdb0pxy302s0LlFzPs7KyfK/n5NR+Qq7kOoJayRsL7fa+sd4vt1zJlSu5AoFAIBAQciW36I/9mtzU1NS4ek0ug/Xp6elW8LYpxy2YH4Z2bquybzr0zOU1uQKBQCCId2iT27Rp09PrlXMNM0VY67muN+VUFrwKzPU86tfkWmdtgBapT9APSKTrtWHxAy0yCLeGfLqCfLqCV1AreYNqJ+TTFQQCgUBwLsH+xjM/CGs91/VBwJca6DeS+4HWrv2EmFwHqJW8sdBu7xvr/XITrBeTKyZXIBAIBPENMbliciNAreSNhXZ731jvl5tgvZhcMbkCgUAgiG+IyRWTGwFqJW8stNv7xnq/3ATrxeSKyRUIBAJBfENMrpjcCFAreWOh3d431vvlJlgvJldMrkAgEAjiG2JyxeRGgFrJGwvt9r6x3i83wXoxuWJyBQKBQBDfEJMrJjcC1EreWGi39431frkJ1ovJFZMrEAgEgviGmFwxuRGgVvLGQru9b6z3y02wXkyumFyBQCAQxDfE5IrJjQC1kjcW2u19Y71fboL1YnLF5AoEAoEgviEmV0xuBKiVvLHQbu8b6/1yE6wXkysmVyAQCATxDTG5YnIjQK3kjYV2e99Y75ebKFP1QU1umeIrK+P3PyvuAH0nt9W3ILVR9E1DTK5AIBAIBOUQk6tMLsWYguKKiop+993FXkM3h/X6JE15bkE+8gbh5gky2Bh+7zENj95nyncGtZI3FtrtfWO9mbtikm4oOYn0tDSkqThZYkpWPXLeZ8WRM1B7lNE1Uv2uVj2gKnZbOFWKokLVs4ofK4XtvsKcObdVNXONOXPmiMkVCAQCwTkDbXKbNm1qrYeEaR1zht2LROODdL0pxy302s0LlFzPc3Nzfa/n5NR+IoFiTEFxdNKFhYWnjYfX0M1hvT5JU55bkI+8Qbh5goycnBykpKRYDdL7TPnOoFbyxkK7vW+sd3KXVpjKshMpyEzcht3bt2LrVsYObN12FEfTilCoLGZWTiYy0tOV4cxDUU4KUhL3Yd+eIziSmov8EtUH9oP3yZ6oKDuZr/KScejAbuzYk4jE1Bzk0qwWn0BB1iEcTTyExEO5yM5X+8p0PXuq+lOQjYwj6Th2OAuZJwpQUHgC+dmpOH5oPw7s3okd27TGitimtBzORG6JetDyf8pMU0uYM+e2qmauMWvWLNSuXVtMrkAgEAjOCWiT26RJE2s9JEzrmDPsXiQaH6TrTTluodduXqziep6dne17PSen9hMJ3GEKHqSTtp+k19AnyHpu+bMpzy10c4Nw62aYTK4p3xnUSt5YaLf3jfVnuNXglKksRy6OL+uHMc3uxNN1bsfttzMexu139kD7wTuwSz2TyT6Vj7wT2Sg6cRAHF3TDoHqP4vlHW+Ojr1ZhfTaQz2dFpapXastA1jYcmv8ZPq37CB54rQXaTt6ODVnqGVXWJhyc3RCd33kXb9afi8kbshS7ejZl1as4dQwn9i/BlI9/QL8PFmHZrjTklSYjec0YjGz8Gt544F7cc+ftuMPSyLgDt9/xJt5qOQlzDhaq+1I4VaL+H+7M7SbXlO+MaGauISZXIBAIBOcSTCbXuYaZwu5FovFBut6U4xZ67TaZXFO+M7R27ScSdLEzdKI2HKYct6Cb1vXc8mdTnluQj7xBuPUla5pb/adr+2XsyoJayRsL7fa+sf4MN82oenSe2IeUtQMxqOPjePyxW3H/Q4/i0UcZT+DR2+vhqedGoNXw3ZhHswlVX7ADvw15BE0uScBf/p8rcF2D8fh67ykc52P9VKl1VZhRvGchlne4Gw9dlICEmlfjjj4rMSdVHUhbgm2D/o77//T/QcI/v4FXR2zHZn3xkoU4iJzfRuPzmz/Cy7VGYPzaZORjP/ZO64APzr8Etf75Ulx518O4z9LIeBiP3vsg7ru3GV5sPx/j1x0vN7rguasHZ8C+OWfObVXNXGP27NlicgUCgUBwzsD+cgWuh4RpHXOG3YtE44N0vSnHLfTazZeacj3nRSu/6zk5yc+QN545QK3kjYV2e99Y/3vuUmSuHY4xja/Hba+/gbu/XoGFO5ORnMzYieTVI9D93da48toeaDToV+w8WYbik/uw7etn0OO+BDzz4J24rfVYtJ6XiX3lzrIC+Tj6y2z88NZTeO/OBNz2xs146ts1mJOiDmWsxO5hNfFK7QT8//6zFq5qPAkjN6kHT3mhQhLyto9Dn3s64u0bfsCUTSnq2H7smdIDrWo8jVce6IFhqw9jm6WRkYjkrRMx+qMGuOaq1/H4x9MxL70M+dZpqgdwwL5pyBvPBAKBQCAoh7zxTD5dIQLUSt5YaLf3jfVnuEuUF92GFYM64onLnsQtDb7DoCTYzCZxGBtHfIgmD12Dp9r0wTe7TiIj9wB2f/Mchr35n/i4XUM8+ckkNOz/GzYm6Z4oM1ayE2t+/BGfvNQGbV86D8073Ya3xqzFrKNKz/GV2DPianz63n/jmnsfxFWXt8ZHnyzBbxnqAWjVH0HBjono98BnqHvLOEz7LbXC5PZF25pvouFLP2B+Fu2rHZlIWdgT7Z6vgevqNsfbi1Kwp8J0n1LnHsbMxeQKBAKBIN4hJldMbgSolbyx0G7vG+tPc5fmoHhHPwxu+Qb+84YBeG/IPqSXH/kdSg5OxJYpL6PXiK8xYnMB0jL2YsfQpzG8+aXo/m1v1GvwAz58YRwWrkmB1ZVTyl2mTMSMCaPx5gej0a35zejX42Y0GLsKPx1Rh5OXYrcyuT173Yc3Pv4CTW5+E41e/RyfrC3ANsvHHcHJnRPxhdPkTu2Dtpe/ivee+RpTD5ZEak1ZgD1j7saDH7yNy79YjyVJ5aZQTK5AIBAIBOFATK6Y3AhQK3ljod3eN9afpi5MQdqsF9C+xXU4r9V4dPzF5ZxohnP2Y9/BA0jKKUBBzi5s+vIJDGtzLbpPGo72r32BLte2wahpO7GT+UUpKF3VBeO/H4D6w5ZiSM/H8W23G/H+DyswnSb36CLsGn41OvWpixajl2HOV+3QsdMHuHHQKozdQyOXitLdkyOv5NpM7pQDJ5FGLjsKdiB/ZVe80ro9Lvt4IX7aW34p9xQ/ozeEmYvJFQgEAkG8Q0yumNwIUCt5Y6Hd3jfWa+pT+UdxePx96PFpLTwyfBFG7inf74aigiLFXYCTuTuwfsCjGNL6bnSfPh/DOn6Cr5+9A5+NWIjZ2Sovaz+Ojm6B7wf3Q68lWzB95EsY3vkGNBy9vMLkLsSub6/Gp90bou2CROxInIcZfd7A43e/hW7frcehsnzk7/kRgx7q7M/kFh9AyaaReKdtH9RqNQfTdmdZu8XkCgQCgUAQDsTkismNALWSNxba7X1jvaa2TO6E+/FF+6vw4qilGLevfL8b8k/koaS0wuQOfASDmj+IntM3Yv7M3pg64A68PHwK+u8vQNbeNVjWrC0GtR6JKVv3YPlPr+DrTjeg/ihtchcpk3sVPu3yJlosTsOWwgwkj2uN726/Hu80/wHf7ElH8s6fMPzJrqjnx+Tm7UTu8i/w+oefoXbruZi+RzluBTG5AoFAIBCEAzG5YnIjQK3kjYV2e99Yf5q6IBnJUx5Bhza1cGWv6eizyd1EsSQrKxv5xQUoViZ3gzK5A5vUQa8fN2PL5sVY+lM73DHwJ7T6ZQMOLZuAofd9ho9eX4CFBw5g66IXMaTjDag30m5yr1Qm9zU0m5eFTeqxVnZ0LnYO+xAPvz8QL343H2vWjMewZ3ugwa3jMN2ryc1Yh+QZH+C5Bh+iVpv5+FFeriAQCAQCQagQkysmNwLUSt5YaLf3jfWnuU9m4MTq1uje/BH86yPD0WzCcX4uQiSKE1F0YA5m/bIC85RxzMrcia1fPYqB79+JnjN+w/aM49ixbDrqvjkZXToOxsIfP8Nzbw7Ey+0OYEvyYSQvfA5fdbgBdQ0mt8nMdGzIIEkmChN/wicfvoXnm76G3qMHoPU9X6D57eMxc3MqCr2Y3OOLcWDM3Xio4au4uMtyzE0s/5wImtwwZi4mVyAQCATxDjG5YnIjQK3kjYV2e99Yf4a7EEhbgJ+6tsH1FzfFox/Nx2J1Wr9XVoCctSPxU8+3Ub/HcPRedwIpGbuxa+ij+LLh7egxczM2oAzHNyzG2Ds7ouf1T6Jll2dwed/RqLukCGmZx3Bi1lMYrEzuewaT23RmKjZUfEzCqRM7sHHYc+hdvwaeefVN3HL+J3jvromYuT0NxadN7uuo//wIzDzGT+K14yTyNw3HuLaX4Jb338F94/djY1r5mcinKwgEAoFAEA7E5IrJjQC1kjcW2u19Y/0ZbrUty0HirC/w2cNX4apXW+KlhWk4cNpLqQdR5s+Y3KEh7rz2WTzceiymHitFzom92D74EQxscAu6z9iCtSqz4MASLHn3Xrz5b/+Ky268FLf1/RGjjisbnZ+BrOmPY1D76/Hu70zuFfjks1fRZGYKNuhLsqfyUHxwNBZ2rYMnzrsI//xPj+P2e6Zg0q4sZaOVyZ3SB21qvo56JpNbtB7Lv/oQ911zjzK5gzFkbyHSrfMoQ1nAvmmIyRUIBAKBoBxicsXkRoBayRsL7fa+sd7JXZr8C7ZNqIvGTR/Bbe82RfMO3dG9O6MDun/wHl549H3c9upwdJm0FYeVaTyZvwPre92OXq/XQocpv+HXYnUfmauxe+gteOjf/xkJCXfh1X6rsFvJLDuZjuTxd6FPq0vw0tdLMfGw0pM0F9sH/Q0ffvwk3p2ajDXKDJ9BGpIX9UTv28/HvyT8A/9x3Vh8uy1T7T+A/VM6ofl51+GW8x/BC6264lNLI6MLun/UAO8+VQ+3PT8EnSfswGH1+OdZnjol33gmEAgEAkFYEJMrJjcC1EreWGi39431EdynTqKscC+2TmyGz565CDddfgkuuYRRE5dc9ASeaTQG32/OwY6MQhSVFKAkbzc2f/sKvm39CAbO24E1/JqyooMo+KUd2j75Gq66YRC6/3QI1gd4labj2IzXMbznA/hg/BrMST6FU8d+wd4xd6P7F43wyfzj2Oz4VodT6Suwc1QjvHhrfdz8xE8YvyNTaT6Co4v7o8e9N+GW8y7AhRfXQA1LY0VcfC/qPDcAg39NxcGiM/0Jc+ZicgUCgUAQ7xCTq0wufzBFcXExCguVWSoqOi3Ua/COdT23/NmU5xbkI28QbjaXkZubi9TUVKtBep8p3xnUSt5YaLf3jfVObm39So+uxc7ZwzDm26EYOpTxDYYOm4n5q4/gmHo8ZRfm40ROJooL0pGx+xfsWrsA25MykFqs7qMkT5nTbdi0bA1mzk7E9iP5OFmm9pfmI+fAz9ixaQ5W7knGoVzFnZeM7H1zsXnrSqxPykd6gdaiekkxZdkoTtmIlfNWY+bCg9iTlqf0ZyP3yGZsnjcN038YgeHDhuJrS2NFfD0FUxfswuHC8nNRxOr/4c6c26qaucbs2bNRu3ZtMbkCgUAgOCegTW7Tpk2t9ZAwrWPOsHuRaHyQrjfluIVeu3mxiut5Tk6O7/WcnNpPJFCMKSiOV0HpprXx8Bq6OazXJ2nKcwvykTcItz5RNiYlJcUyPHqfKd8Z1EreWGi39431EdxqeCUlatjWQ9WMspNFSFfPfvgMqKjIbrbKcKqE96GeYVXsKYd64Fj3rZ7YqDu27rv0pHU/J5WHO8Olns2p/Wf0KC2lp36nhTX5+apnXp64nVIz4flU3F+YM+e2qmauMWvWLDG5AoFAIDhnoE1ukyZNrPWQcK5hprB7kWh8kK435biFXrt5gZLreXZ2tu/1nJzaTyTQ9ZpCi9QnaMpxCxLpem1YTHluoUUG4dbNMJlcU74zqFU3qKq12/vGejO3Opez/OWgpFiZ3LQ0pKkoKiq29lnpvGJaUa987hlos0mTW3LKMsGlJ5VuBq/Yai7riqtdhwr7cWV3yV1QoM5buePK/rihPxNX31eYM7ebXFO+M6KZuYaYXIFAIBCcSzCZXNM65gy7F4nGB+l6U45b6LXbZHJN+c7Q2rWfSNCXgZ2hE7XhMOW4BcXoem75synPLchH3iDcfD0Ggw3ipW5e8tb7TPnOoFbyxkK7vW+s98vNc2R9enq6Fbzt9bwZzA9DO7dV2Tc9Xz1zbvU+U74zqJW8QbRrzJkzR16TKxAIBIJzBvaXK3A9JEzrmDPCWs91vSnHLfTazavA+uWHftdzcmo/IW88c4BayRsL7fa+sd4vN8H6jIwMK3jbD5gfhnZuq7JvGvLGM4FAIBAIyiFvPJNPV4gAtZI3FtrtfWO9X26C9WJyxeQKBAKBIL4hJldMbgSolbyx0G7vG+v9chOsF5MrJlcgEAgE8Q0xuWJyI0Ct5I2FdnvfWO+Xm2C9mFwxuQKBQCCIb4jJFZMbAWolbyy02/vGer/cBOvF5IrJFQgEAkF8Q0yumNwIUCt5Y6Hd3jfW++UmWC8mV0yuQCAQCOIbYnLF5EaAWskbC+32vrHeLzfBejG5YnIFAoFAEN8QkysmNwLUSt5YaLf3jfV+uQnWi8kVkysQCASC+IaYXDG5EaBW8sZCu71vrPfLTbBeTK6YXIFAIBDEN8TkismNALWSNxba7X1jvV9ugvVicsXkCgQCgSC+ISZXTG4EqJW8sdBu7xvr/XITrBeTKyZXIBAIBPENMblnMblaZNBFX9cHMSxaZFBuguY2LS3NapRf6AbFQru970HA+szMTCv86md+GNr98hJhztzvExuCvEG1E/PmzROTKxAIBIJzBtrkNm/evGKPd4SxnkezphYWFlrrud+LVgQ5tZ9IoBhTUFxxcfHvnLzX0M1hvT5JU55bkI+8Qbh10P3rq3qm425BreSNhXZ731jvl5vBen0ll7dNOW7B/DC0c1uVfdOhZ86t6bhbUCt5g2on5syZIyZXIBAIBOcM7Fdy9VrlXL9MEdZ6rutNOZUFL1ZxPc/NzTUedwutXfuJhOzsbJiCVwK1WeJtU45bZGVlna5l8GdTnlvY6/1y60hNTcXhw4etrem4Wzi5/WqPtm/2er/cDNYfOXLECr/80WrXtUG02+v9cusIY+Z+tfMXkL9QU6ZMweWXX46GDRtaPwsEAoFAEEvMnDnTMrn169e31quioqKINcwU58J6ToPL9TwlJcV43C2c2hN4OdgUJKBZYPC2Kcct7LUMU056evpZ97txu9XZgzlHjx7FwYMHra2XGh3RnDejsnpqMenR+9zq3ersweOsOXTokBW8XVmNPdy4vYS9lmHKcdOi97txezkH5oQxczftbsFfKD5bnDhxophcgUAgEJwzmDVrlmVy69ata61XfPmmcw1zC/uaaPID0aznla3PPJ6cnIzExERrPTfluIVzPU/g5WRT8PUQvFzMpvC2Kcct+GyBdbqeP5vy3ELXB+HWQUd/7Ngxa2s67hZ27eT2q501QbWTizVB+8ZgPYfM8MsfrXbWVfeZ+9VOg8s/kfAZc+3ateXlCgKBQCA4J6BfrtC4cWNrveLLCJxrmCnCWs+1jzLlVBY5OTnWes4LSabjbqG5dbi+8YwLNxvC1zcEga7nNgjIG5SbYHPp6tlgvyBvrLSH0Xf+eYDhVz/zw9Dul1cjGm5Cz5xbvyBvNNrljWcCgUAgOJcQzRvPwljPo6mnWeV6HuSNZ+TUfkI+QswBaiVvLLTb+8Z6v9wE6/VrUXjbD5gfhnZuq7JvGnrmfn8pqJW8QbUT8hFiAoFAIDiXIB8hJp+TGwFqJW8stNv7xnq/3ATrxeSKyRUIBAJBfENMrpjcCFAreWOh3d431vvlJlgvJldMrkAgEAjiG2JyxeRGgFrJGwvt9r6x3i83wXoxuWJyBQKBQBDfEJMrJjcC1EreWGi39431frkJ1ovJFZMrEAgEgviGmFwxuRGgVvLGQru9b6z3y02wXkyumFyBQCAQxDfE5IrJjQC1kjcW2u19Y71fboL1YnLF5AoEAoEgviEmV0xuBKiVvLHQbu8b6/1yE6wXkysmVyAQCATxDTG5YnIjQK3kjYV2e99Y75ebYL2YXDG5AoFAIIhviMkVkxsBaiVvLLTb+8Z6v9wE68Xkxs7kNmzYMLB+gUAgEAjCwqxZs8TkUowpKE5/X7E2Hl5DN4f1+iRNeW5BPv09xH65deTm5iI1NdVqkOm4W1Cr/v7jqtZu7xvr/XJzuKxPT0+3gre5z5RrCuaHoZ3bquybDj1zbk3H3YJayRtEuwb/Maldu3agr08UCAQCgSBsLFu2DFdeeSUaN258er1yrmGmCGs91/WmnMqCF6u4nufk5BiPu4XWrv1EAsWYguLopAsLC08bD6+hm8N6fZKmPLcgH3mDcPMEGWxMSkqKZXj0PlO+M6iVvLHQbu8b6/1yc8Cs5/c9M3ib+0y5pmB+GNq5rcq+OWfObVXNXIMm96KLLsKjjz6K5cuXY/Xq1VUaa9asscJ07I8e8XzeMvP4Cpm5+dgfOaKZec+ePfHnP/8ZjRo1stZDwrSOOSOs9VzXm3LcQq/dvEDJ9Tw7O9v3ek5O7SfE5DqCWskbC+32vrHeL7eY3NiZ3MWLF+PSSy/Fv/7rv+K6667D9ddfX6Vxww03WGE69kePeD5vmXl8hczcfOyPHNHM/MILL0RCQgLatm1reQHCtI45I6z1XNebctxCr92hmVyeuCl0ojYcphy3oBhdzy1/NuW5BfnIG4Rbh7xcQV6u4DWolbxBtBPs8d69e/H555+jXr16eOWVV3zFyy+/jJdeeskK0/HKgvXPPPOMFbxtynELO7ffWoauj6Y2aD3jhRdewNNPP43nn3/eePxsEcZ5h1FvOl5ZsP7ZZ5+VmRuOny3COO8w6k3HKwvW65n7vY+wtEdTG7SeITMPNvM333wT77//vvWeEQ3TOuaMsNZzXW/KqSxCe7lCxXlHQCdqw+EHXPR1Pbf82Q/IR94g3BryxjN545lXUCt5o9HOWj7WyM0nVl6DhpzPVDMzM5GVlWX9bMo7W7D+0KFDVvC2KcctmE9eBv8xMeW4hV07t361ky8otw7+I3jw4EHrGb/puFtQK3ljod3eN9b75Waw/vDhw4FmHpb2qu6bjnidOTn1zHkfphy3CEt7tH1jvSmnstAzP3bsmPG4W1Areav7zBMTE637MOW4BWt1v7k++UFY67muDwJeBQ7ljWcV+yOgTzCI6QirQUG4NcTkisn1CmolbzTaYw1qOBd0xAKcWzyCj1OZeXxBZh5/4Mz9ruXRQnNGu57r+iAQk1sJxOSKyfUKaiWvzLz6zZy/3/E6c14hCjLzsLRXdd804nXm5NQz5334QVjao+0b64NAzzyI4SFvdZ85X37I+/CDsLRH0zddHwRiciuBmFwxuV5BreSVmVe/mYvJFZPrFdRK3uo6c3KKyRWT6xVhaY+mb7o+CMTkVgIxuWJyvYJaySszr34zF5MrJtcrqJW81XXm5BSTKybXK8LSHk3fdH0QiMmtBGJyxeR6BbWSV2Ze/WYuJldMrldQK3mr68zJKSZXTK5XhKU9mr7p+iAQk1sJxOSKyfUKaiWvzLz6zVxMrphcr6BW8lbXmZNTTK6YXK8IS3s0fdP1QSAmtxKIyRWT6xXUSl6ZefWbuZhcMbleQa3kra4zJ6eYXDG5XhGW9mj6puuDQExuJRCTKybXK6iVvDLz6jdzMblicr2CWslbXWdOTjG5YnK9Iizt0fRN1weBmNxKICZXTK5XUCt5ZebVb+ZicsXkegW1kre6zpycYnLF5HpFWNqj6ZuuDwIxuZVATK6YXK+gVvLKzKvfzMXkisn1Cmolb3WdOTnF5IrJ9YqwtEfTN10fBKGZXO4wBQ/ye3/tJ+k19Amynlv+bMpzC93cINwaJpNryncGtZI3FtrtfWO9X26C9drw8DZhyjUF88PQzm1V9k3DZHJN+c6gVvLKzKvfzE2Gx5TvDGolb3WdOTmdhseUa4qwtMvMzXmmsPeN9X65CXJW95mz3pTjFhomk2vKdwa1kre6z5wml/dBmHJNEZb2aPqm6005bqFhMrmmfGdo7frcEyjGFBRXWFiIoqKi003yGro5rNcnacpzC/KRNwg3T5DB74nW322u95nynUGt5I2FdnvfWO+Xm+fI+rS0NCt42+t5M5gfhnZuq7Jver565tzqfaZ8Z1AreWXm1W/m/P2Ox5mTkwtfkJmHpV1mbs4zhb1vrPfLzXMkZ3WfOetNOW6h56tnnpOTc3qfKd8Z1Ere6j5zmj3eh9fzZoSlPZq+6XpTjlvo+fJJbNCZk1OfewLFmILi+OyJblo3yWvo5rBen6Qpzy3IR94g3DxBRnZ29ukG6X2mfGdQK3ljod3eN9b75eaDgPXa8PA295lyTcH8MLRzW5V9c86cW5m5Od8ZzA9DO7dV2Tc9X/5+x+PMycmFLzU11bovPzMPS7vM3JxnCnvfWO+X+48yc9abctzCOfOsrKy4nDmD91HdZq7rTTluoeerL1oFmTk59bkn6GJnaJH6BE05bkEiXa+ba8pzCy0yCLd28/qXgo2yO/zKglp1g6pau71vrPfLrX8ptOHhbe4z5ZqC+WFo57Yq++acObcyc3O+M5gfhnZuq7Jver76H8J4mzk5OW/7FR5TrinC0i4zN+eZwt431vvl/qPMnPWmHLdwzpxPbOJ15ryP6jZzXW/KcQs9X331PsjMyanPPcH0mgYGkymUBbxzU45b6EHoxvJnU55bkI+8Qbh1sEF8xstL3qbjbkGt5I2FdnvfWO+Xm8F6/nmDwdumHLdgfhjaua3KvunQM+fWdNwtqJW8MvPqN3P+fsfrzPnazCAzD0t7VfdNR7zOnJx65rwPU45bhKU92r6x3pRTWeiZ0+yajrsFtZK3us+cRpf3Ycpxi7C0R9M3XW/KqSx4FTjozMmpz10+XcEBatUNqmrt9r6x3i83wXr+UjB42w+YH4Z2bquybxp65tz6AbWSV2Ze/WbO3+94nbl+ExJv+0FY2qu6bxrxOnNyOt945hVhaY+2b6wPAj1zPrHxA2olb3WfuX4y6wdhaY+mb7o+CHgVOOjMyanPXUyuA9RK3lhot/eN9X65CdbHq+ERkysm1yuolbzVeeZicsXkekVY2qPtG+uDQEyumFyv0Nr1uYvJdYBayRsL7fa+sd4vN8H6eDU8YnLF5HoFtZK3Os9cTK6YXK8IS3u0fWN9EIjJFZPrFVq7PncxuQ5QK3ljod3eN9b75SZYH6+GR0yumFyvoFbyVueZi8kVk+sVYWmPtm+sDwIxuWJyvUJr1+cuJtcBaiVvLLTb+8Z6v9wE6+PV8IjJFZPrFdRK3uo8czG5YnK9Iizt0faN9UEgJldMrldo7frcxeQ6QK3kjYV2e99Y75ebYH28Gh4xuWJyvYJayVudZy4mV0yuV4SlPdq+sT4IxOSKyfUKrV2fu5hcB6iVvLHQbu8b6/1yE6yPV8MjJldMrldQK3mr88zF5IrJ9YqwtEfbN9YHgZhcMbleobXrcxeT6wC1kjcW2u19Y71fboL18Wp4xOSKyfUKaiVvdZ65mFwxuV4RlvZo+8b6IBCTKybXK7R2fe5ich2gVvLGQru9b6z3y02wPl4Nj5hcMbleQa3krc4zF5MrJtcrwtIebd9YHwRicsXkeoXWrs9dTK4D1EreWGi39431frkJ1ser4RGTKybXK6iVvNV55mJyxeR6RVjao+0b64NATK6YXK/Q2vW5i8l1gFrJGwvt9r6x3i83wfp4NTyxNrlBagl7fRCwnv8QMvz2jvnkjVa7X16CfNFwE/yHkF956ff3nCBvrLTrvrE+CFiflZUVaOZhaY9F34h4nTk59cz93kdY2qPtW5B6Qs/c77/tBHmr+8yDrOfR9F3XRrsm6vogCM3kcocpeFB/57I+Sa+hTzAW3xetg43h9x7zl8J03C2olbyx0G7vG+v9cjNYz2d9+pmfKcctmB+Gdm6rsm869My5NR13C2olbxDt+ry5jSXIH2sNsQJnF4/Qj794hMw8/hDPM+eaGC30GqHXrrMF88JYz3W9Kaey4JNYrue5ubnG426htZOfkcAfTFFUVGQ56cLCwtNCvQbvWNdzy59NeW5BPvIG4WZzGTk5OUhJSbEapPeZ8p1BreSNhXZ731jvl5vDZT2f8TJ4Ww/cSzA/DO3cVmXfnDPntipnznz+QvKJBX8pjx075jmSk5Nx5MgRJCUlWcGfTXluQT7W79q1ywre9qPBzn306FFjjlvYtXPrVzv5gnJzzoyDBw9i+/btOHDgwOl9pnxnUKvmrmrt9r4x/HJzvuTkvHfu3Gndl5+Zh6VdZm7OM4W9bwy/3H+UmbPelOMWzpnv378/bmfO+/A7cwZreOHHtHa5RVjrua435biFXrupmXPOzs72vZ6TU/uJBO4wBQ9y4bafpNfQJ8h6bvmzKc8tdHODcOtmmEyuKd8Z1EreWGi39431frlpaFmvTS5vc58p1xTMD0M7t1XZN+fM7SbXlO8MaiVvEO3sL3n4j9Cnn36Kl19+GU888YTnePzxx6147LHHrOBtU55bPPnkk1bNQw89ZAVvc58p1xTRcDNf1+vbpjy30LVBuHU88sgjePDBB62t6bhbOLmrUrvmC1pvnznPnbdl5pWHk7sqtWu+oPUy8/ieOYP34XfmzzzzDF5//XVMnz7dWqe8+oGw1nNdb8pxC712m0yuKd8ZWrv2Ewm62Bk6URsOU45b0E3rem75synPLchH3iDcHCKD5lY/g9H7TPnOoFbyxkK7vW+s98vNS/Ws1y9X4G3uM+WagvlhaOe2KvvmnDm3VTVzjUWLFqFGjRr405/+hFtuuQW33nprlcZtt91mhenYHz3i+bxl5vEV8T7zeDz3aM77kksuQUJCAtq0aWN5AcK0jjkjrPVc15ty3EKv3XypKddzXrTyu56TU/uJBP06BmfoRG04TDluQTG6nlv+bMpzC/KRNwi3hn4TEp9JaJjynUGt5I2FdnvfWO+Xm2C9fuMZbxOmXFMwPwzt3FZl3zT0zO1vTjDlO4NayRtEu8acOXMsk/vUU09h48aN2Lp1q0QVxbZt24z7Jf64ITOPv5CZ+48BAwbgr3/9K5o0aVKxUnlfE8NYz3W9KcctNHgV1vnGM1O+M7R27Sfk0xUcoFbdoKrWbu8b6/1yE6yXT1eo2k9XIGhyr7jiCjRv3rxij0AgEAgEscOyZctw5ZVX/s7kekFY67muDwKTyfUCrV37CTG5DlAreWOh3d431vvlJlgvJrfqTe7cuXMtk9uwYUPffRcIBAKBIGzMnDkTtWrVQrNmzSr2eENY67muDwIxuZVATK6YXK+gVvIG1U5ok9ugQQPrfgQCgUAgiCVmzJghJrdifwT0CQYxHWE1KAi3hphcMbleQa3kDaqdEJMrEAgEgnMJYnLF5EaAWskbC+32vrHeLzfBejG5YnIFAoFAEN8QkysmNwLUSt5YaLf3jfV+uQnWi8kVkysQCASC+IaYXDG5EaBW8sZCu71vrPfLTbBeTK6YXIFAIBDEN8TkismNALWSNxba7X1jvV9ugvVicsXkCgQCgSC+ISZXTG4EqJW8sdBu7xvr/XITrBeTKyZXIBAIBPENMbliciNAreSNhXZ731jvl5tgvZhcMbkCgUAgiG+IyRWTGwFqJW8stNv7xnq/3ATrxeSKyRUIBAJBfENM7llMrk4Majh0vd/maJA3KDdBc5uWlmY1yi/IGyvtYfQ9MzPTCr/6mR+Gdr+8GtFwE3rmfp/YEOSNRvu8efPE5AoEAoHgnIE2uUG+bj6M9Tya+sLCQms993vRiiCn9hMJRUVFMAXNIe+choG3TTluQXGs0/X82ZTnFro+CLeOrKwsJCcnIzs723jcLezaye1XO2uCaicXa4L2jcH61NRUK/zyR6uddefCzLk1HXeLaLQXFxdbv0j8x6R27dpicgUCgUBwTkB/rW/jxo2t9Yqm07mGmSKs9Vz7KFNOZZGTk4Njx45ZF+xMx91Cc+tIoFM2BS8Tp6SkWGaJt005bsF81ul6U056evpZ92uj5uR2q7MHc44ePYqDBw9aWy81Ouza/Z43Q9ebtDOoxaRH72ONqe9udfbgcdYcOnTICt6urMYezD+b9rOFrq3uM3fT7hb8BaSpnThxIi6//HI0bNjQ+hOJQCAQCASxxKxZsyyTW7duXWu9ouF0rmFuYV8TTX7Ay3pu8lE8Xtn6zOO8YJWYmGit56Yct9DruY4EumVT8GqY/rM3b5ty3IJXT3Utgz+b8tzCXu+XWwdP7vDhw9YJm467hZPbr/Zo+2av98vNYD0fFAy//NFq17VBtNvr/XLr0DPn1nTcLaLRztcL0dROnTrV+sdETK5AIBAIzgXoK7n8CyPXK/7l0bmGmeJcWM9pWJOSkqJez+WNZw5QK3ljod3eN9b75SZYL288kzeeCQQCgSC+IW88O8sbz7TIoIu+rg9iWLTIoNwEzS2fCbBRfqEbFAvt9r4HAev1Mxi/+pkfhna/vESYM/f7xIYgb1DthLzxTCAQCATnEqJ541kY63k0aypfW8v13O9FK4Kc2k/IlVwHqJW8sdBu7xvr/XITrJcruXIlVyAQCATxDbmSK5+TGwFqJW8stNv7xnq/3ATrxeSKyRUIBAJBfENMrpjcCFAreWOh3d431vvlJlgvJldMrkAgEAjiG2JyxeRGgFrJGwvt9r6x3i83wXoxuWJyBQKBQBDfEJMrJjcC1EreWGi39431frkJ1ovJFZMrEAgEgviGmFwxuRGgVvLGQru9b6z3y02wXkyumFyBQCAQxDfE5IrJjQC1kjcW2u19Y71fboL1YnLF5AoEAoEgviEmV0xuBKiVvLHQbu8b6/1yE6yvjiZXFQTm1hCTKxAIBAJBOcTkismNALWSNxba7X1jvV9ugvXV0uQqlAXk1hCTKxAIBAJBOcTkKpPLHabgQX7Psf0kvYY+QdZzy59NeW6hmxuEWwcbow2P6bhbUCt5Y6Hd3jfWn+GumJ4HlKr69PR0pGdkodRR5+RzBrmj1X7yd/7UkVexFydPoPD4LuzevBYr127F+r0pOJxdiCJVX1p65lv2/IaeObem424Rzcw15syZIyZXIBAIBOcM7CZXr1fONcwUdi/id01kaB+k6005lQUvUHI9z83NNR53i9NepMLLJFCMKSiOX6tWVFRkJZpy3EI3h/X6JE15bkE+8gbh5gky2JiUlBTL8Oh9pnxnUCt5Y6Hd3jfW/45bPT4dntWIkpPFSE9LQ1paOopPlpTvPKXO38bjFuSOWnuRevZEsarfp8p+n6N2wfLAWTtxdG57dHjzZlx748O4/t2v0WPBQaSo+lOn1H1FOXNuq2rmGrNnz0bt2rXF5AoEAoHgnIA2uU2aNLHWQ8K0jjnD7kX8rokM7YN0vSnHLfTazQuUXM9zcnJ8r+fk1F4mgWJMQXF00rxkrE2P19DNYb0+SVOeW5CPvEG4eYKM7Ozs0w3S+0z5zqBW8sZCu71vrC8uLjd7JUW5yNk7A79O6oqeHdvi49at0KqVLTp0R9spW7Ag2XoMozQvByeObkPmzkUY/dNi9Jm1EzvS8sofBOyFgZtB7qDaS9R9FxXkI2PnDGxeOhSz1m7BuqNq30k+8Mp7X1KqHqT8RTtxCGkrv8LAd/8NNf5XAhL+vy/jnk9XY1OB4lQ2uERxu2k0hXPm3FbVzDVmzpwpJlcgEAgE5wzsJpfrIeFcw0xh9yLR+CBdb8pxC71264tWWVlZvtdzu5dJ0MXO0CL1CZpy3IJEul6bJVOeW2iRQbi1m6e51Vf19D5TvjOoVTeoqrXb+8b6kxVXYkvzU5A08xV88eY/o1bNi3D+JZfhsstsce1NuLBuZ9SfuRmbMoqQeaIAOLoG6WtGolWf7/DCl6uw/EiudV+nznI5uKxEPfupTHvpqfKrsQacLDyBpNn1MKbz5ag7aDyGbFHaK46Vg1d41R4lorQoG+mrP8I3Ta7HHde0xDud1mO9MrkF/HOD4rbMuMdwzpzbqpq5xqxZs8TkCgQCgeCcgd3kcj0kTOuYM+xeJBofpOtNOW6h127+FV5ftPK7npOT/IwE02saGEymUBbwzk05bsHLyrqeW/5synML8pE3CLcONig1NbWavya33JGW5R3FgfF1MLTl3/FWh37oNHwSJk2yxah+6NfpHjzXuQGenrIV03ZmAzlJKE7fj40792P57jSkFXgwXqc8aK9INaGsOB9HZryKkR//Ba988QMGKJMbCds9lB5C5v7lWLNkK9ZvyUBaseq74uVLK4zclYSeubwmVyAQCATxDm1ymzZtenq9cq5hprB7kWh8kK435VQWvArM9ZwXKk3H3UJr115GPl3BAWrVDapq7fa+sV5T0+Tun/AQJva/F0PWpGBLxN2mo3j1++ja7DFc/+x36PzDTmTkHkNh1gFs3LEPS3cqk1tUUXQqFyc2TsaS0f3wxRdfqOiPAd/9hO9WJWNHFp/plb+W9pSb9lMZKN0/D3PGf1Ve3+8r/LB8B7YUqmeIqiZ7fn1M6n0ZGn0/DD3HLcXSvl9gxBcD8OWE+Ri1+wSSTl/8LEDG3v1I2r4f6cVlKOYude78hIVoZ86tH0Q7c0I+XUEgEAgE5xLsbzzzA7sXicYH6fog4FVg/UZyP9DatQ8Tk+sAtZI3FtrtfWP9aerCNBye8iimDLgHg1cmYWNRxf7TUDwlm7CqZwd0urIBOn42G+sPbcGxtd+iUedBuLfHSvySXIBTJ7ORtXcafux0L167tQYuueQSFRfhwtoPouZbwzF42RHk8NUE1ssKnNrVvlMlKDi8DCu/fRcvP3SVqlX3UeNS3PFeH/RafAKJmSeR/XNTTO51Ed7r9zEa1f8EnWrUwIOXXIDzb30aNTrPwQ/b81DMuyo7ht++7Yfxn36GSWsPYLvaZ71et1RMrkAg+H/b+/IoKeos6/rjO9/5znfm9JzTM/P1zPQy46ijCGi7traK+47iMi7tjohbAeIuigKitoqNiiwuLShqoygIyCK7KKAsiqKsIlALRRVVRS0sVcV2v7gJD8OoX1T+YukMovJdfSeyIt6Le+O9jIybUZmUQqGICjW5anKbgVrJm4R2d99Yv59611ZUTOiIj4ecjmELNmKp8TmzG5s+fg7jbzgBTzz3GiZ/tQTrZwzAZYV9cdBDc/HJ+lrsXPUKxg05A2fddhXOuft5vPTyy3j55b544PJzcNFBZ+O+Jz7CZ5uc3pF3j0f7HueJtmkhxr03FFf1eBS39H7GqX0RgwZ0Q/fTuuK+q97DmPkbsOyLh/Bm93/BqX+8Hhdd/VeMGPQC3nm5J+7o+Ee0+30ndPvLdCx2POi2HeVYMvARDLvlTrwyfRkWOr6Qd4LV5CoUCoVCER1qctXkNgO1kjcJ7c375uyvfg02LByGdx9uj7uu+W/86aFn0XvoSIx8dwxGTv8OC4u37P1Vv4O6xU9i9kv/iaf++gI++vw7rJ85GDc++CyO7vclZhTVYseKwRj3VmfcMnYu3izfV+SgbkIvvH38r/BQ9wEYsRqozHyk4Ofa92wvwrYve6Nvv244otcsvPG9fO6gCEufHob3bn8HE+cXYcn8B/DyLb/Erw/pgnP7rMG6TE4Flg25AQ+3/SfccvcgjK4ENjdWYfkr/TG8+30Y8elKfK0mV6FQKBSK2KAmV01uM1AreZPQ7u6b8O5YPwZzXzwSV//h/+Jf//n/4J///Xf4zUGH4JB2p+GQG19B/2klqM1kAvWLfjK542hyZ+01uUf2no3pRc4TpakKtVXr8GN5NTbUObN1uHbt2oo14x7CiKv/HY88ORBvOSa3KuOaf659Z+XXWDPyVPTtfRGueWslpu/758qIXZWbUVdSjdq6Ldg4404Muv/X+I/bn8aN4+sgn6wondQLb173a/R6+iWMrgCqt6vJVSgUCoXi7wU1uWpym4FayZuE9p/1zakl9a7qJVgztRcG3nYwLj/ndzj3hrvQ+f7H8fgTA/H4m59h8vIabN9XX//Vk/h08H84Jnfgz+7ktn90NmaUNOxNqvgOXwzojX6d/4RrrrkmE53Oao/Tjv4Vbuz/Ot7/Eag13MndXjITc/sfjocKz8ZdY9di3qZ9G36GHaie0gV/7XMwznnxTfT76qcnd+nMJ/BB94PQ/6XB+FBNrkKhUCgUf1eoyVWT2wzUSt4ktLv7xvr91I2VKBlzAT58oQNe+mwdFvrMvGras5jc7Sj0HzgUExctxfpP95rco/rMxcySGjRUz8e3I7vh7lNOwHGHH42jj3bimONx1OG/Qfv/+hf8qe8bGL3WbHK3FU/HnL5tcf8d5+HOMf4md9OUW/C3fofi1qHvYdi3spedKPrkcbx7+0HoO1BNrkKhUCgUf2+oyVWT2wzUSt4ktLv7xvr91E012PDRhfho0GkY8kUplsiHcPeDieuw9KUn8cJR16FPn7GYv2YJSucOwvX3D8CxT83D9PVrUTLtfrx+19G47t5n0XvUIixcuBCLFszHhJe64InLf4v7nxmMd39wDGjGo/1ce1P5l/hu6NHo8/B56Dp6Dea4PtMr2L2jAWVTumRMbtchanIVCoVCoUgKanLV5DYDtZI3Ce3uvrFeqHdvLcWP752D9184A8MWbcL3e1e74DwJlvXGS3dfjlPOHIzHXl+GjRULUT3vRVxz3wAc92fH5K5djpUjLkK/y/4d1732Ocbt//dqq7DszZtxU4ff4NpHBuMDnzu5e2qWo2JMRzxw3yU44c9f48OifRuwGRtHD8YMxyBPnrsGc8ffjb89cRi6Dh2FId/IXtTkKhQKhUKRS6jJVZPbDNRK3iS0u/vGeqHevW0D1r13Ft549HD0HPIBXpuxGIsXu2LWexgz8DT86ZGr0eGvi/DWt86TYtM81M15Fpd0expt+nyOqet+RMnUHhh66xHoeO8APDR2CZYs/RpLvhqNZ3p0QPtD/xEdug/EiOV7UJPxaJ7j3r4BjQtfwIC+t+K4W5/Eg2/OyHAv+vwVDL20Ax48owsGjl6KT8bcjbcf/x1uHvQ2Xvr6J5O7flIvvNX5V3j02RfwfrljrbdX4vvBj+O127vj9ZnLsVhNrkKhUCgUsUFNrprcZqBW8iah3d031u+nbtyEDeMvwYDr/hcOb3cEDj3qWBx7rCtOOgWHd74b142ehU82bsOGLTuBDZ+hevYzuKT7Uzjs0c8xvbgaDZUTMXvgFfjD8Ufh10c4dR0uxLEPDsHVvTqjd+d/QZcnnkD/uY0oM3nE3U1AfQlWzPgznut+CM469ci93MccjpM7dsWDQ77A/FWbsX5KV7zz2G9xw0smk/uvjsl9UU2uQqFQKBR/Z6jJdUwuxZiC4hobG3/2t4ttQ5rDejlIU55fkI+8Ybh5gAw2hn/3mIZH1pnyvUGt5E1Cu7tvrN+1a9+2HVtQ9/0bmDTkFtx181W45n+uwBVXuOLGu3DVq/PxnnyEoHErtpd+j9qVM/Hm1DkYMKcEP9bTeFVi4+LRePLB23HdVU7d9Xfgipdn46Vpk7By1qOYNGscPvjOeWJtMRyz8xzPPM03z8Pa8Z3Rv8f/7OW+8ibcM2I2Jlc6T0rHm+5cPgJfTngUb85agNnFzjFl6nei6rvx+PKdRzFh+iwsrt2NLY312DBnIuaO+gDzVpZh/Y7daHL6tWtH9JlzmauZCyZPnqwmV6FQKBQHDMTkduvWLXM9JEzXMW+4vUgUHyT1phy/kGs3b1Dyel5fXx/4ek5O8WEFFGMKiqOTbmhoyCSacvxCmsN6OUhTnl+Qj7xhuHmAjLq6OpSXl2caJOtM+d6gVvImod3dN9b/xL0DO5q2YfvWWtRurkZ1dRWqqlyxuQbVW50nlPOGaZdTs9lZV129Edu3ONuKNqF0TRVqtjrGebfTg6YGbKmrwWbuo3ozquqdnx2unU1bnCeVY6a38thN2p3aXc6TbFcjdm6vQX1N9V5uZx+12xzNO/fsPXZH47Yttdjq7KOh6af6HY1OP539b3e4Gnc4PzvH1NTgHOc2J5qcnkfom3fmXOZq5oKJEyeiTZs2anIVCoVCcUBATG5hYWHmekiYrmPecHuRKD5I6k05fiHXbt6s4vW8trY28PWcnOInCrjCFNxIJ+0+SNuQA2Q9l/zZlOcX0tww3NIMk8k15XuDWsmbhHZ331i/n9sxmHY3/PegsaEJFZscU9tUgi01y/D10x9j4t1TsXBVFSptPgWw0zGhjvn0077Tbx+7nXdNjc6T2vF3+1P2OPmZup0//xrbLmdOzjH9tM5599UU38zdJteU740oMxeoyVUoFArFgQSTyfVew0zh9iJRfJDUm3L8Qq7dJpNryveGaBc/USDF3pBEMRymHL+gm5Z6LvmzKc8vyEfeMNxyy5rmVn517b6NnS2olbxJaHf3jfU/53b07zsOc+z93ExT005UVW1GXVMRtlZ/g3n9xmJ04SdYsHozqp0n+J49jrX01O3et39y22l31+/dx0/a+VELp9bUNyfXb12cM+dS1pnyvRFl5oJJkyapyVUoFArFAQP3xxV4PSRM1zFvuL1I0GsiQ67nUm/K8Qu5dvOjprye86ZV0Os5OcVP6BfPPKBW8iah3d031gflJlhfXV2NzTWV2LljG7ZX1qO+fCsampwnwL4cP7A2Du257ptAv3imUCgUCsVe6BfP9F9XaAZqJW8S2t19Y31QboL1NLm8m8sviwUBa+PQnuu+CdTkKhQKhUKxF2py1eQ2A7WSNwnt7r6xPig3wXqaXAYfBwHz49DOZS77JlCTq1AoFArFXqjJVZPbDNRK3iS0u/vG+qDcBOvV5KrJVSgUCkV+Q02umtxmoFbyJqHd3TfWB+UmWK8mV02uQqFQKPIbanLV5DYDtZI3Ce3uvrE+KDfBejW5anIVCoVCkd9Qk6smtxmolbxJaHf3jfVBuQnWq8lVk6tQKBSK/IaaXDW5zUCt5E1Cu7tvrA/KTbBeTa6aXIVCoVDkN9TkqsltBmolbxLa3X1jfVBugvVqctXkKhQKhSK/oSZXTW4zUCt5k9Du7hvrg3ITrFeTqyZXoVAoFPkNNblqcpuBWsmbhHZ331gflJtgvZpcNbkKhUKhyG+oyVWT2wzUSt4ktLv7xvqg3ATr1eSqyVUoFApFfkNNrmNy+YMpmpqa0NDQgMbGxv1CbYM7lnou+bMpzy/IR94w3Gwuo76+HhUVFZkGyTpTvjeolbxJaHf3jfVBuTlc1ldVVWWCj2XgNsH8OLRzmcu+eWfOZa5mLpg0aRLatGmjJlehUCgUBwTE5Hbr1i1zPSRM1zFvxHU9l3pTjl/ItZs3q3g9r6urC3w9J6f4iQKKMQXF8S4o3bQYD9uQ5rBeDtKU5xfkI28YbjlQNqa8vDxjeGSdKd8b1EreJLS7+8b6oNx8ErC+srIyE3zMdaZcUzA/Du1c5rJv3plzmauZCyZOnKgmV6FQKBQHDMTkFhYWZq6HhPcaZoq4rudSb8rxC7l28wYlr+e1tbWBr+fkFD9RQNdrChEpB2jK8QsSSb0YFlOeX4jIMNzSDJPJNeV7g1qlQbnW7u4b64Ny09CyXkwuH3OdKdcUzI9DO5e57Jt35m6Ta8r3BrWSN4x2gZpchUKhUBxIMJlc03XMG3Fdz6XelOMXcu02mVxTvjdEu/iJApogU0iiGA5Tjl9QjNRzyZ9NeX5BPvKG4eav5xlsEG9185a3rDPle4NayZuEdnffWB+Um8fIevm4Ah/bHjeD+XFo5zKXfZP5ysy5lHWmfG9QK3nDaBdMnjxZP5OrUCgUigMG7o8r8HpImK5j3ojrei71phy/kGs37wLLxw+DXs/JKX5Cv3jmAbWSNwnt7r6xPig3wXr94pl+8UyhUCgU+Q394pn+6wrNQK3kTUK7u2+sD8pNsF5NrppchUKhUOQ31OSqyW0GaiVvEtrdfWN9UG6C9Wpy1eQqFAqFIr+hJldNbjNQK3mT0O7uG+uDchOsV5OrJlehUCgU+Q01uWpym4FayZuEdnffWB+Um2C9mlw1uQqFQqHIb6jJVZPbDNRK3iS0u/vG+qDcBOvV5KrJVSgUCkV+Q02umtxmoFbyJqHd3TfWB+UmWK8mV02uQqFQKPIbanLV5DYDtZI3Ce3uvrE+KDfBejW5anIVCoVCkd9Qk6smtxmolbxJaHf3jfVBuQnWq8lVk6tQKBSK/IaaXDW5zUCt5E1Cu7tvrA/KTbBeTa6aXIVCoVDkN9TkqsltBmolbxLa3X1jfVBugvVqctXkKhQKhSK/oSa3BZMrIsNe9KU+jGERkWG5CZrbysrKTKOCQhqUhHZ338OA9Zs3b85EUP3Mj0N7UF4izpkHfWNDkDesdkJMLv9GuEKhUCgUSWPmzJmhr0txXM+jXFMbGhoy1/OgN60Icoqf0Du5HlAreZPQ7u4b64NyE6zXO7m5v5M7efJkHHbYYbjlllsyzznuS0NDQ0NDI6kYO3YsDjnkEBQWFu67Utkhruu51IdBbHdya2trYYqampqMUeIdQT425fgF81kn9aacurq6FtfL3Ugvt1+dO5hTUVGB4uLizNKmRsKtPehxM6TepJ1BLSY9so41pr771bmD21lTWlqaCT7OVuMO5rekvaWQ2rTP3E+7X/AE5Ik0btw4/Nu//Rt+/etfo3PnzujSpYt13HrrrfvDtD1bsK5r166ZCLoPN3fQWkZctWHqGawLc9yMKNzu2qj1pu3ZgnU683Rpj1LLYJ3OPF3ao9QyWBdl5qeddhoKCgpw++23o76+Ho2NjcbrmCnc10STH7C5npt8FLdnuz5zOw1uSUlJ5npuyvELuZ5LFPB2sClIwJ0z+NiU4xfuWoYpp6qqqsX1ftx+de5gzoYNG7Bu3brM0qZGIspxM7LVU4tJj6zzq/ercwe3s6aoqCgTfJytxh1+3DbhrmWYcvy0yHo/bptjYE4cM/fT7hc8ifhudc6cObj88stx5JFHom3btoGDv1IyrbcNfu6KYdr2946o2qNEmzZtMnfQuTRtzxZJateZhwuduc48aOTrzNu1a4ejjjoKL774YuZaxbujpuuYKdzXRJMfiHI9z3Z95vaysjKsX78+cz035fiF93pe0NTUBFOwGfy1L3/1ys9GmHL8gu8WpJ5L/mzK8wvykTcMtwTdPJtEZ2/a7hfUSt4ktLv7xvqg3AzWy3D52JTjF8yPQzuXueybhMycS9N2v6BW8obRLr+O4Un59ddfZ8zu9OnTMW3aNKuYOnUqPvnkk8zHHfi5Xv5symspWP/hhx9mgo9NOX7BfPKG4XZr5zJMfVhuCX6xYvTo0ZmlabtfCHcS2pkvfQt77KwfM2ZMqJnHpT3XfZPI15mzRmbOfZhy/CIu7VH7xnpTTraQmY8fP9643S+EO+0z/+CDDzL7MOX4BWt5Lfr8888zZpHXK16rvNcwU8R1PZd6U0624N3cjRs3Zsy5abtfiHbxE76fyZXPNYT9fKTUB/0sh4C8YbkJHhxdPZsdFORNSnscfZfb9EH1Mz8O7UF5BVG4CZk5l0FB3rDao2hWRIf2P/+gM88/6Mxziziu51HqaVZ5PadRDgpykp+hXzzzgFrJm4R2d99YH5SbYD0/B8Pg4yBgfhzaucxl3wQy86AnBbWSN4r2MHVuRKkl5HNOSSCq9ijgO3e+oeMLYhgkqT0qNz9jpzMPDp15OBwIMw9z04pI+8z5G+lcgprjuJ5LfRjwbiyv5/rv5PpATa6aXFtQK3l15umbOc/vfJ05L/phZh6X9lz3TZCvMyenzJz7CIK4tEftG+vDQGYexvCQN+0z58fhuI8giEt7lL5JfRioyc0CNblqcm1BreTVmadv5mpy1eTaglrJm9aZk1NNrppcW8SlPUrfpD4M1ORmgZpcNbm2oFby6szTN3M1uWpybUGt5E3rzMmpJldNri3i0h6lb1IfBmpys0BNrppcW1AreXXm6Zu5mlw1ubagVvKmdebkVJOrJtcWcWmP0jepDwM1uVmgJldNri2olbw68/TNXE2umlxbUCt50zpzcqrJVZNri7i0R+mb1IeBmtwsUJOrJtcW1EpenXn6Zq4mV02uLaiVvGmdOTnV5KrJtUVc2qP0TerDQE1uFqjJVZNrC2olr848fTNXk6sm1xbUSt60zpycanLV5NoiLu1R+ib1YaAmNwvU5KrJtQW1kldnnr6Zq8lVk2sLaiVvWmdOTjW5anJtEZf2KH2T+jBQk5sFanLV5NqCWsmrM0/fzNXkqsm1BbWSN60zJ6eaXDW5tohLe5S+SX0YxGZyKcYUFCd/r1iaZBvSHNbLQZry/IJ85A3DzQNksDEVFRWZF0JZZ8r3BrWSNwnt7r6xPig3j5H1PCEYfGx73Azmx6Gdy1z2TeYrM+dS1pnyvUGt5NWZp2/mPL/zcebkpNkJM/O4tOvMzXmmcPeN9UG5eYzkTPvMWW/K8QuZr8ycf/1L1pnyvUGt5E37zPnnbbkP2+NmxKU9St+k3pTjFzJfvrEJO3NyyrEXUIwpKI5Omn9GT5pkG9Ic1stBmvL8gnzkDcPNA2TwTx+Wl5dnGiTrTPneoFbyJqHd3TfWB+XmgFnPE4LBx1xnyjUF8+PQzmUu++adOZc6c3O+N5gfh3Yuc9k3mS/P73ycOTk5b97p4L6CzDwu7Tpzc54p3H1jfVDu1jJz1pty/MI7c/5523ydOfeRtplLvSnHL2S+fBMbdubklGNXk+sJaiVvEtrdfWN9UG6eAKzPV8OjJldNbr7MnJxy8eO+gsw8Lu06c3OeKdx9Y31Q7tYyc9abcvzCO3M1uWpys4Vol2NvdR9XkOBJIb/SMm33C2olbxLa3X1jfVBu3s5nfb796lpCZs6labtfUCt5debpmznP73yeOS+AfBxk5nFpz3XfJPJ15uSUmXMfaZw560052UJmzjc2pu1+Qa3k1ZknM3OpN+VkC/mISpiZk1OOXb945oE8sZLQ7u4b64NyE6znZ3gYfBwEzI9DO5e57JtAZs5lEFAreXXm6Zu5fvFMv3hmC2olb1pnTk794pl+8cwWcWmP0jepDwPeBQ47c3LKsavJ9YBayZuEdnffWB+Um2B9vhoeNblqcm1BreRN88zV5KrJtUVc2qP2jfVhoCZXTa4tRLscu5pcD6iVvElod/eN9UG5Cdbnq+FRk6sm1xbUSt40z1xNrppcW8SlPWrfWB8GanLV5NpCtMuxq8n1gFrJm4R2d99YH5SbYH2+Gh41uWpybUGt5E3zzNXkqsm1RVzao/aN9WGgJldNri1Euxy7mlwPqJW8SWh39431QbkJ1uer4VGTqybXFtRK3jTPXE2umlxbxKU9at9YHwZqctXk2kK0y7GryfWAWsmbhHZ331gflJtgfb4aHjW5anJtQa3kTfPM1eSqybVFXNqj9o31YaAmV02uLUS7HLuaXA+olbxJaHf3jfVBuQnW56vhUZOrJtcW1EreNM9cTa6aXFvEpT1q31gfBmpy1eTaQrTLsavJ9YBayZuEdnffWB+Um2B9vhoeNblqcm1BreRN88zV5KrJtUVc2qP2jfVhoCZXTa4tRLscu5pcD6iVvElod/eN9UG5Cdbnq+FRk6sm1xbUSt40z1xNrppcW8SlPWrfWB8GanLV5NpCtMuxq8n1gFrJm4R2d99YH5SbYH2+Gh41uWpybUGt5E3zzNXkqsm1RVzao/aN9WGgJldNri1Euxy7mlwPqJW8SWh39431QbkJ1uer4VGTqybXFtRK3jTPXE2umlxbxKU9at9YHwZqctXk2kK0y7EXcIUpuJF/99d9kLYhB+j+m8mmPL+Q5obhFphMrinfG9RK3iS0u/vG+qDcBOvF8PAxYco1BfPj0M5lLvsmMJlcU743qJW8OvP0zdxkeEz53qBW8qZ15uT0Gh5Trini0q4zN+eZwt031gflJsiZ9pmz3pTjFwKTyTXle4NayZv2mdPkch+EKdcUcWmP0jepN+X4hcBkck353hDtcuwFFGMKimtoaEBjY+P+JtmGNIf1cpCmPL8gH3nDcPMAGfX19aioqMg0SNaZ8r1BreRNQru7b6wPys0Bs54nBIOPuc6Uawrmx6Gdy1z2zTtzLnXm5nxvMD8O7Vzmsm8yX57f+ThzcnLelZWVmX0FmXlc2nXm5jxTuPvG+qDcrWXmrDfl+IV35nV1dXk7c+4jbTOXelOOX8h8+SY27MzJKcdeQDGmoDi+e6KblibZhjSH9XKQpjy/IB95w3DLgbIx5eXlmRdCWWfK9wa1kjcJ7e6+sT4oN58ErOcJweBjrjPlmoL5cWjnMpd9886cS525Od8bzI9DO5e57JvMl+d3Ps6cNZw373RwX0FmHpd2nbk5zxTuvrE+KDfnS06ZOR+nceasN+X4hXfmtbW1eTtz7iNtM5d6U45fyHz5xibszMkpx15A12sKESkHaMrxCxJJvTTXlOcXIjIMtzTDZHJN+d6gVmlQrrW7+8b6oNzuk4LBx1xnyjUF8+PQzmUu++adufviZ8r3BrWSV2eevpmbDI8p3xvUSt60zpyccvHjvoLMPC7tOnNznincfWN9UO7WMnPWm3L8wjtzt+Ex5XuDWsnbGmbOfaRt5lJvyvELma/J5JryvSHa5dgLePvbFEymUBZw56Ycv5BBSGP5synPL8hH3jDcEvLrDd7yNm33C2olbxLa3X1jfVBuBuvlV9d8bMrxC+bHoZ3LXPZNQmbOpWm7X1AreXXm6Zu5/EorH2fOz2aGmXlc2nPdN4l8nTk5ZebchynHL+LSHrVvrDflZAuZOc2uabtfUCt50z5zGl3uw5TjF3Fpj9I3qTflZAveBQ47c3LKseu/ruABtUqDcq3d3TfWB+UmWM+TgsHHQcD8OLRzmcu+CWTmXAYBtZJXZ56+mfP8zteZy5eQ+DgI4tKe674J8nXm5PR+8cwWcWmP2jfWh4HMnG9sgoBayZv2mcub2SCIS3uUvkl9GPAucNiZk1OOXU2uB9RK3iS0u/vG+qDcBOvz1fCoyVWTawtqJW+aZ64mV02uLeLSHrVvrA8DNblqcm0h2uXY1eR6QK3kTUK7u2+sD8pNsD5fDY+aXDW5tqBW8qZ55mpy1eTaIi7tUfvG+jBQk6sm1xaiXY5dTa4H1EreJLS7+8b6oNwE6/PV8KjJVZNrC2olb5pnriZXTa4t4tIetW+sDwM1uWpybSHa5djV5HpAreRNQru7b6wPyk2wPl8Nj5pcNbm2oFbypnnmanLV5NoiLu1R+8b6MFCTqybXFqJdjl1NrgfUSt4ktLv7xvqg3ATr89XwqMlVk2sLaiVvmmeuJldNri3i0h61b6wPAzW5anJtIdrl2NXkekCt5E1Cu7tvrA/KTbA+Xw2Pmlw1ubagVvKmeeZqctXk2iIu7VH7xvowUJOrJtcWol2OXU2uB9RK3iS0u/vG+qDcBOvz1fCoyVWTawtqJW+aZ64mV02uLeLSHrVvrA8DNblqcm0h2uXY1eR6QK3kTUK7u2+sD8pNsD5fDY+aXDW5tqBW8qZ55mpy1eTaIi7tUfvG+jBQk6sm1xaiXY5dTa4H1EreJLS7+8b6oNwE6/PV8KjJVZNrC2olb5pnriZXTa4t4tIetW+sDwM1uWpybSHa5djV5HpAreRNQru7b6wPyk2wPl8Nj5pcNbm2oFbypnnmanKTmXmYWsJdHwbkrKmpycw96D5Yy5qo2sPMzM0dduZieILOnCBvHNqj9I31YUBOzpwmN+g+ovRdaqOeK1IfBrGZXK4wBTfK31yWg7QNOcAk/l60BBvDv3vMk8K03S+olbxJaHf3jfVBuRms5wkh7/xMOX7B/Di0c5nLvknIzLk0bfcLaiWvzjx9M+f5na8zp8ENM/O4tOe6bxJJzFyOm8skQS3sWz6Cs8tHxDVzPndtn/PyfI96nku9KSdb8M0sz/P6+nrjdr8Q7fI6U8AfTNHY2Jhx0g0NDfuF2gZ3LPVc8mdTnl+Qj7xhuNlcRl1dHcrLyzMNknWmfG9QK3mT0O7uG+uDcnO4rK+srMwEH8vAbYL5cWjnMpd9886cS525Od8bzI9DO5e57JvMl+d3Ps6cnJw373RwX0FmHpf2fJo5OZjPWt5ZkzcYct7ZBC/YGzduzGg3bW8pyMdZr1mzBj/88ENmX1xnyjUFa8nL4GNTTksh2rk0bW8p3NxB6+XNe0lJCVatWoWioqL960z5piBvHNqj9I31pu0thXfm3EfQmZOfvaJhlOex97ltirjOc6k35fiFnNN8E8tjrq2t3b/OlO8N0S6vMwVcYQpuZGPcB2kbcoCs55I/m/L8QpobhlsOlI1hg/hC6D74bEGt5E1Cu7tvrA/KzQsd6+VJzsdcZ8o1BfPj0M5lLvvmnTmXOnNzvjeYH4d2LnPZN5mvvLHJt5mTUy5i3FeQmcelPZ9mzv7yIkuz8cQTT+CGG27AZZddZh2XXnppJjp16pQJPjbl+cXll1+eqbnwwgszwcdcZ8o1RRRu5ku9PDbl+YXUhuGWuPjii3HBBRegY8eOxu1+4eXOpXbhC1vvnTn3EXTmV155JW6++WZMmDAh8/y1fZ2I6zyXelOOX8g5LW9m+aYy6HlOTnmdKRCH7A1JlBciU45fUIzUc8mfTXl+QT7yhuHmEBnSIL4bkHWmfG9QK3mT0O7uG+uDcvMYWS+Gh49tj5vB/Di0c5nLvsl8ZeZcyjpTvjeolbw68/TNXN7t59vMySl3s7gv2+NmxKU9n2YumDt3Ltq0aYN/+Id/wDHHHIPjjjsuUBx//PGZMG2ziSj1cXCb1ttEHNxh9xEXt2mbTcRVH2YfBx10EAoKCvDggw9mfpVPmJ7f3ojrPJd6U45fyDnNjyXxPOeb2qDnOTnldabA+3kGCUmUFyJTjl9QjNRzyZ9NeX5BPvKG4ZbgCyHvdOTTZ3IJ1vNXGgw+Jky5pmB+HNq5zGXfJGTmXJq2+wW1kldnnr6Z8/zO55nT6PIxYco1RVzac903iSRmLpg1axYOPfRQnH322Zg3bx4WL16soXHAxoABA/CrX/0KhYWF+57Bdq8TcZ3nUm/KyRa8C8zznG9mTdv9QrTL64z+6woeUKs0KNfa3X1jfVBugvViePg4CJgfh3Yuc9k3gcycyyCgVvLqzNM3c3khzMeZ67+ukNuZEzS57dq1w2233bZvjUJx4GLOnDlo27btz0yuDeI6z6U+DPhRA57nfDMbBKJdXmfU5HpAreRNQru7b6wPyk2wXk2umlxbMD8O7Vzmsm8CNblqcm1BreQNq52YPXs22rdvj5tuuimzH4XiQMbEiRNx+OGHo3v37vvW2CGu81zqw0BNbhaoyVWTawtqJa/OPH0zV5OrJtcW1EresNoJMbk33nhj5vOGCsWBDH7hTE2uD+QAw7wYxdWgMNwCNblqcm1BreTVmadv5mpy1eTaglrJG1Y7oSZXkSaoyVWT2wzUSt4ktLv7xvqg3ATr1eSqybUF8+PQzmUu+yZQk6sm1xbUSt6w2gk1uYo0QU2umtxmoFbyJqHd3TfWB+UmWK8mV02uLZgfh3Yuc9k3gZpcNbm2oFbyhtVOqMlVpAlqctXkNgO1kjcJ7e6+sT4oN8F6Nblqcm3B/Di0c5nLvgnU5KrJtQW1kjesdkJNriJNUJOrJrcZqJW8SWh39431QbkJ1qvJVZNrC+bHoZ3LXPZNoCZXTa4tqJW8YbUTanIVaYKaXDW5zUCt5E1Cu7tvrA/KTbBeTa6aXFswPw7tXOaybwI1uWpybUGt5A2rnVCTq0gT1OSqyW0GaiVvEtrdfWN9UG6C9Wpy1eTagvlxaOcyl30TqMlVk2sLaiVvWO2EmlxFmqAmV01uM1AreZPQ7u4b64NyE6xXk6sm1xbMj0M7l7nsm0BNrppcW1ArecNqJ9TkuuH0b8+uzBx/9gx0ert7126Em25uscfRuauJ52E69AaFmtwWTK4khn0hkvqgzRGQNyw3wRfCysrKUC9EmZM2Ie1x9J0XP0ZQ/cyPQ3tQXkEUbkJmHvSNDUFenXlwiPagvIIo3ATP73ydeU1NTaiZE3FoT6JvBC9+Sc38008/VZMr2OX0v3w+li1dgPdX78Z6rquvQvG42VgybxmKnB+buO6ABJ9/ZVgx/mO8/cBwjJm4AmscL7Zz78ZWAzG5PXr02LfGHnGc51HqGxsbM+d50DezBDnldaagqakJpuALCXfOFxKezKYcv6A4qeeSP5vy/IJ85A3DLcELwMaNG1FbW2vc7hfUSt4ktLv7xvqg3AzWV1RUZIKPTTl+wfw4tHOZy75JyMy5NG33C2olr848fTPn+Z2vM+ddjjAzj0t7rvsmkdTMecGcNm0a2rVrl/mzvtSffjhmoGkzalZ/g+Xz52DOzJmYOWMGZuyPmZi76FusrTcY1l1bgKJJ+Ozjl3H3y2/j+dGTMPavb+Dl7sPw7vtfYqWTkrsONWBHXSVKv9+A9as2o26HY7D2bTFhd9MmbFszBO/dcz1uOrE3nnp1Eb51HG5r+0PNH3/8ccbk3nXXXZnnME2n93ltirjOc6k35WSLurq60Oc5OeV1poBO2RTyAsrgY1OOX7hrGaacqqqqFtf7cfvVuYM5GzZswLp16zJLmxqJKMfNyFZPLSY9ss6v3q/OHdzOmqKiokzwcbYad/hx24S7lmHK8dMi6/24bY6BOXHM3E97S5Gtb9Ri0iPr/Or96tzB7axJYuYMqWWYtvtpkfV+3DbHwJx8nnlxcXFm5txHthp3ZNOeLaSWYdrup0XW+3Fze7bj4PaysrL9Mzfl+IX7uP20+wXvmPNXr+PGjUObNm1w8803txKT24iGslmYVXgtuh3VHkc7Br5d27Zouz/a4bRLrsdTk37Ecu/h7nFcYcMmrJ87BIPuOAbnHdkObU+5FJc9Phljvq0F77+Fv18fFM5r38JxGHrNq/hz95lYUOmYrH1bTNhZ/R3Wfnge3ujXEY+9thhTV9bB8fGtDhMnTsyY3C5dumSexzR/3ue2X7jPFdPrRC7O8/Xr10c+zwv4rtgUdM/8vBdPbj425fgF81kn9aYcuvSW1rPOxO1X5w7m8OB4EeDSpkbCrT3ocTOk3qSdQS0mPbKONaa++9W5g9tZU1pamgk+zlbjDua3pL2lkNq0z9xPe0uRrW/UYtIj61iTxpkzWKczT2bmfPHnzLmPbDXuyKY9W7Du7zXzbMfB7byIycxNOX4hxx1m5vX19ZnP99E0HHHEEa3oTq5zfKvGYuQxF+P6X5yCC6+5Cdc7hoimaG9ci1uuPh+F/9MDr78+BctrgO37Kvdjyw/YOOUpDO/TC4++OALvrtyCsn2bcocVKJk6FPf+50O46ZRRmLJha8umtbEElfOfwcL5b2GBc0zO/60Scif3tttuyzyPeZfT+9z2C/e5YnqdsDnPWR/lPC8pKQl9nkvoF888oFbyJqHd3TfWB+UmWM8nFoOPg4D5cWjnMpd9E8jMuQwCaiWvzjx9M+f5na8zl4sIHwdBXNpz3TdBUjMnWt8XzypRvXwaRp74LJ4/9z3MLqlFpdMf9mhvVKP005fx7unt0b1Td/SdU4/lDe7nWx22Va7G8m8WYfGihVj01bf4+rsybKhq2v9xgR1bKrG1Yi22VJWhrLQYS7/9FkuWLMV3q9djVU0D6n/2NNiN3Y3VKPpxBZYuWYKlS79DyYaNzv62Ym3FVlRt3cGvuxmwChtmvoFHj+yDO8//EDPK993J3dOInZtXYV3xOixfvxEVG1djc20Zqht2o2nXbmdf+/a2YzO21m9CWW0j6hr3rmoN0C+etfDFMxEZ9sVA6sO8kInIsNwEXwh565qNCgppUBLa3X0PA9bLO5ig+pkfh/agvEScMw/6xoYgr848fTOXX7/l48zljkVQ/XFpT6JvRFIzJ1rfF89ocmfi7ZMGYXCnKVhiOqT6Jdj4RiHu6Hovjnt6Hj74oW7fhp3A+g8xdfAtuOTCs3Hm2efgnLMvxllnPIK+ry3G987mXY5pLZ8/DJ8+fyXGD+uHxx/vi1NPPhnHn3AiTrr8dpz11y8wttj1da/dRSibNwzdb+qIE084Hh06dMBTT/THY8Mm4Mq/zMGIBRt8vsy2GhtmDcdjR/dD4UVjMGvTLmS8auV8rP7gKtzdpxeueGwIRg6+Eu+OeRrDFm/Fuv3HWg8sH4k5k4ZhwPS1+LRk3+pWgChfPIvjPI9yrvH84nke9M0sQU55ndE7uR5QK3mT0O7uG+uDchOs1zu5eifXFsyPQzuXueybgOe33skNNvO4tOe6b4KkZk60vju527C9bAHGdBiG1y6diqXGb17VOv9PwQu9n8eZF7+N4XPKHOtahdo1szH6kXtw9Znn4cSOF+OSTp3Q6awT8MeD/xundH0Sfb+rRXFDIyomFGLYpf8bV3a6EH+8sQ/O6XQpOl10NNq1Pw4F5z2NW0b9gI0Oy25HS91nQzDttg44+4+n4+iLO+GKS89An+tPxJkXXYn/fcWruG/iuuYfl8iAJvcNx+T2RbfLZmBOlWNyN32CdZPuxOBnLsFVfZ7Dnc8PxdiBJ6NHv5vQ4dXvMLlon13evgHlo3rizf53oedHKzE595+1+LtB7+Tqv5PbDNRK3iS0u/vG+qDcBOvV5KrJtQXz49DOZS77JlCTqybXFtRK3rDaidZlcndgR/0arJv1Nww+tjf6nPEKxny1Ct8XF6NkYwUqtzRh7ycTeJzfYNo9Q/Fk29fwwcQix46uQcmsV9HlvP4499qPMH5tDeqdeWxd8SG+GNge5/a4Gse/sxqfb6pD4/R7MfDyX+LgczrjvMHf4+vSDagqHYu3HrgZh/z2epzXczLm79qNxl0r8MXj16B3m2Nx/xNj8HFFFTYUzcOSF87GtWe3xS+vfBkPf1LWgskd4Zjcp9Dz0mmYuvJ7LPisC4Y8dy7ue2cGRq2oR03tWmz/dhAeeLgvjrh9EkZ+Xe3UOc+JmmWY0/9BDHmgL95eUoHV4TzZAQk1uWpym4FayZuEdnffWB+Um2C9mlw1ubZgfhzaucxl3wRqctXk2oJayRtWO9F6TC6PvRjrPnweQ089Dmf846H4738+Esd1OAOnn302Lu5yPx4bvxpf0QdmPiCwDHN7vIrBBw/FmI9+RDkcU1u0FJ9MXI3pi91z/BG7Z12Lq/vcgUNf+x7TN1SjYfp9GHzdb/HHrv1xz8xd+z6rW4Llw59Bj19fiztuHYs5NbXYVjYRgx64E6de8DiGzCjd98+PNaBpQX88de81+N1Nr+PBSUU+JncVyj59B48fNxD3nfwchr/fD53fuQ+XvTIcY1ZsR2Vm1I3O/5/jze5DcPOx72LUNH70oRZ1xdMx7L4B6PPQ+/iydIvP/tMJNblqcpuBWsmbhHZ331gflJtgvZpcNbm2YH4c2rnMZd8EanLV5NqCWskbVjvRukxuEdaOfg6DTzoaHX5xMA75ZVsc/cdTccrpp+OCm+5Br49WYXEVc/ea3M97vIKXDxqMMWN/yPyhhwyqF2H956PwwVsjMHz4cAwf1Bcv9TwPJ97+IH7/1kp8vqkadVN6YvitB+OuAcPx2oqM1XSwEWvefxWvHtoVz3WfiLml67Fp4UD06PUIfnffVLz5fW0mK3MXecM4jBj2NA6+7W3cP26Njwldi/I5f0W/P3TBTe3PQ7e+N+Co21/Blf1Wo3T/P7PAz/4WY0n/pzHi9J4YPWGZs20tShe/jN59h+Pel1fgx5rW9S/lqslVk9sM1EreJLS7+8b6oNwE69Xkqsm1BfPj0M5lLvsmUJOrJtcW1EresNqJ1vZxhaba1fhx2ki8dEwv9D59CN5f8D2++fFHrC0uw8a6RmzPPLV4nN9g+j3D8PThwzB6/DqU89f8DSux/K3OeKzjITjy0INx8MGH4JD/+g8c/Jt/wi/OvQvHvL0KCzbXoGbS3Xj79kPRZ9h7GFMif1SiFKtHDcNQx+Q+e/cUzFm/GkWzHsUddxfid/dOwVv7Ta5jaUs/wvChT2UxuSXYNOcFPHHCUTj/hJNw9VPP4razBuPZS8Zi9pp6VO7Lcs4clE9+EFP6n4IB42Zgwty5+Pa9u9HntffQZ5bzvNoe/DlxIENNrprcZqBW8iah3d031gflJlivJldNri2YH4d2LnPZN4GaXDW5tqBW8obVTrTKL55tXIixp/GLZ9PwnesfOvgJdc7/U/FS7+dxbsd3MWIO/8reCqz//Hk8cNdVOPPyzrirVz888UR/PNm7Bx677VQcfdv9OPqtlZhbuTljct9xTO6Tr72P8WVickuw6m9DMMgxuU/3mIS5xY5x/uIZFD70EH7zwHS8tUz+BQenx2UT8Oarz2RM7n2+JncdNs4egr7HXoZrzn8cA6fOx5yBz+OVWx/Gn8Z+i1GlPx1Y05pX8OX463HpO6Nx47OvY+IjN+G19yfi7VKgPpwfO2ChJldNbjNQK3mT0O7uG+uDchOsV5OrJtcWzI9DO5e57JtATa6aXFtQK3nDaidan8m1+SfEvkXFiO6447b7cPyzizBmrWMzK8djwStXov31j+EPg9Zg/b5UbP4MP7xwFS68oyeOGrkKczZtRu2+O7n9XnkPYx0j+XOTeyueKpyAeZursaV4LJ576G4cf8UADJuzcd+f2N2CHV8PwHO9bsF/dH4DD05c72Ny5YtnT6LHZbMwr2IzdlWOwt9eLsQxnV9D7w9c/ypD3TdYPW8QOj7wCA45tTN6/qkn3pm8CN85hHu1tR6oyVWT2wzUSt4ktLv7xvqg3ATr1eSqybUF8+PQzmUu+yZQk6sm1xbUSt6w2onWaXL5xyCew1/Oex+fbqhHtdMb9mdv1KDssyEYdUZ7dOvUHX3mbsPKJqdvG8dj0WvX4Jhre+EPz3yL7zOOdA+2f/EKRp/ZDm2PuxbtR6zAZ/y4wsTuGNn1v9Bn2CiMcZvcdwfjpYM6o//tYzG7aRe27FiK2Q9fhXvanIzeA2dgXtNubKtbjh9e74QuF/0e//qnwXhkqt+/rrAKpTOH49Ejn0ThRZ9gbi2z1mLpe8/j0aMK8di9E/BZzZ69fwVtTy1qvh+JQeefgPb/cCwOv2YYhi7YmPlQRvBnxIENNblqcpuBWsmbhHZ331gflJtgvZpcNbm2YH4c2rnMZd8EanLV5NqCWskbVjvR+kxu7b4/69sJN/zjabj4+ltw8+234/b9cSNu+9MF6HZ5N7z2ykQsq937CV3UL0PxnCdx7wUX4MT2nXD5LV2d3BfR95aHMPB/zkK7C27Db/rPw4TiMpSO74rXr/0nPPTCWxhVLF88K8LyEc/j2V9eiUeveweTnJ3WOf9VTf4zJlx9LM4/vSPO7Hofut3ZD689dBWuu/lq/NsNr+ORyfzny0yQP+v7IG48+X1MrWx0dO7G1qXT8E23Qtx63Z9xzTvLsGDTXvbdZTOxpOd/4qbT2uH3fT7FyFWt6wtnAjW5jsnlClNwY1NT088O0jbkAFnPJX825fmFNDcMtwQbIy+Epu1+Qa3kTUK7u2+sD8pNsF4MDx8TplxTMD8O7Vzmsm8SMnMuTdv9glrJqzNP38zljU2+zryqqirzmDDlmiIu7bnum0QSMxfMmjWrlZlcxww6hm/GHdfgrnZtcdQRR+AIT5za8Vr0//gHfP+zW6hOH6s+x+c9b0DPtm1xZCa3O2687q+YOHk4eo18B5e9/CWmr9uA0nkDMOGJjnhl9BTMqGAlUY71k9/Duxc9jtf7f4J5zvuVvea1CJXzBqHw+gtwwgnn4qzT7sHQJ7uh8Mn78S93vIOHHZO716Z6UYRNCz7C4CuH4anCGVhQvWPv/nYUY9f37+KRv7yKjs/Pw6ySfdV132D5cyfhqbsvRo/x6zDX0dUa4Ta58jz2PrdNEdd5LvWmnGwhb2br6+uN2/1CtMvrTAHFmILieBI3Njbuf0GyDWkO6+UgTXl+QT7yhuHmATLYmPLy8swLoawz5XuDWsmbhHZ331gflJvHyHr+KTwGH9seN4P5cWjnMpd9k/nKzLmUdaZ8b1AreXXm6Zs5z+98nDk5aXDDzDwu7fk0c8HMmTPRrl27VmRyHVPQWIXq5Yux9NPpmP7JFEyZPBmT98cUzJr/FfiXfJuZyz1bsG3FEqycORXTpjD3ayxYVIrK+k34sbICX6/bjMptDWioWYdNa75C8cZKVDWRkWjC9sqNKPvqB5SsqUSN8z5tf5d3VmDF0i/x2SzHRE+dha/fvAx39zoT/++R0eg3rw7m+//b0VRbgaJvivHj8irU7nCMVma9Y6l3VWDl+iLMX1W5719PaMC2NdPx8aVX46krHsHrX9fhx9Z5I3e/yS0sLMycJ4Tp+e2NuM5zqTfl+IWc03wzy/O8rs6ZecDznJzyOlNAMaagODpp3jKWFyTbkOawXg7SlOcX5CNvGG4eIKO2tnZ/g2SdKd8b1EreJLS7+8b6oNx8ErBeDA8fc50p1xTMj0M7l7nsm3fmXOrMzfneYH4c2rnMZd9kvjy/83Hm5ORdjoqKisy+gsw8Lu35NHPB9OnTW5nJPVDg9HjbD1g59X2889SzGPTCixg06CW8NOBxPHTnObjs/q647eMlmFEa7iMu+9HwA5aNfxHD7roBt574KPo+8jmWbNqJYL8QTw/cJpfnCWF6fnsjrvNc6k05fiHntNy0qqmpCXyek1NeZwqk2BsiUg7QlOMXJJJ6eSEz5fmFiAzDLW5eXgjZKLfDzxbUKg3KtXZ331gflFsufmJ4+JjrTLmmYH4c2rnMZd+8M+dSZ27O9wbz49DOZS77JvOVF8J8mzk5OW8aXe4ryMzj0p5PMxfMmDFDTe7fBduBms8w65k70PnQw/B7x5i1aXM4Dj/iaBx6US/c9MZiLK3dgV0/fXIkBBqBzZ/ik95Xoctxp+Lqhz/EW8t2oyHSPg9suE0uzxPC9Pz2RlznudSbcvxCzmn5jQ3fzAY9z8kprzMFps80MJhMoSzgzk05fiEvuPIixp9NeX5BPvKG4ZZgg3iXI58+k8tgPX+NKZ/VM+X4BfPj0M5lLvsmITPn0rTdL6iVvDrz9M2c53e+ztz9mVxTjl/EpT3XfZNIYuaC1veZ3AMFzhuJxg0oWTwL00eOxLtOjGS88z7enroM84uc5/i+zPBwOBpKUfTFVMwa8zFmLy9HUcQbwwc6xOR269Zt//PY+9w2RVznudSbcrIF7wLzPOebWtN2vxDt8jqj/7qCB9QqDcq1dnffWB+Um2C9fAmJj4OA+XFo5zKXfRPIzLkMAmolr848fTPn+Z2vM9d/XUH/dQWFoiW4v3gWBHGd51IfBrwLzPOcb2aDQLTL64yaXA+olbxJaHf3jfVBuQnWq8lVk2sL5sehnctc9k2gJldNri2olbxhtRNqchVpgppcNbnNQK3kTUK7u2+sD8pNsF5NrppcWzA/Du1c5rJvAjW5anJtQa3kDaudUJOrSBPU5KrJbQZqJW8S2t19Y31QboL1anLV5NqC+XFo5zKXfROoyVWTawtqJW9Y7YSaXEWaoCZXTW4zUCt5k9Du7hvrg3ITrFeTqybXFsyPQzuXueybQE2umlxbUCt5w2on1OQq0gQ1uWpym4FayZuEdnffWB+Um2C9mlw1ubZgfhzaucxl3wRqctXk2oJayRtWO6EmV5EmqMlVk9sM1EreJLS7+8b6oNwE69Xkqsm1BfPj0M5lLvsmUJOrJtcW1EresNoJNbmKNEFNrprcZqBW8iah3d031gflJlivJldNri2YH4d2LnPZN4GaXDW5tqBW8obVTqjJVaQJanLV5DYDtZI3Ce3uvrE+KDfBejW5anJtwfw4tHOZy74J1OSqybUFtZI3rHZCTa4iTVCTqya3GaiVvElod/eN9UG5CdaryVWTawvmx6Gdy1z2TaAmV02uLaiVvGG1E2pyFWmCmlw1uc1AreRNQru7b6wPyk2wXk2umlxbMD8O7Vzmsm8CNblqcm1BreQNq51wm1z+fXyF4kDGxx9/rCaXYkxBcTyJ3X+72DakOayXgzTl+QX5yBuGmwfIYGP4d4/5QijrTPneoFbyJqHd3TfWB+XmMbKef8+ewce2x81gfhzaucxl32S+MnMuZZ0p3xvUSl6defpmzvM7H2dOThrcMDOPS3s+zVwwc+ZMtGvXDl27dt23RqE4cPHpp5+ibdu2KCwszJwnhOn57Y24znOpN+X4hZzTfDPL87y+vj7weU5OeZ0poBhTUBydNH8lIy9ItiHNYb0cpCnPL8hH3jDcPEBGXV0dysvLMw2SdaZ8b1AreZPQ7u4b64Nyc8Csr6yszAQfc50p1xTMj0M7l7nsm3fmXOrMzfneYH4c2rnMZd9kvjy/83Hm5OS8eaeD+woy87i059PMBTNmzMBhhx2GSy65BKtXr0ZxcbGGxgEbr7/+On7729/izjvvzJwnhOn57Y24znOpN+X4hZzTfBPL87y2tjbweU5OeZ0p4ApTcCOdtPsgbUMOkPVc8mdTnl9Ic8NwSzNMJteU7w1qJW8S2t19Y31Qbl7oWC+Gh4+5zpRrCubHoZ3LXPbNO3P3xc+U7w1qJa/OPH0zNxkeU743qJW8aZ05a8Tkcl9BZh6X9nyauYB3xg4++GD84he/wBlnnIGzzz47p3HOOedkwrStNQeP+dxzz83bYw973LyLW1BQgJ49e2ZeIwjT89sbcZ3nUm/K8Qs5p00m15TvDdEurzMFUuwNSZQXIlOOX9BNSz2X/NmU5xfkI28Ybg6SwRdC+ZWWrDPle4NayZuEdnffWB+Um7fzWS+/uuZjrjPlmoL5cWjnMpd9886cS525Od8bzI9DO5e57JvMl+d3Ps6cnJw3jS73FWTmcWnPp5kT7PHKlStxzz334Pzzz8dpp52GDh06WMepp566P0zbbeKkk07KRJh9ROGW2qTqTz75ZJx44omZpWl7SxGVO47asPUMzpvHHmYfZ555Ji688EKMGjUq8/wlTM9vb8R1nku9Kccv5JyWjyXxzWzQ85yc8jqjXzzzgFrJm4R2d99YH5SbYH2+fglJZs5lEFAreXXm6Zs5z+98nbl+8Sz3M+edobKyMqxbtw5r1qzBDz/8YBX8aMOqVauwYsWKjFHmz6a8loL1ixcvxqJFizL7MOX4BWtZw+BjU45fuLVzGVR7FG6JpUuX4ssvv8S3335r3O4X1EreJLS7+8b6oNwM1nPmCxcuzOzDlOMXcrx8rvJuaBDEdZ5LfRjwXON5zje1QSDa5XVGTa4H1EreJLS7+8b6oNwE69Xkqsm1BfPj0M5lLvsmUJOrJtcW1EreKNoVyUH7nzvEdZ5LfRioyc0CNblqcm1BreTVmadv5mpy1eTaglrJG1V7mFrCXR8G5KypqcnMPeg+WMuaqNrDzMzNHXbmNDz8aE7QmRPkjUN7lL6xPgzIyZmHOc+jaJfaqOeK1IeBmtwsEMOjJtcezI9DO5e57JtAZp6PhidfZ64mV02uLaiVvGmdOTll5txHEMSlPWrfWB8GMvMwhoe8aZ85P3/PfQRBXNqj9E3qw0BNbhaoyVWTawtqJa/OPH0zV5OrJtcW1EretM6cnGpy1eTaIi7tUfom9WGgJjcL1OSqybUFtZJXZ56+mavJVZNrC2olb1pnTk41uWpybRGX9ih9k/owUJObBWpy1eTaglrJqzNP38zV5KrJtQW1kjetMyenmlw1ubaIS3uUvkl9GKjJzQI1uWpybUGt5NWZp2/manLV5NqCWsmb1pmTU02umlxbxKU9St+kPgzU5GaBmlw1ubagVvLqzNM3czW5anJtQa3kTevMyakmV02uLeLSHqVvUh8GanKzQE2umlxbUCt5debpm7maXDW5tqBW8qZ15uRUk6sm1xZxaY/SN6kPAzW5WaAmV02uLaiVvDrz9M1cTa6aXFtQK3nTOnNyqslVk2uLuLRH6ZvUh4Ga3CxQk6sm1xbUSl6defpmriZXTa4tqJW8aZ05OdXkqsm1RVzao/RN6sMgNpNLMaaguMbGRjQ1Ne1vkm1Ic1gvB2nK8wvykTcMt0R9fT0qKioyDTJt9wtqJW8S2t19Y31Qbg6X9TwhGHzMdaZcUzA/Du1c5rJvEjJzLk3b/YJayaszT9/MeX7n88z5V6D4OMjM49Ke675J5OvMySkz5z7SOHPWm3Kyhcy8rq7OuN0vqJW8OvNkZi71ppxswTexYWdOTjn2AooxBcXRSTc0NOxvkm1Ic1gvB2nK8wvykTcMNw+QwcaUl5dnXghlnSnfG9RK3iS0u/vG+qDcHDDreUIw+JjrTLmmYH4c2rnMZd+8M+dSZ27O9wbz49DOZS77JvPl+Z2PMycn5807HdxXkJnHpV1nbs4zhbtvrA/K3VpmznpTjl94Z15bW5u3M+c+0jZzqTfl+IXMl29sws6cnHLsanI9Qa3kTUK7u2+sD8rNE4D1+Wp41OSqyc2XmZNTLn7cV5CZx6VdZ27OM4W7b6wPyt1aZs56U45feGeuJldNbrYQ7XLsre7jCrydz5Bfb/CWt6wz5XuDWsmbhHZ331gflJvHyPp8+9W1zFdmzqWsM+V7g1rJqzNP38zlV1r5NnNy8rOZYWYel3aduTnPFO6+sT4oN4+RnGmfOetNOX4h85WZ0+zKOlO+N6iVvGmfOY0u92F73Iy4tEfpm9SbcvxC5svPYYedOTnl2PWLZx5QK3mT0O7uG+uDchOs50nB4OMgYH4c2rnMZd8EMnMug4BayaszT9/M9Ytn+sUzW1AredM6c3LqF8/0i2e2iEt7lL5JfRjwLnDYmZNTjl1NrgfUSt4ktLv7xvqg3ATr89XwqMlVk2sLaiVvmmeuJldNri3i0h61b6wPAzW5anJtIdrl2NXkekCt5E1Cu7tvrA/KTbA+Xw2Pmlw1ubagVvKmeeZqctXk2iIu7VH7xvowUJOrJtcWol2OXU2uB9RK3iS0u/vG+qDcBOvz1fCoyVWTawtqJW+aZ64mV02uLeLSHrVvrA8DNblqcm0h2uXY1eR6QK3kTUK7u2+sD8pNsD5fDY+aXDW5tqBW8qZ55mpy1eTaIi7tUfvG+jBQk6sm1xaiXY5dTa4H1EreJLS7+8b6oNwE6/PV8KjJVZNrC2olb5pnriZXTa4t4tIetW+sDwM1uWpybSHa5djV5HpAreRNQru7b6wPyk2wPl8Nj5pcNbm2oFbypnnmanLV5NoiLu1R+8b6MFCTqybXFqJdjl1NrgfUSt4ktLv7xvqg3ATr89XwqMlVk2sLaiVvmmeuJldNri3i0h61b6wPAzW5anJtIdrl2NXkekCt5E1Cu7tvrA/KTbA+Xw2Pmlw1ubagVvKmeeZqctXk2iIu7VH7xvowUJOrJtcWol2OXU2uB9RK3iS0u/vG+qDcBOvz1fCoyVWTawtqJW+aZ64mV02uLeLSHrVvrA8DNblqcm0h2uXY1eR6QK3kTUK7u2+sD8pNsD5fDY+aXDW5tqBW8qZ55mpy1eTaIi7tUfvG+jBQk6sm1xaiXY7d1+SKyDAHSEh90OYSIjIsN8GTgn/vmY0KCmlQEtrdfQ8D1vOkYATVz/w4tAflJeKcOZdBQV6defpmzvM7X2deU1MTauZxaU+ib0S+zpycMvOg+4hLe9S+haknZOZB39gQ5E37zMO8mY1Le5S+ha0nGhoaQs+cnHLseifXA2olbxLa3X1jfVBugvX5eldPZp5vd3hYn68z5/mdrzOn2Qkz87i057pvgnydOTll5txHEMSlPWrfWB8GMnO9k2uPuLRH6ZvUh0Fsd3Lr6upgCnnHyKitrTXm+AXzpZ5LU059fb3vetb7cfvVuYM5bE5xcXFmaVMj4eb2095StKSdQS0mPbLOr+9+de7gdtZv2LAhE3ycrcYdftw2wXyp59KU46eF61vqm80xMEdnntuZM6SeS9N2Py1c31LfbI6BOTrz4DPPpj1biHa/vvlp4fqWuLk923FwO+/uyMxNOX7h5vbT3lJk65ufflknffPW+9W5g9tZIzPnPrLVuCOb9mwR18y99dye7Ti4nTMvKSlBRUWFMccvWuK2iWx989Mv6+KaeWlpaWYf2WrckU17tnDP3O/YvetkvZs7iZm7+17AHZmCOy4vL88EX0xMOX7BfKnn0pTDdyZ+61nvx+1X5w7m8Imxbt26zNKmRsLN7ae9pWhJO4NaTHpknV/f/ercwe2sLyoqygQfZ6txhx+3TTBf6rk05fhp4fqW+mZzDMzRmed25gyp59K03U8L17fUN5tjYI7OPPjMs2nPFqLdr29+Wri+JW5uz3Yc3F5WVrZ/5qYcv3Bz+2lvKbL1zU+/rJO+eev96tzB7ayRmXMf2WrckU17tohr5t56bs92HNzOma9fv15nnqXGHdm0Zwv3zP2O3btO1ru5k5i5u+8FjY2NMAVvFfPXQfw1AR+bcvyCn6VgndTzZ1OeX0h9GG4JOnk2iUvTdr9wayd3UO2sCaudXKwJ2zcG6zlgRlD+qNpZl/aZh9EetW+s0ZnrzIME6+XFnPsw5fhFVO2sS3LmvFOTtpkzWKMzjzZz3pkzbfeLqNqj9I3BmjhmTrPGfZhy/CKK9qh9c9eH6Rsj6swlfD+TK59rCPpZDoHUB/0sh4C8YbkJHhxdPRscFORNSnscfZfb9EH1Mz8O7UF5BVG4CZk5l0FBXp15cIj2oLyCKNwEz+98nTlNXpiZE3FoT6JvRL7OnJCZh9lHHNqj9i1svcycpikoyJv2mfNz2GH2EYf2KH2LUk+zGnbm5JRj1y+eeUCt5E1Cu7tvrA/KTbA+X7+EJDMPelJQK3l15umbOc/vfJ05zU6YmcelPdd9E+TrzMkpM+c+giAu7VH7xvowkJnrF8/sEZf2KH2T+jDgG5uwMyenHLuaXA+olbxJaHf3jfVBuQnW56vhUZOrJtcW1EreNM9cTa6aXFvEpT1q31gfBmpy1eTaQrTLsavJ9YBayZuEdnffWB+Um2B9vhoeNblqcm1BreRN88zV5KrJtUVc2qP2jfVhoCZXTa4tRLscu5pcD6iVvElod/eN9UG5Cdbnq+FRk6sm1xbUSt40z1xNrppcW8SlPWrfWB8GanLV5NpCtMuxq8n1gFrJm4R2d99YH5SbYH2+Gh41uWpybUGt5E3zzNXkqsm1RVzao/aN9WGgJldNri1Euxy7mlwPqJW8SWh39431QbkJ1uer4VGTqybXFtRK3jTPXE2umlxbxKU9at9YHwZqctXk2kK0y7GryfWAWsmbhHZ331gflJtgfb4aHjW5anJtQa3kTfPM1eSqybVFXNqj9o31YaAmV02uLUS7HLuaXA+olbxJaHf3jfVBuQnW56vhUZOrJtcW1EreNM9cTa6aXFvEpT1q31gfBmpy1eTaQrTLsavJ9YBayZuEdnffWB+Um2B9vhoeNblqcm1BreRN88zV5KrJtUVc2qP2jfVhoCZXTa4tRPveY9+J/w/wgSu/+9IXDwAAAABJRU5ErkJggg==;" vertex="1" parent="1">
          <mxGeometry x="630" y="227.5" width="295.59" height="405" as="geometry" />
        </mxCell>
        <mxCell id="6Z3J_ZcBFyfKpuIfTOYv-4" value="Thông báo" style="rounded=0;whiteSpace=wrap;html=1;" vertex="1" parent="1">
          <mxGeometry x="235" y="470" width="260" height="170" as="geometry" />
        </mxCell>
        <mxCell id="6Z3J_ZcBFyfKpuIfTOYv-5" value="OK" style="rounded=0;whiteSpace=wrap;html=1;" vertex="1" parent="1">
          <mxGeometry x="380" y="600" width="90" height="30" as="geometry" />
        </mxCell>
        <mxCell id="6Z3J_ZcBFyfKpuIfTOYv-8" value="" style="shape=flexArrow;endArrow=classic;html=1;rounded=0;" edge="1" parent="1">
          <mxGeometry width="50" height="50" relative="1" as="geometry">
            <mxPoint x="520" y="285" as="sourcePoint" />
            <mxPoint x="590" y="285" as="targetPoint" />
          </mxGeometry>
        </mxCell>
        <mxCell id="6Z3J_ZcBFyfKpuIfTOYv-9" value="" style="shape=flexArrow;endArrow=classic;html=1;rounded=0;" edge="1" parent="1">
          <mxGeometry width="50" height="50" relative="1" as="geometry">
            <mxPoint x="580" y="520" as="sourcePoint" />
            <mxPoint x="530" y="520" as="targetPoint" />
          </mxGeometry>
        </mxCell>
        <mxCell id="6Z3J_ZcBFyfKpuIfTOYv-10" value="" style="shape=flexArrow;endArrow=classic;html=1;rounded=0;" edge="1" parent="1">
          <mxGeometry width="50" height="50" relative="1" as="geometry">
            <mxPoint x="360" y="460" as="sourcePoint" />
            <mxPoint x="360" y="400" as="targetPoint" />
          </mxGeometry>
        </mxCell>
      </root>
    </mxGraphModel>
  </diagram>
</mxfile>
